<svg width="363" height="427" viewBox="0 0 363 427" fill="none" xmlns="http://www.w3.org/2000/svg">
<ellipse cx="251.438" cy="146.682" rx="11" ry="15" transform="rotate(-10 251.438 146.682)" fill="#D9D9D9"/>
<ellipse cx="202.5" cy="146" rx="11.5" ry="15" transform="rotate(-3 202.5 146)" fill="#D9D9D9"/>
<path d="M40.5 304.5C45.3 296.5 47.8333 275.167 48.5 265.5C53 251.5 60 235.5 64 229.5C67.2 224.7 88.5 204 98.5 196.5C98.8333 190.167 95.3 175.4 94.5 165C93.7 154.6 90 141.5 87 133.5C75.375 102.5 64.5 33.1 64.5 21.5V4L67 1C70.5 1.83333 72.7 3.4 77.5 13C82.3 22.6 84.8782 46 89.5 56C98.6667 75.8333 116.9 118.1 122.5 128.5C128.1 138.9 134 162 134 173.5L138 184.5C140.5 184.833 144.7 179.5 141.5 155.5C138.3 131.5 137.833 127.5 138 128.5C141.333 102 145.383 49.7847 152.5 47C164 42.5 182.5 83 196.5 105.5C199.5 103 222 102.5 222 102.5C222 102.5 241 102 245 105.5C251.5 94.1667 262.9 72.1 268.5 62.5C274.1 52.9 278 56.5 279 58.5L276 115.5L279 133C290 150.5 277.5 195.5 267.5 201.5C252.557 210.466 260.667 221 263.5 225L273 262L294 300.5C305.833 324 330.5 372.2 334.5 377C338.5 381.8 347.5 380.5 355.5 385C363.5 391 363.3 405 358.5 411C352.5 418.5 323.5 414 316 411C308.5 408 310.5 404 302.5 385.5C294.5 367 262 331.5 253.5 326C246.666 321.578 235 288 230 300.5C225.798 311.005 215.5 318.5 209 324.5C195 329.5 184.2 334.7 173 331.5C161.8 328.3 162.833 336.833 164 341C170.167 362.667 174.4 400 168 406C160 413.5 134 428.5 126 426C118 423.5 114 415.5 112 411C110.4 407.4 117.667 397.167 122.5 393.5L119.5 360L112 328C109.667 320.167 102.9 304.5 94.5 304.5C86.1 304.5 82 309.167 81 311.5C73.6667 322 58 343.7 54 346.5C50 349.3 48.6667 361.333 48.5 367C48.5 377.5 46.9 400 40.5 406C32.5 413.5 18 416 13.5 413.5C9.00001 411 0.500011 400 1.50001 393.5C2.50001 387 15.5 371.5 18 367C20.5 362.5 21 337.5 23.5 328C26 318.5 34.5 314.5 40.5 304.5Z" stroke="black"/>
</svg>