%TF.GenerationSoftware,KiCad,Pcbnew,9.0.3*%
%TF.CreationDate,2025-08-02T05:50:16+03:00*%
%TF.ProjectId,LuminanceMeter,4c756d69-6e61-46e6-9365-4d657465722e,V0.1*%
%TF.SameCoordinates,Original*%
%TF.FileFunction,Legend,Bot*%
%TF.FilePolarity,Positive*%
%FSLAX46Y46*%
G04 Gerber Fmt 4.6, Leading zero omitted, Abs format (unit mm)*
G04 Created by KiCad (PCBNEW 9.0.3) date 2025-08-02 05:50:16*
%MOMM*%
%LPD*%
G01*
G04 APERTURE LIST*
%ADD10C,0.200000*%
%ADD11C,0.000000*%
%ADD12C,0.150000*%
%ADD13C,0.120000*%
G04 APERTURE END LIST*
D10*
X127086598Y-69556225D02*
X127086598Y-69903491D01*
X127076875Y-70039847D01*
X127049275Y-70261360D01*
X127006153Y-70545661D01*
X126949862Y-70870377D01*
X126882759Y-71213139D01*
X126807197Y-71551576D01*
X126725530Y-71863317D01*
X126683144Y-72002185D01*
X126640114Y-72125990D01*
X126617278Y-72189963D01*
X126593977Y-72261610D01*
X126571048Y-72339117D01*
X126549329Y-72420670D01*
X126529656Y-72504456D01*
X126512866Y-72588660D01*
X126499797Y-72671469D01*
X126494919Y-72711783D01*
X126491286Y-72751068D01*
X126487705Y-72790717D01*
X126483046Y-72832025D01*
X126471256Y-72918129D01*
X126443165Y-73093872D01*
X126429933Y-73177557D01*
X126419290Y-73254483D01*
X126415420Y-73289480D01*
X126412771Y-73321671D01*
X126411538Y-73350684D01*
X126411911Y-73376147D01*
X126451603Y-73406981D01*
X126495696Y-73443108D01*
X126593667Y-73527858D01*
X126698986Y-73623632D01*
X126804817Y-73723660D01*
X126904322Y-73821178D01*
X126990666Y-73909416D01*
X127026766Y-73947942D01*
X127057011Y-73981610D01*
X127080547Y-74009574D01*
X127096520Y-74030990D01*
X127128863Y-74084475D01*
X127165508Y-74153774D01*
X127205176Y-74236094D01*
X127246588Y-74328647D01*
X127288466Y-74428640D01*
X127329529Y-74533285D01*
X127368500Y-74639790D01*
X127404098Y-74745365D01*
X127410811Y-74827184D01*
X127421090Y-74924892D01*
X127435027Y-75032676D01*
X127452716Y-75144723D01*
X127462996Y-75200528D01*
X127474249Y-75255220D01*
X127486487Y-75308070D01*
X127499720Y-75358352D01*
X127513962Y-75405340D01*
X127529222Y-75448307D01*
X127545514Y-75486526D01*
X127562848Y-75519272D01*
X127574150Y-75537533D01*
X127585713Y-75555139D01*
X127609493Y-75588550D01*
X127633941Y-75619840D01*
X127658811Y-75649341D01*
X127683856Y-75677389D01*
X127708828Y-75704319D01*
X127757565Y-75756156D01*
X127780836Y-75781734D01*
X127803047Y-75807529D01*
X127823949Y-75833877D01*
X127843296Y-75861111D01*
X127852309Y-75875165D01*
X127860841Y-75889566D01*
X127868861Y-75904356D01*
X127876337Y-75919576D01*
X127883239Y-75935269D01*
X127889536Y-75951476D01*
X127895197Y-75968239D01*
X127900192Y-75985599D01*
X127909048Y-76024376D01*
X127917090Y-76069315D01*
X127931198Y-76173495D01*
X127943445Y-76289767D01*
X127954762Y-76409760D01*
X127966079Y-76525102D01*
X127978327Y-76627421D01*
X127985090Y-76671081D01*
X127992434Y-76708346D01*
X128000476Y-76738170D01*
X128009333Y-76759506D01*
X128020967Y-76778710D01*
X128036831Y-76802449D01*
X128078631Y-76861205D01*
X128184205Y-77007553D01*
X128237516Y-77085842D01*
X128262013Y-77124232D01*
X128284199Y-77161342D01*
X128303420Y-77196591D01*
X128319023Y-77229399D01*
X128330352Y-77259184D01*
X128334210Y-77272762D01*
X128336754Y-77285365D01*
X128338070Y-77297711D01*
X128338331Y-77310533D01*
X128337585Y-77323784D01*
X128335882Y-77337416D01*
X128333271Y-77351383D01*
X128329800Y-77365636D01*
X128325518Y-77380130D01*
X128320476Y-77394816D01*
X128314722Y-77409647D01*
X128308304Y-77424577D01*
X128293675Y-77454541D01*
X128276983Y-77484331D01*
X128258619Y-77513568D01*
X128238977Y-77541876D01*
X128218448Y-77568875D01*
X128197424Y-77594188D01*
X128176299Y-77617438D01*
X128155464Y-77638246D01*
X128135313Y-77656234D01*
X128116237Y-77671025D01*
X128107225Y-77677103D01*
X128098629Y-77682240D01*
X128089686Y-77686601D01*
X128079641Y-77690379D01*
X128056481Y-77696193D01*
X128029629Y-77699681D01*
X127999566Y-77700844D01*
X127966770Y-77699681D01*
X127931721Y-77696193D01*
X127894899Y-77690379D01*
X127856784Y-77682240D01*
X127817854Y-77671776D01*
X127778591Y-77658986D01*
X127739473Y-77643871D01*
X127700979Y-77626430D01*
X127663591Y-77606664D01*
X127627786Y-77584572D01*
X127594045Y-77560155D01*
X127578099Y-77547074D01*
X127562848Y-77533412D01*
X127551219Y-77521308D01*
X127540136Y-77507389D01*
X127519564Y-77474520D01*
X127501038Y-77435635D01*
X127484465Y-77391560D01*
X127469753Y-77343126D01*
X127456808Y-77291160D01*
X127445537Y-77236490D01*
X127435848Y-77179945D01*
X127427647Y-77122354D01*
X127420841Y-77064545D01*
X127411044Y-76951587D01*
X127405710Y-76847698D01*
X127404098Y-76759506D01*
X127401714Y-76712019D01*
X127396812Y-76656316D01*
X127393306Y-76626517D01*
X127389041Y-76596025D01*
X127383971Y-76565292D01*
X127378053Y-76534773D01*
X127371244Y-76504920D01*
X127363500Y-76476188D01*
X127354777Y-76449029D01*
X127345032Y-76423898D01*
X127334221Y-76401246D01*
X127328402Y-76390992D01*
X127322301Y-76381529D01*
X127315911Y-76372912D01*
X127309227Y-76365199D01*
X127302245Y-76358446D01*
X127294958Y-76352709D01*
X127277459Y-76338042D01*
X127255115Y-76315460D01*
X127198219Y-76250049D01*
X127128921Y-76163476D01*
X127051871Y-76062742D01*
X126971721Y-75954846D01*
X126893121Y-75846786D01*
X126759176Y-75658178D01*
X126754729Y-75648988D01*
X126748805Y-75638917D01*
X126741369Y-75628167D01*
X126732387Y-75616943D01*
X126721824Y-75605446D01*
X126709645Y-75593882D01*
X126695814Y-75582454D01*
X126680297Y-75571364D01*
X126663060Y-75560817D01*
X126644067Y-75551016D01*
X126623284Y-75542164D01*
X126600674Y-75534465D01*
X126576205Y-75528123D01*
X126549840Y-75523341D01*
X126535936Y-75521599D01*
X126521545Y-75520323D01*
X126506663Y-75519539D01*
X126491286Y-75519272D01*
X126475755Y-75520168D01*
X126460425Y-75522801D01*
X126445305Y-75527085D01*
X126430405Y-75532934D01*
X126415736Y-75540263D01*
X126401308Y-75548987D01*
X126387131Y-75559020D01*
X126373214Y-75570277D01*
X126359570Y-75582673D01*
X126346206Y-75596121D01*
X126320364Y-75625836D01*
X126295770Y-75658739D01*
X126272506Y-75694147D01*
X126250652Y-75731376D01*
X126230291Y-75769744D01*
X126211503Y-75808566D01*
X126194371Y-75847161D01*
X126178975Y-75884845D01*
X126165397Y-75920935D01*
X126153718Y-75954747D01*
X126144020Y-75985599D01*
X125995192Y-76620599D01*
X125935661Y-77285365D01*
X125954154Y-77300472D01*
X125973451Y-77318249D01*
X125993223Y-77338312D01*
X126013142Y-77360278D01*
X126032878Y-77383763D01*
X126052104Y-77408384D01*
X126070491Y-77433756D01*
X126087711Y-77459497D01*
X126103435Y-77485221D01*
X126117334Y-77510547D01*
X126129080Y-77535090D01*
X126138345Y-77558466D01*
X126141944Y-77569596D01*
X126144800Y-77580292D01*
X126146871Y-77590503D01*
X126148117Y-77600183D01*
X126148495Y-77609284D01*
X126147966Y-77617758D01*
X126146488Y-77625556D01*
X126144020Y-77632631D01*
X126127199Y-77669024D01*
X126117249Y-77689008D01*
X126106193Y-77709835D01*
X126093975Y-77731244D01*
X126080536Y-77752972D01*
X126065818Y-77774759D01*
X126049762Y-77796342D01*
X126032312Y-77817460D01*
X126013408Y-77837851D01*
X125992993Y-77857254D01*
X125982200Y-77866503D01*
X125971007Y-77875407D01*
X125959408Y-77883933D01*
X125947395Y-77892048D01*
X125934960Y-77899720D01*
X125922096Y-77906916D01*
X125908796Y-77913604D01*
X125895053Y-77919750D01*
X125880859Y-77925322D01*
X125866208Y-77930287D01*
X125850300Y-77933936D01*
X125832431Y-77935640D01*
X125812730Y-77935492D01*
X125791328Y-77933581D01*
X125743948Y-77924837D01*
X125691335Y-77910133D01*
X125634536Y-77890198D01*
X125574597Y-77865756D01*
X125512566Y-77837536D01*
X125449489Y-77806264D01*
X125386411Y-77772666D01*
X125324380Y-77737470D01*
X125264442Y-77701401D01*
X125207643Y-77665187D01*
X125155030Y-77629555D01*
X125107649Y-77595230D01*
X125066547Y-77562940D01*
X125032770Y-77533412D01*
X125021477Y-77520457D01*
X125011388Y-77504029D01*
X124994699Y-77461440D01*
X124982449Y-77407011D01*
X124974385Y-77342107D01*
X124970256Y-77268095D01*
X124969807Y-77186342D01*
X124972787Y-77098213D01*
X124978941Y-77005075D01*
X124988019Y-76908293D01*
X124999765Y-76809234D01*
X125030256Y-76609750D01*
X125068390Y-76417552D01*
X125089692Y-76327600D01*
X125112145Y-76243569D01*
X125116398Y-76227127D01*
X125120236Y-76209123D01*
X125123308Y-76190024D01*
X125125264Y-76170299D01*
X125125750Y-76150415D01*
X125125332Y-76140559D01*
X125124415Y-76130840D01*
X125122955Y-76121315D01*
X125120908Y-76112042D01*
X125118229Y-76103081D01*
X125114876Y-76094490D01*
X125110804Y-76086327D01*
X125105969Y-76078650D01*
X125100327Y-76071519D01*
X125093834Y-76064992D01*
X125086446Y-76059127D01*
X125078120Y-76053983D01*
X125068811Y-76049618D01*
X125058475Y-76046091D01*
X125047068Y-76043460D01*
X125034547Y-76041784D01*
X125020868Y-76041121D01*
X125005985Y-76041530D01*
X124989856Y-76043069D01*
X124972437Y-76045797D01*
X124953683Y-76049772D01*
X124933551Y-76055053D01*
X124891955Y-76065048D01*
X124850440Y-76071385D01*
X124808902Y-76074316D01*
X124767236Y-76074091D01*
X124725337Y-76070958D01*
X124683102Y-76065169D01*
X124640424Y-76056972D01*
X124597200Y-76046619D01*
X124553325Y-76034359D01*
X124508694Y-76020443D01*
X124416746Y-75988638D01*
X124219177Y-75916146D01*
X124167658Y-75870049D01*
X124111375Y-75820818D01*
X124052627Y-75768100D01*
X124023049Y-75740325D01*
X123993717Y-75711545D01*
X123964919Y-75681718D01*
X123936944Y-75650799D01*
X123910078Y-75618745D01*
X123884609Y-75585511D01*
X123860825Y-75551053D01*
X123839013Y-75515327D01*
X123819462Y-75478290D01*
X123810623Y-75459265D01*
X123802458Y-75439896D01*
X123792775Y-75419275D01*
X123782360Y-75403738D01*
X123771253Y-75393012D01*
X123759496Y-75386824D01*
X123747131Y-75384899D01*
X123734200Y-75386966D01*
X123720745Y-75392749D01*
X123706807Y-75401977D01*
X123692428Y-75414375D01*
X123677650Y-75429671D01*
X123647064Y-75467861D01*
X123615383Y-75514360D01*
X123582941Y-75566981D01*
X123452252Y-75794947D01*
X123421020Y-75845374D01*
X123391033Y-75888802D01*
X123362625Y-75923044D01*
X123349117Y-75936036D01*
X123336130Y-75945912D01*
X123299158Y-75973125D01*
X123252433Y-76012924D01*
X123197366Y-76063943D01*
X123135367Y-76124816D01*
X122996209Y-76270660D01*
X122846237Y-76439526D01*
X122770721Y-76529176D01*
X122696731Y-76620484D01*
X122625677Y-76712082D01*
X122558968Y-76802604D01*
X122498015Y-76890685D01*
X122444227Y-76974958D01*
X122399014Y-77054057D01*
X122363786Y-77126615D01*
X122349473Y-77160197D01*
X122336251Y-77192142D01*
X122324051Y-77222499D01*
X122312801Y-77251317D01*
X122292867Y-77304533D01*
X122275884Y-77352183D01*
X122248502Y-77432353D01*
X122236970Y-77465657D01*
X122226120Y-77494965D01*
X122220774Y-77508243D01*
X122215387Y-77520668D01*
X122209886Y-77532291D01*
X122204203Y-77543160D01*
X122198265Y-77553323D01*
X122192001Y-77562831D01*
X122185342Y-77571733D01*
X122178216Y-77580076D01*
X122170552Y-77587911D01*
X122162279Y-77595286D01*
X122153327Y-77602250D01*
X122143625Y-77608853D01*
X122133101Y-77615144D01*
X122121686Y-77621171D01*
X122109307Y-77626983D01*
X122095895Y-77632631D01*
X122063206Y-77644076D01*
X122021811Y-77655827D01*
X121973003Y-77667490D01*
X121918077Y-77678674D01*
X121858325Y-77688986D01*
X121795042Y-77698034D01*
X121729520Y-77705424D01*
X121663054Y-77710765D01*
X121596936Y-77713665D01*
X121532461Y-77713730D01*
X121470921Y-77710569D01*
X121413612Y-77703789D01*
X121361824Y-77692998D01*
X121338406Y-77685975D01*
X121316854Y-77677802D01*
X121297329Y-77668431D01*
X121279993Y-77657811D01*
X121265008Y-77645894D01*
X121252536Y-77632631D01*
X121243876Y-77621013D01*
X121235764Y-77608524D01*
X121228213Y-77595220D01*
X121221236Y-77581161D01*
X121214846Y-77566404D01*
X121209056Y-77551008D01*
X121199330Y-77518529D01*
X121192162Y-77484190D01*
X121187656Y-77448456D01*
X121185918Y-77411792D01*
X121187052Y-77374662D01*
X121191162Y-77337533D01*
X121194366Y-77319113D01*
X121198353Y-77300868D01*
X121203137Y-77282856D01*
X121208731Y-77265134D01*
X121215147Y-77247761D01*
X121222398Y-77230795D01*
X121230499Y-77214294D01*
X121239461Y-77198316D01*
X121249299Y-77182920D01*
X121260024Y-77168163D01*
X121271650Y-77154104D01*
X121284191Y-77140800D01*
X121297659Y-77128311D01*
X121312067Y-77116693D01*
X121327004Y-77108652D01*
X121342036Y-77101241D01*
X121357141Y-77094419D01*
X121372296Y-77088141D01*
X121402672Y-77077046D01*
X121432990Y-77067611D01*
X121463075Y-77059490D01*
X121492754Y-77052337D01*
X121550192Y-77039551D01*
X121577603Y-77033226D01*
X121603910Y-77026485D01*
X121628937Y-77018983D01*
X121652512Y-77010374D01*
X121663699Y-77005546D01*
X121674458Y-77000311D01*
X121684766Y-76994627D01*
X121694602Y-76988449D01*
X121703944Y-76981735D01*
X121712769Y-76974442D01*
X121721058Y-76966525D01*
X121728786Y-76957943D01*
X121776477Y-76884494D01*
X121854826Y-76746142D01*
X122072333Y-76338074D01*
X122318985Y-75860429D01*
X122532458Y-75439896D01*
X122949176Y-74675912D01*
X123137692Y-73941693D01*
X123162584Y-73906164D01*
X123176653Y-73884430D01*
X123190705Y-73860363D01*
X123203918Y-73834200D01*
X123215468Y-73806175D01*
X123220361Y-73791538D01*
X123224530Y-73776524D01*
X123227872Y-73761163D01*
X123230283Y-73745483D01*
X123231661Y-73729515D01*
X123231902Y-73713288D01*
X123230904Y-73696830D01*
X123228564Y-73680173D01*
X123224778Y-73663344D01*
X123219445Y-73646374D01*
X123212460Y-73629292D01*
X123203721Y-73612127D01*
X123193126Y-73594909D01*
X123180571Y-73577667D01*
X123165952Y-73560431D01*
X123149169Y-73543230D01*
X123130116Y-73526093D01*
X123108692Y-73509051D01*
X123084793Y-73492132D01*
X123058317Y-73475365D01*
X123039584Y-73461976D01*
X123020655Y-73444294D01*
X122982585Y-73397017D01*
X122944865Y-73335468D01*
X122908249Y-73261580D01*
X122873493Y-73177285D01*
X122841354Y-73084517D01*
X122812586Y-72985209D01*
X122787946Y-72881293D01*
X122768190Y-72774703D01*
X122754072Y-72667372D01*
X122746350Y-72561233D01*
X122745778Y-72458218D01*
X122753113Y-72360262D01*
X122759981Y-72313784D01*
X122769110Y-72269296D01*
X122780593Y-72227038D01*
X122794525Y-72187254D01*
X122811000Y-72150183D01*
X122830114Y-72116069D01*
X122889645Y-71768803D01*
X122830114Y-70637709D01*
X122834503Y-70629968D01*
X122840206Y-70621912D01*
X122847189Y-70613972D01*
X122855415Y-70606579D01*
X122859984Y-70603222D01*
X122864850Y-70600163D01*
X122870011Y-70597456D01*
X122875460Y-70595154D01*
X122881194Y-70593311D01*
X122887209Y-70591981D01*
X122893500Y-70591219D01*
X122900063Y-70591077D01*
X122906893Y-70591609D01*
X122913987Y-70592869D01*
X122921339Y-70594911D01*
X122928945Y-70597789D01*
X122936801Y-70601557D01*
X122944903Y-70606267D01*
X122953247Y-70611975D01*
X122961827Y-70618734D01*
X122970640Y-70626597D01*
X122979680Y-70635618D01*
X122988945Y-70645852D01*
X122998429Y-70657352D01*
X123008129Y-70670171D01*
X123018039Y-70684363D01*
X123028155Y-70699983D01*
X123038474Y-70717084D01*
X123504801Y-71570365D01*
X123513094Y-71564084D01*
X123523008Y-71558251D01*
X123534418Y-71552851D01*
X123547202Y-71547867D01*
X123576396Y-71539081D01*
X123609601Y-71531763D01*
X123645830Y-71525783D01*
X123684093Y-71521008D01*
X123723403Y-71517309D01*
X123762770Y-71514555D01*
X123837727Y-71511358D01*
X123901056Y-71510369D01*
X123961208Y-71510834D01*
X124031901Y-71513160D01*
X124105618Y-71516590D01*
X124191891Y-71521996D01*
X124280956Y-71529729D01*
X124323482Y-71534576D01*
X124363044Y-71540135D01*
X124398419Y-71546450D01*
X124428388Y-71553564D01*
X124451730Y-71561522D01*
X124460534Y-71565830D01*
X124467223Y-71570365D01*
X124520304Y-71482769D01*
X124575143Y-71388632D01*
X124688760Y-71188063D01*
X124805400Y-70983308D01*
X124864018Y-70883939D01*
X124922389Y-70789018D01*
X124980179Y-70700375D01*
X125037053Y-70619842D01*
X125092677Y-70549251D01*
X125119916Y-70518255D01*
X125146717Y-70490431D01*
X125173038Y-70466009D01*
X125198838Y-70445216D01*
X125224075Y-70428282D01*
X125248707Y-70415436D01*
X125272692Y-70406906D01*
X125295988Y-70402922D01*
X125318554Y-70403713D01*
X125340348Y-70409506D01*
X125353411Y-70417515D01*
X125366127Y-70430998D01*
X125390547Y-70473295D01*
X125413678Y-70534213D01*
X125435587Y-70611567D01*
X125456342Y-70703174D01*
X125476013Y-70806849D01*
X125512374Y-71041664D01*
X125545215Y-71298538D01*
X125575082Y-71559998D01*
X125628083Y-72026772D01*
X125618411Y-72108627D01*
X125558629Y-72562553D01*
X125553101Y-72606124D01*
X125548400Y-72647572D01*
X125544493Y-72686944D01*
X125541348Y-72724287D01*
X125538930Y-72759649D01*
X125537208Y-72793076D01*
X125536147Y-72824617D01*
X125535716Y-72854317D01*
X125535881Y-72882225D01*
X125536608Y-72908388D01*
X125537865Y-72932853D01*
X125539619Y-72955667D01*
X125541836Y-72976877D01*
X125544485Y-72996531D01*
X125547530Y-73014676D01*
X125550940Y-73031359D01*
X125554681Y-73046628D01*
X125558721Y-73060529D01*
X125563026Y-73073109D01*
X125567563Y-73084417D01*
X125572299Y-73094500D01*
X125577202Y-73103404D01*
X125582237Y-73111176D01*
X125587372Y-73117865D01*
X125592574Y-73123517D01*
X125597810Y-73128180D01*
X125603046Y-73131900D01*
X125608251Y-73134725D01*
X125613389Y-73136703D01*
X125618430Y-73137880D01*
X125623339Y-73138304D01*
X125628083Y-73138022D01*
X125707458Y-72919740D01*
X125708799Y-72874373D01*
X125712705Y-72824316D01*
X125718995Y-72770277D01*
X125727487Y-72712962D01*
X125738003Y-72653078D01*
X125750362Y-72591330D01*
X125764383Y-72528426D01*
X125779887Y-72465071D01*
X125796693Y-72401971D01*
X125814622Y-72339834D01*
X125833492Y-72279365D01*
X125853123Y-72221271D01*
X125873336Y-72166259D01*
X125893950Y-72115034D01*
X125914785Y-72068303D01*
X125935661Y-72026772D01*
X125988243Y-71921844D01*
X126059281Y-71770260D01*
X126236541Y-71377633D01*
X126590505Y-70588100D01*
X126607246Y-70547909D01*
X126623162Y-70502276D01*
X126638374Y-70451992D01*
X126653009Y-70397848D01*
X126681038Y-70281142D01*
X126708241Y-70158483D01*
X126735610Y-70036196D01*
X126764136Y-69920606D01*
X126779143Y-69867299D01*
X126794812Y-69818038D01*
X126811266Y-69773615D01*
X126828629Y-69734819D01*
X126845903Y-69700933D01*
X126862081Y-69670571D01*
X126877276Y-69643521D01*
X126891602Y-69619570D01*
X126898475Y-69608691D01*
X126905173Y-69598507D01*
X126911710Y-69588992D01*
X126918101Y-69580119D01*
X126924359Y-69571862D01*
X126930500Y-69564194D01*
X126936536Y-69557089D01*
X126942483Y-69550520D01*
X126948354Y-69544461D01*
X126954164Y-69538884D01*
X126959926Y-69533765D01*
X126965656Y-69529075D01*
X126971367Y-69524790D01*
X126977072Y-69520881D01*
X126982788Y-69517322D01*
X126988527Y-69514088D01*
X126994303Y-69511151D01*
X127000132Y-69508485D01*
X127006027Y-69506064D01*
X127012002Y-69503860D01*
X127024250Y-69500000D01*
X127036989Y-69496694D01*
X127086598Y-69556225D01*
D11*
G36*
X124363739Y-72076789D02*
G01*
X124375446Y-72077791D01*
X124386959Y-72079545D01*
X124398265Y-72082033D01*
X124409350Y-72085235D01*
X124420202Y-72089132D01*
X124430806Y-72093704D01*
X124441150Y-72098933D01*
X124451220Y-72104797D01*
X124461003Y-72111279D01*
X124470485Y-72118358D01*
X124479653Y-72126016D01*
X124488494Y-72134232D01*
X124496994Y-72142988D01*
X124505141Y-72152263D01*
X124520319Y-72172296D01*
X124533921Y-72194176D01*
X124545841Y-72217747D01*
X124555971Y-72242853D01*
X124564206Y-72269340D01*
X124570438Y-72297051D01*
X124574561Y-72325832D01*
X124576467Y-72355527D01*
X124576051Y-72385981D01*
X124574953Y-72401262D01*
X124573282Y-72416311D01*
X124571053Y-72431111D01*
X124568282Y-72445644D01*
X124564983Y-72459892D01*
X124561173Y-72473836D01*
X124556867Y-72487460D01*
X124552079Y-72500745D01*
X124546825Y-72513672D01*
X124541121Y-72526225D01*
X124534981Y-72538386D01*
X124528421Y-72550135D01*
X124521457Y-72561456D01*
X124514103Y-72572331D01*
X124506375Y-72582741D01*
X124498288Y-72592669D01*
X124489858Y-72602096D01*
X124481099Y-72611006D01*
X124472028Y-72619379D01*
X124462659Y-72627198D01*
X124453008Y-72634445D01*
X124443089Y-72641102D01*
X124432919Y-72647152D01*
X124422512Y-72652575D01*
X124411884Y-72657355D01*
X124401051Y-72661474D01*
X124390027Y-72664912D01*
X124378827Y-72667654D01*
X124367468Y-72669680D01*
X124355964Y-72670972D01*
X124344330Y-72671514D01*
X124332583Y-72671286D01*
X124320876Y-72670284D01*
X124309363Y-72668530D01*
X124298057Y-72666042D01*
X124286971Y-72662840D01*
X124276120Y-72658943D01*
X124265516Y-72654370D01*
X124255172Y-72649142D01*
X124245102Y-72643278D01*
X124235319Y-72636796D01*
X124225837Y-72629717D01*
X124216669Y-72622059D01*
X124207828Y-72613843D01*
X124199327Y-72605087D01*
X124191181Y-72595812D01*
X124176003Y-72575779D01*
X124162400Y-72553899D01*
X124150481Y-72530328D01*
X124140350Y-72505222D01*
X124132116Y-72478735D01*
X124125884Y-72451024D01*
X124121761Y-72422243D01*
X124119854Y-72392548D01*
X124120270Y-72362094D01*
X124121369Y-72346814D01*
X124123040Y-72331764D01*
X124125269Y-72316964D01*
X124128040Y-72302431D01*
X124131338Y-72288183D01*
X124135148Y-72274239D01*
X124139455Y-72260615D01*
X124144243Y-72247330D01*
X124149497Y-72234402D01*
X124155201Y-72221849D01*
X124161341Y-72209689D01*
X124167900Y-72197940D01*
X124174865Y-72186618D01*
X124182219Y-72175744D01*
X124189947Y-72165334D01*
X124198033Y-72155406D01*
X124206464Y-72145978D01*
X124215222Y-72137069D01*
X124224294Y-72128696D01*
X124233663Y-72120877D01*
X124243314Y-72113630D01*
X124253233Y-72106973D01*
X124263403Y-72100923D01*
X124273809Y-72095500D01*
X124284437Y-72090720D01*
X124295271Y-72086601D01*
X124306295Y-72083162D01*
X124317495Y-72080421D01*
X124328854Y-72078395D01*
X124340358Y-72077103D01*
X124351991Y-72076561D01*
X124363739Y-72076789D01*
G37*
G36*
X123406489Y-72092075D02*
G01*
X123417605Y-72092868D01*
X123428734Y-72094437D01*
X123439729Y-72096769D01*
X123450446Y-72099826D01*
X123460876Y-72103587D01*
X123471007Y-72108031D01*
X123480830Y-72113138D01*
X123490335Y-72118887D01*
X123499510Y-72125257D01*
X123508347Y-72132227D01*
X123516834Y-72139776D01*
X123524961Y-72147884D01*
X123532719Y-72156530D01*
X123540096Y-72165692D01*
X123553669Y-72185485D01*
X123565599Y-72207096D01*
X123575803Y-72230359D01*
X123584199Y-72255108D01*
X123590704Y-72281175D01*
X123595238Y-72308395D01*
X123597718Y-72336602D01*
X123598062Y-72365628D01*
X123596187Y-72395308D01*
X123592013Y-72425475D01*
X123589073Y-72440510D01*
X123585618Y-72455250D01*
X123581664Y-72469680D01*
X123577228Y-72483782D01*
X123572327Y-72497540D01*
X123566978Y-72510940D01*
X123561197Y-72523964D01*
X123555000Y-72536597D01*
X123548406Y-72548823D01*
X123541430Y-72560625D01*
X123534089Y-72571988D01*
X123526401Y-72582896D01*
X123518381Y-72593332D01*
X123510047Y-72603280D01*
X123501415Y-72612725D01*
X123492502Y-72621650D01*
X123483325Y-72630040D01*
X123473901Y-72637878D01*
X123464245Y-72645148D01*
X123454376Y-72651835D01*
X123444310Y-72657922D01*
X123434063Y-72663393D01*
X123423653Y-72668232D01*
X123413096Y-72672423D01*
X123402408Y-72675951D01*
X123391608Y-72678798D01*
X123380710Y-72680949D01*
X123369733Y-72682389D01*
X123358692Y-72683100D01*
X123347606Y-72683067D01*
X123336489Y-72682274D01*
X123325360Y-72680705D01*
X123314365Y-72678373D01*
X123303648Y-72675316D01*
X123293218Y-72671555D01*
X123283087Y-72667111D01*
X123273264Y-72662004D01*
X123263760Y-72656255D01*
X123254584Y-72649885D01*
X123245748Y-72642915D01*
X123237261Y-72635366D01*
X123229133Y-72627258D01*
X123221376Y-72618613D01*
X123213998Y-72609450D01*
X123200425Y-72589657D01*
X123188496Y-72568046D01*
X123178292Y-72544783D01*
X123169896Y-72520035D01*
X123163390Y-72493967D01*
X123158856Y-72466747D01*
X123156377Y-72438540D01*
X123156033Y-72409514D01*
X123157908Y-72379834D01*
X123162082Y-72349667D01*
X123165022Y-72334632D01*
X123168477Y-72319891D01*
X123172431Y-72305462D01*
X123176866Y-72291360D01*
X123181767Y-72277602D01*
X123187117Y-72264202D01*
X123192898Y-72251178D01*
X123199094Y-72238545D01*
X123205689Y-72226319D01*
X123212665Y-72214517D01*
X123220005Y-72203154D01*
X123227694Y-72192246D01*
X123235714Y-72181810D01*
X123244048Y-72171862D01*
X123252680Y-72162417D01*
X123261593Y-72153492D01*
X123270770Y-72145102D01*
X123280194Y-72137264D01*
X123289849Y-72129994D01*
X123299718Y-72123307D01*
X123309784Y-72117220D01*
X123320031Y-72111749D01*
X123330441Y-72106910D01*
X123340999Y-72102719D01*
X123351686Y-72099191D01*
X123362487Y-72096344D01*
X123373384Y-72094193D01*
X123384361Y-72092753D01*
X123395402Y-72092042D01*
X123406489Y-72092075D01*
G37*
D12*
X131714285Y-79008557D02*
X131114285Y-79908557D01*
X131114285Y-79008557D02*
X131714285Y-79908557D01*
X130771428Y-79908557D02*
X130771428Y-79008557D01*
X130385714Y-79651414D02*
X129957143Y-79651414D01*
X130471428Y-79908557D02*
X130171428Y-79008557D01*
X130171428Y-79008557D02*
X129871428Y-79908557D01*
X129399999Y-79008557D02*
X129228571Y-79008557D01*
X129228571Y-79008557D02*
X129142856Y-79051414D01*
X129142856Y-79051414D02*
X129057142Y-79137128D01*
X129057142Y-79137128D02*
X129014285Y-79308557D01*
X129014285Y-79308557D02*
X129014285Y-79608557D01*
X129014285Y-79608557D02*
X129057142Y-79779985D01*
X129057142Y-79779985D02*
X129142856Y-79865700D01*
X129142856Y-79865700D02*
X129228571Y-79908557D01*
X129228571Y-79908557D02*
X129399999Y-79908557D01*
X129399999Y-79908557D02*
X129485714Y-79865700D01*
X129485714Y-79865700D02*
X129571428Y-79779985D01*
X129571428Y-79779985D02*
X129614285Y-79608557D01*
X129614285Y-79608557D02*
X129614285Y-79308557D01*
X129614285Y-79308557D02*
X129571428Y-79137128D01*
X129571428Y-79137128D02*
X129485714Y-79051414D01*
X129485714Y-79051414D02*
X129399999Y-79008557D01*
X128628571Y-79565700D02*
X127942857Y-79565700D01*
X126999999Y-79908557D02*
X127299999Y-79479985D01*
X127514285Y-79908557D02*
X127514285Y-79008557D01*
X127514285Y-79008557D02*
X127171428Y-79008557D01*
X127171428Y-79008557D02*
X127085713Y-79051414D01*
X127085713Y-79051414D02*
X127042856Y-79094271D01*
X127042856Y-79094271D02*
X126999999Y-79179985D01*
X126999999Y-79179985D02*
X126999999Y-79308557D01*
X126999999Y-79308557D02*
X127042856Y-79394271D01*
X127042856Y-79394271D02*
X127085713Y-79437128D01*
X127085713Y-79437128D02*
X127171428Y-79479985D01*
X127171428Y-79479985D02*
X127514285Y-79479985D01*
X126614285Y-79908557D02*
X126614285Y-79008557D01*
X126614285Y-79008557D02*
X126271428Y-79008557D01*
X126271428Y-79008557D02*
X126185713Y-79051414D01*
X126185713Y-79051414D02*
X126142856Y-79094271D01*
X126142856Y-79094271D02*
X126099999Y-79179985D01*
X126099999Y-79179985D02*
X126099999Y-79308557D01*
X126099999Y-79308557D02*
X126142856Y-79394271D01*
X126142856Y-79394271D02*
X126185713Y-79437128D01*
X126185713Y-79437128D02*
X126271428Y-79479985D01*
X126271428Y-79479985D02*
X126614285Y-79479985D01*
X125757142Y-79094271D02*
X125714285Y-79051414D01*
X125714285Y-79051414D02*
X125628571Y-79008557D01*
X125628571Y-79008557D02*
X125414285Y-79008557D01*
X125414285Y-79008557D02*
X125328571Y-79051414D01*
X125328571Y-79051414D02*
X125285713Y-79094271D01*
X125285713Y-79094271D02*
X125242856Y-79179985D01*
X125242856Y-79179985D02*
X125242856Y-79265700D01*
X125242856Y-79265700D02*
X125285713Y-79394271D01*
X125285713Y-79394271D02*
X125799999Y-79908557D01*
X125799999Y-79908557D02*
X125242856Y-79908557D01*
X124685713Y-79008557D02*
X124599999Y-79008557D01*
X124599999Y-79008557D02*
X124514285Y-79051414D01*
X124514285Y-79051414D02*
X124471428Y-79094271D01*
X124471428Y-79094271D02*
X124428570Y-79179985D01*
X124428570Y-79179985D02*
X124385713Y-79351414D01*
X124385713Y-79351414D02*
X124385713Y-79565700D01*
X124385713Y-79565700D02*
X124428570Y-79737128D01*
X124428570Y-79737128D02*
X124471428Y-79822842D01*
X124471428Y-79822842D02*
X124514285Y-79865700D01*
X124514285Y-79865700D02*
X124599999Y-79908557D01*
X124599999Y-79908557D02*
X124685713Y-79908557D01*
X124685713Y-79908557D02*
X124771428Y-79865700D01*
X124771428Y-79865700D02*
X124814285Y-79822842D01*
X124814285Y-79822842D02*
X124857142Y-79737128D01*
X124857142Y-79737128D02*
X124899999Y-79565700D01*
X124899999Y-79565700D02*
X124899999Y-79351414D01*
X124899999Y-79351414D02*
X124857142Y-79179985D01*
X124857142Y-79179985D02*
X124814285Y-79094271D01*
X124814285Y-79094271D02*
X124771428Y-79051414D01*
X124771428Y-79051414D02*
X124685713Y-79008557D01*
X123614285Y-79308557D02*
X123614285Y-79908557D01*
X123828570Y-78965700D02*
X124042856Y-79608557D01*
X124042856Y-79608557D02*
X123485713Y-79608557D01*
X122971427Y-79008557D02*
X122885713Y-79008557D01*
X122885713Y-79008557D02*
X122799999Y-79051414D01*
X122799999Y-79051414D02*
X122757142Y-79094271D01*
X122757142Y-79094271D02*
X122714284Y-79179985D01*
X122714284Y-79179985D02*
X122671427Y-79351414D01*
X122671427Y-79351414D02*
X122671427Y-79565700D01*
X122671427Y-79565700D02*
X122714284Y-79737128D01*
X122714284Y-79737128D02*
X122757142Y-79822842D01*
X122757142Y-79822842D02*
X122799999Y-79865700D01*
X122799999Y-79865700D02*
X122885713Y-79908557D01*
X122885713Y-79908557D02*
X122971427Y-79908557D01*
X122971427Y-79908557D02*
X123057142Y-79865700D01*
X123057142Y-79865700D02*
X123099999Y-79822842D01*
X123099999Y-79822842D02*
X123142856Y-79737128D01*
X123142856Y-79737128D02*
X123185713Y-79565700D01*
X123185713Y-79565700D02*
X123185713Y-79351414D01*
X123185713Y-79351414D02*
X123142856Y-79179985D01*
X123142856Y-79179985D02*
X123099999Y-79094271D01*
X123099999Y-79094271D02*
X123057142Y-79051414D01*
X123057142Y-79051414D02*
X122971427Y-79008557D01*
X122285713Y-79565700D02*
X121599999Y-79565700D01*
X121171427Y-79908557D02*
X121171427Y-79008557D01*
X121171427Y-79008557D02*
X120957141Y-79008557D01*
X120957141Y-79008557D02*
X120828570Y-79051414D01*
X120828570Y-79051414D02*
X120742855Y-79137128D01*
X120742855Y-79137128D02*
X120699998Y-79222842D01*
X120699998Y-79222842D02*
X120657141Y-79394271D01*
X120657141Y-79394271D02*
X120657141Y-79522842D01*
X120657141Y-79522842D02*
X120699998Y-79694271D01*
X120699998Y-79694271D02*
X120742855Y-79779985D01*
X120742855Y-79779985D02*
X120828570Y-79865700D01*
X120828570Y-79865700D02*
X120957141Y-79908557D01*
X120957141Y-79908557D02*
X121171427Y-79908557D01*
X120271427Y-79908557D02*
X120271427Y-79008557D01*
X119842856Y-79908557D02*
X119842856Y-79008557D01*
X119842856Y-79008557D02*
X119499999Y-79008557D01*
X119499999Y-79008557D02*
X119414284Y-79051414D01*
X119414284Y-79051414D02*
X119371427Y-79094271D01*
X119371427Y-79094271D02*
X119328570Y-79179985D01*
X119328570Y-79179985D02*
X119328570Y-79308557D01*
X119328570Y-79308557D02*
X119371427Y-79394271D01*
X119371427Y-79394271D02*
X119414284Y-79437128D01*
X119414284Y-79437128D02*
X119499999Y-79479985D01*
X119499999Y-79479985D02*
X119842856Y-79479985D01*
X93285714Y-86431009D02*
X93142857Y-86478628D01*
X93142857Y-86478628D02*
X93095238Y-86526247D01*
X93095238Y-86526247D02*
X93047619Y-86621485D01*
X93047619Y-86621485D02*
X93047619Y-86764342D01*
X93047619Y-86764342D02*
X93095238Y-86859580D01*
X93095238Y-86859580D02*
X93142857Y-86907200D01*
X93142857Y-86907200D02*
X93238095Y-86954819D01*
X93238095Y-86954819D02*
X93619047Y-86954819D01*
X93619047Y-86954819D02*
X93619047Y-85954819D01*
X93619047Y-85954819D02*
X93285714Y-85954819D01*
X93285714Y-85954819D02*
X93190476Y-86002438D01*
X93190476Y-86002438D02*
X93142857Y-86050057D01*
X93142857Y-86050057D02*
X93095238Y-86145295D01*
X93095238Y-86145295D02*
X93095238Y-86240533D01*
X93095238Y-86240533D02*
X93142857Y-86335771D01*
X93142857Y-86335771D02*
X93190476Y-86383390D01*
X93190476Y-86383390D02*
X93285714Y-86431009D01*
X93285714Y-86431009D02*
X93619047Y-86431009D01*
X92761904Y-85954819D02*
X92190476Y-85954819D01*
X92476190Y-86954819D02*
X92476190Y-85954819D01*
X91333333Y-86954819D02*
X91904761Y-86954819D01*
X91619047Y-86954819D02*
X91619047Y-85954819D01*
X91619047Y-85954819D02*
X91714285Y-86097676D01*
X91714285Y-86097676D02*
X91809523Y-86192914D01*
X91809523Y-86192914D02*
X91904761Y-86240533D01*
D13*
%TO.C,BT1*%
X79235000Y-69040000D02*
X79235000Y-71500000D01*
X79235000Y-77500000D02*
X79235000Y-78130000D01*
X79235000Y-78130000D02*
X80675000Y-82080000D01*
X81315000Y-66960000D02*
X79235000Y-69040000D01*
X81315000Y-66960000D02*
X84815000Y-66960000D01*
X95215000Y-66960000D02*
X98715000Y-66960000D01*
X98715000Y-66960000D02*
X100795000Y-69040000D01*
X100795000Y-69040000D02*
X100795000Y-71500000D01*
X100795000Y-77500000D02*
X100795000Y-78130000D01*
X100795000Y-78130000D02*
X99355000Y-82080000D01*
X84015000Y-83050000D02*
G75*
G02*
X80689757Y-82088169I-1310000J1700000D01*
G01*
X99355000Y-82080000D02*
G75*
G02*
X96018354Y-83066530I-2030000J730001D01*
G01*
D11*
%TO.C,G\u002A\u002A\u002A*%
G36*
X126674957Y-60986912D02*
G01*
X126692150Y-60992925D01*
X126702293Y-61000368D01*
X126702222Y-61013205D01*
X126694127Y-61037181D01*
X126688460Y-61050777D01*
X126676833Y-61064360D01*
X126661446Y-61062267D01*
X126639174Y-61044940D01*
X126622952Y-61026039D01*
X126615465Y-61003970D01*
X126622783Y-60988235D01*
X126643186Y-60981621D01*
X126674957Y-60986912D01*
G37*
G36*
X126637025Y-61115034D02*
G01*
X126649119Y-61120577D01*
X126664203Y-61132019D01*
X126665746Y-61144808D01*
X126661317Y-61160861D01*
X126655188Y-61185178D01*
X126654468Y-61188173D01*
X126649705Y-61202986D01*
X126642233Y-61207889D01*
X126627798Y-61203208D01*
X126602145Y-61189273D01*
X126574906Y-61167808D01*
X126562768Y-61145284D01*
X126564515Y-61125330D01*
X126578542Y-61111362D01*
X126603246Y-61106792D01*
X126637025Y-61115034D01*
G37*
G36*
X128503966Y-60939348D02*
G01*
X128524944Y-60966994D01*
X128536067Y-60982932D01*
X128555900Y-61012675D01*
X128565955Y-61031759D01*
X128566800Y-61042825D01*
X128559006Y-61048518D01*
X128543141Y-61051481D01*
X128530923Y-61052961D01*
X128505864Y-61054115D01*
X128492055Y-61047972D01*
X128485314Y-61031025D01*
X128481460Y-60999770D01*
X128480204Y-60985777D01*
X128478559Y-60949535D01*
X128481492Y-60930076D01*
X128489722Y-60926861D01*
X128503966Y-60939348D01*
G37*
G36*
X129537967Y-61150083D02*
G01*
X129562684Y-61211009D01*
X129583623Y-61262517D01*
X129600058Y-61302820D01*
X129611264Y-61330132D01*
X129616515Y-61342666D01*
X129622048Y-61353700D01*
X129627735Y-61356243D01*
X129636265Y-61347132D01*
X129650961Y-61324628D01*
X129680280Y-61285667D01*
X129732066Y-61240727D01*
X129795130Y-61209392D01*
X129869937Y-61191379D01*
X129912264Y-61183782D01*
X129979997Y-61167466D01*
X130058513Y-61144919D01*
X130144860Y-61117145D01*
X130236083Y-61085148D01*
X130329232Y-61049932D01*
X130421353Y-61012502D01*
X130509494Y-60973862D01*
X130627062Y-60917219D01*
X130766870Y-60840717D01*
X130902462Y-60755474D01*
X130996238Y-60692721D01*
X130999101Y-60725012D01*
X130998093Y-60750186D01*
X130990170Y-60764739D01*
X130989341Y-60765263D01*
X130975773Y-60773914D01*
X130950885Y-60789830D01*
X130917922Y-60810934D01*
X130880134Y-60835148D01*
X130825344Y-60869008D01*
X130705667Y-60936079D01*
X130574395Y-61001708D01*
X130435652Y-61063991D01*
X130293562Y-61121026D01*
X130152251Y-61170910D01*
X130136992Y-61175905D01*
X130094375Y-61189874D01*
X130058600Y-61201623D01*
X130033043Y-61210043D01*
X130021086Y-61214023D01*
X130020128Y-61216322D01*
X130026711Y-61228783D01*
X130042898Y-61249251D01*
X130066499Y-61274796D01*
X130084781Y-61294747D01*
X130131752Y-61359060D01*
X130176010Y-61439573D01*
X130217730Y-61536675D01*
X130257083Y-61650750D01*
X130294245Y-61782187D01*
X130300161Y-61805730D01*
X130324835Y-61922117D01*
X130340338Y-62031310D01*
X130346697Y-62131938D01*
X130346036Y-62153676D01*
X130343940Y-62222628D01*
X130332095Y-62302008D01*
X130311189Y-62368706D01*
X130281251Y-62421350D01*
X130256721Y-62453511D01*
X130327288Y-62447122D01*
X130381298Y-62441208D01*
X130488701Y-62423822D01*
X130595349Y-62399641D01*
X130697834Y-62369715D01*
X130792747Y-62335098D01*
X130876680Y-62296842D01*
X130946225Y-62256000D01*
X131000703Y-62218813D01*
X131000703Y-62254179D01*
X131000597Y-62263143D01*
X130998371Y-62279247D01*
X130990647Y-62291686D01*
X130974058Y-62304580D01*
X130945236Y-62322053D01*
X130883132Y-62354995D01*
X130784228Y-62397195D01*
X130674093Y-62434223D01*
X130556397Y-62465024D01*
X130434812Y-62488543D01*
X130313010Y-62503725D01*
X130295200Y-62505290D01*
X130239651Y-62509834D01*
X130197617Y-62512176D01*
X130165747Y-62511964D01*
X130140690Y-62508845D01*
X130119093Y-62502469D01*
X130097605Y-62492484D01*
X130072874Y-62478538D01*
X130062428Y-62472267D01*
X130009165Y-62433707D01*
X129960264Y-62385558D01*
X129911628Y-62323891D01*
X129898173Y-62305209D01*
X129885587Y-62288077D01*
X129880368Y-62281469D01*
X129880171Y-62282283D01*
X129879654Y-62294491D01*
X129879447Y-62316690D01*
X129879229Y-62323184D01*
X129868435Y-62359826D01*
X129842511Y-62388667D01*
X129803028Y-62407832D01*
X129769034Y-62411534D01*
X129730329Y-62400476D01*
X129695071Y-62374203D01*
X129665855Y-62334112D01*
X129657973Y-62319028D01*
X129647681Y-62293110D01*
X129643895Y-62266904D01*
X129644404Y-62247844D01*
X129698797Y-62247844D01*
X129704948Y-62290182D01*
X129721231Y-62324912D01*
X129737414Y-62340562D01*
X129769101Y-62351062D01*
X129781693Y-62351396D01*
X129808653Y-62343687D01*
X129822939Y-62323427D01*
X129824305Y-62290885D01*
X129822885Y-62273282D01*
X129827422Y-62255060D01*
X129842779Y-62239470D01*
X129857471Y-62230901D01*
X129886894Y-62219447D01*
X129920298Y-62210682D01*
X129946233Y-62205191D01*
X129963013Y-62199772D01*
X129967637Y-62193857D01*
X129963085Y-62185707D01*
X129960521Y-62182945D01*
X129939127Y-62167496D01*
X129907635Y-62150944D01*
X129872074Y-62135897D01*
X129838475Y-62124963D01*
X129812869Y-62120750D01*
X129806362Y-62120975D01*
X129766276Y-62131724D01*
X129731861Y-62155913D01*
X129708684Y-62189851D01*
X129703480Y-62205460D01*
X129698797Y-62247844D01*
X129644404Y-62247844D01*
X129644833Y-62231746D01*
X129646478Y-62212806D01*
X129654192Y-62175274D01*
X129668150Y-62148057D01*
X129670991Y-62144138D01*
X129682894Y-62125580D01*
X129687604Y-62114373D01*
X129686513Y-62112173D01*
X129674404Y-62102841D01*
X129653257Y-62091606D01*
X129629405Y-62076267D01*
X129600986Y-62042742D01*
X129581505Y-61999972D01*
X129572156Y-61952251D01*
X129572486Y-61944187D01*
X129627348Y-61944187D01*
X129633499Y-61986525D01*
X129649782Y-62021255D01*
X129665966Y-62036905D01*
X129697653Y-62047405D01*
X129710245Y-62047740D01*
X129737204Y-62040030D01*
X129751490Y-62019770D01*
X129751501Y-62019504D01*
X129813141Y-62019504D01*
X129813866Y-62032281D01*
X129818291Y-62052996D01*
X129822093Y-62059971D01*
X129832289Y-62067123D01*
X129834351Y-62066386D01*
X129836098Y-62055553D01*
X129831255Y-62036086D01*
X129820992Y-62013536D01*
X129819664Y-62011271D01*
X129814644Y-62007134D01*
X129813141Y-62019504D01*
X129751501Y-62019504D01*
X129752857Y-61987228D01*
X129752443Y-61982098D01*
X129805847Y-61982098D01*
X129806915Y-61992697D01*
X129809602Y-61994094D01*
X129812869Y-61986743D01*
X129812225Y-61982015D01*
X129806915Y-61980789D01*
X129805847Y-61982098D01*
X129752443Y-61982098D01*
X129751437Y-61969626D01*
X129755974Y-61951403D01*
X129771331Y-61935813D01*
X129786022Y-61927244D01*
X129815446Y-61915790D01*
X129848849Y-61907026D01*
X129874785Y-61901534D01*
X129891564Y-61896116D01*
X129896188Y-61890200D01*
X129891636Y-61882050D01*
X129889072Y-61879288D01*
X129867679Y-61863839D01*
X129836186Y-61847287D01*
X129800625Y-61832240D01*
X129767026Y-61821306D01*
X129741421Y-61817093D01*
X129734913Y-61817319D01*
X129694827Y-61828067D01*
X129660413Y-61852256D01*
X129637236Y-61886195D01*
X129632032Y-61901803D01*
X129627348Y-61944187D01*
X129572486Y-61944187D01*
X129574133Y-61903873D01*
X129588630Y-61859131D01*
X129592541Y-61850947D01*
X129598469Y-61832905D01*
X129595915Y-61825984D01*
X129591599Y-61825227D01*
X129573421Y-61818806D01*
X129549095Y-61807973D01*
X129536102Y-61800565D01*
X129503200Y-61769420D01*
X129479430Y-61727724D01*
X129466171Y-61679777D01*
X129465584Y-61658392D01*
X129520175Y-61658392D01*
X129526326Y-61700730D01*
X129542609Y-61735460D01*
X129558793Y-61751111D01*
X129590480Y-61761610D01*
X129603072Y-61761945D01*
X129627142Y-61755062D01*
X129696765Y-61755062D01*
X129698173Y-61758839D01*
X129709882Y-61763466D01*
X129716459Y-61761606D01*
X129717877Y-61750121D01*
X129712728Y-61743229D01*
X129702229Y-61743179D01*
X129696765Y-61755062D01*
X129627142Y-61755062D01*
X129630031Y-61754236D01*
X129644317Y-61733975D01*
X129645684Y-61701433D01*
X129644264Y-61683831D01*
X129648801Y-61665608D01*
X129664158Y-61650019D01*
X129678849Y-61641449D01*
X129708273Y-61629996D01*
X129741676Y-61621231D01*
X129767612Y-61615739D01*
X129784391Y-61610321D01*
X129789015Y-61604406D01*
X129784463Y-61596255D01*
X129781899Y-61593494D01*
X129760506Y-61578044D01*
X129729013Y-61561493D01*
X129693452Y-61546446D01*
X129659853Y-61535511D01*
X129634248Y-61531298D01*
X129627740Y-61531524D01*
X129587654Y-61542272D01*
X129553240Y-61566461D01*
X129530063Y-61600400D01*
X129524859Y-61616008D01*
X129520175Y-61658392D01*
X129465584Y-61658392D01*
X129464802Y-61629877D01*
X129476703Y-61582325D01*
X129497278Y-61548170D01*
X129531076Y-61513587D01*
X129569497Y-61489698D01*
X129572828Y-61488218D01*
X129591096Y-61476899D01*
X129598571Y-61466388D01*
X129598322Y-61464242D01*
X129596153Y-61456611D01*
X129662191Y-61456611D01*
X129672205Y-61475040D01*
X129678923Y-61479052D01*
X129700042Y-61488897D01*
X129727364Y-61499800D01*
X129750895Y-61511076D01*
X129782629Y-61532035D01*
X129813753Y-61557549D01*
X129840566Y-61584221D01*
X129856096Y-61604406D01*
X129859367Y-61608657D01*
X129866456Y-61627458D01*
X129860152Y-61645693D01*
X129839350Y-61660040D01*
X129806758Y-61665852D01*
X129803646Y-61665937D01*
X129774990Y-61668662D01*
X129761263Y-61676890D01*
X129760270Y-61694052D01*
X129769817Y-61723577D01*
X129776476Y-61740112D01*
X129782231Y-61750121D01*
X129788260Y-61760608D01*
X129804717Y-61773382D01*
X129832092Y-61784548D01*
X129856890Y-61796167D01*
X129889057Y-61817164D01*
X129920511Y-61842732D01*
X129947556Y-61869511D01*
X129963466Y-61890200D01*
X129966495Y-61894139D01*
X129973629Y-61913253D01*
X129967034Y-61931875D01*
X129946150Y-61945914D01*
X129913931Y-61951156D01*
X129896854Y-61951882D01*
X129880115Y-61956752D01*
X129874120Y-61968767D01*
X129877240Y-61986743D01*
X129877956Y-61990870D01*
X129890711Y-62025998D01*
X129895018Y-62036597D01*
X129904200Y-62055553D01*
X129911181Y-62069966D01*
X129928710Y-62093182D01*
X129951747Y-62112085D01*
X129961088Y-62118772D01*
X129992899Y-62145441D01*
X130019694Y-62173538D01*
X130034279Y-62193857D01*
X130038183Y-62199296D01*
X130045078Y-62218948D01*
X130038244Y-62236188D01*
X130017890Y-62249593D01*
X129988343Y-62254676D01*
X129986443Y-62254680D01*
X129959168Y-62256730D01*
X129947491Y-62264212D01*
X129950365Y-62279584D01*
X129966739Y-62305304D01*
X129987019Y-62331127D01*
X130017762Y-62364784D01*
X130050109Y-62395595D01*
X130079976Y-62419729D01*
X130103277Y-62433353D01*
X130112079Y-62436520D01*
X130153238Y-62444826D01*
X130187511Y-62438319D01*
X130217442Y-62415987D01*
X130245577Y-62376819D01*
X130271561Y-62317359D01*
X130287949Y-62242206D01*
X130293650Y-62153676D01*
X130288664Y-62052245D01*
X130272990Y-61938390D01*
X130246628Y-61812587D01*
X130237894Y-61777503D01*
X130205683Y-61664910D01*
X130170013Y-61563438D01*
X130131468Y-61474210D01*
X130090633Y-61398350D01*
X130048092Y-61336981D01*
X130004431Y-61291228D01*
X129960232Y-61262213D01*
X129917604Y-61248994D01*
X129863844Y-61247678D01*
X129810663Y-61261458D01*
X129760859Y-61289133D01*
X129717229Y-61329502D01*
X129682571Y-61381365D01*
X129679055Y-61388458D01*
X129664538Y-61427180D01*
X129662191Y-61456611D01*
X129596153Y-61456611D01*
X129593565Y-61447506D01*
X129584006Y-61420310D01*
X129571276Y-61387372D01*
X129543933Y-61319401D01*
X129486438Y-61314032D01*
X129462585Y-61312351D01*
X129380052Y-61312933D01*
X129281958Y-61322015D01*
X129168404Y-61339578D01*
X129039492Y-61365601D01*
X128895322Y-61400065D01*
X128861094Y-61409278D01*
X128735996Y-61442950D01*
X128561616Y-61494236D01*
X128496913Y-61513823D01*
X128366277Y-61552185D01*
X128248763Y-61584705D01*
X128141954Y-61611818D01*
X128043429Y-61633959D01*
X127950770Y-61651562D01*
X127861557Y-61665062D01*
X127773371Y-61674895D01*
X127683794Y-61681495D01*
X127590406Y-61685297D01*
X127490788Y-61686736D01*
X127461749Y-61686832D01*
X127395487Y-61686738D01*
X127342224Y-61685780D01*
X127298427Y-61683507D01*
X127260565Y-61679469D01*
X127225105Y-61673217D01*
X127188516Y-61664301D01*
X127147265Y-61652270D01*
X127097820Y-61636676D01*
X127005189Y-61603374D01*
X126877100Y-61546840D01*
X126742405Y-61476360D01*
X126611786Y-61398327D01*
X127013869Y-61398327D01*
X127025620Y-61413193D01*
X127054743Y-61427636D01*
X127101482Y-61441841D01*
X127110126Y-61443993D01*
X127160998Y-61454498D01*
X127202063Y-61459140D01*
X127231014Y-61457783D01*
X127245544Y-61450293D01*
X127246634Y-61447550D01*
X127247091Y-61445449D01*
X127325563Y-61445449D01*
X127329051Y-61464374D01*
X127348100Y-61488105D01*
X127381959Y-61504543D01*
X127422169Y-61509559D01*
X127459529Y-61501214D01*
X127477332Y-61491435D01*
X127512908Y-61457812D01*
X127537129Y-61410427D01*
X127549999Y-61349266D01*
X127551524Y-61274317D01*
X127545274Y-61218138D01*
X127529782Y-61164396D01*
X127505839Y-61125408D01*
X127473761Y-61101659D01*
X127433865Y-61093635D01*
X127410313Y-61099301D01*
X127384302Y-61116639D01*
X127371023Y-61132782D01*
X127364618Y-61140569D01*
X127356822Y-61165877D01*
X127356847Y-61167905D01*
X127362200Y-61187055D01*
X127377331Y-61191738D01*
X127402896Y-61182186D01*
X127426805Y-61175230D01*
X127450523Y-61182247D01*
X127468867Y-61203669D01*
X127480440Y-61237765D01*
X127483850Y-61282801D01*
X127480786Y-61320883D01*
X127467105Y-61370162D01*
X127442652Y-61405297D01*
X127441952Y-61405950D01*
X127425474Y-61417520D01*
X127404975Y-61422396D01*
X127373695Y-61422240D01*
X127346179Y-61421167D01*
X127331772Y-61423244D01*
X127326377Y-61430626D01*
X127325563Y-61445449D01*
X127247091Y-61445449D01*
X127250612Y-61429260D01*
X127255704Y-61397883D01*
X127261466Y-61356851D01*
X127267455Y-61309601D01*
X127273229Y-61259568D01*
X127278344Y-61210185D01*
X127282358Y-61164888D01*
X127284398Y-61132782D01*
X127284007Y-61108852D01*
X127280179Y-61094397D01*
X127274513Y-61087603D01*
X127751146Y-61087603D01*
X127756378Y-61111677D01*
X127775461Y-61144658D01*
X127808731Y-61187293D01*
X127815021Y-61194780D01*
X127838759Y-61225443D01*
X127850175Y-61245725D01*
X127850049Y-61256945D01*
X127843747Y-61267930D01*
X127841161Y-61274317D01*
X127832921Y-61294666D01*
X127821463Y-61329317D01*
X127811059Y-61366236D01*
X127803391Y-61399776D01*
X127800144Y-61424290D01*
X127800119Y-61427817D01*
X127803475Y-61453659D01*
X127811349Y-61472052D01*
X127817491Y-61477530D01*
X127839676Y-61485468D01*
X127864308Y-61484604D01*
X127882581Y-61474622D01*
X127884356Y-61471728D01*
X127891126Y-61453063D01*
X127898942Y-61423352D01*
X127906449Y-61387544D01*
X127908656Y-61375752D01*
X127915489Y-61340564D01*
X127921291Y-61312512D01*
X127924995Y-61296817D01*
X127931859Y-61284145D01*
X127943953Y-61282904D01*
X127958480Y-61297085D01*
X127973886Y-61325768D01*
X127988004Y-61352939D01*
X128010246Y-61383373D01*
X128034850Y-61407574D01*
X128059238Y-61423904D01*
X128080831Y-61430724D01*
X128097049Y-61426395D01*
X128105313Y-61409278D01*
X128105138Y-61404043D01*
X128099434Y-61382536D01*
X128087705Y-61352160D01*
X128071715Y-61317720D01*
X128044197Y-61255908D01*
X128017945Y-61168292D01*
X128008419Y-61084704D01*
X128007550Y-61062969D01*
X128000971Y-61018952D01*
X127988800Y-60988222D01*
X127979610Y-60979315D01*
X128066678Y-60979315D01*
X128071074Y-61003887D01*
X128071560Y-61004777D01*
X128086041Y-61019562D01*
X128105909Y-61019120D01*
X128133116Y-61003436D01*
X128141814Y-60997394D01*
X128159936Y-60989996D01*
X128176145Y-60994143D01*
X128196080Y-61010874D01*
X128217303Y-61042433D01*
X128235505Y-61083125D01*
X128249687Y-61128859D01*
X128258846Y-61175545D01*
X128261982Y-61219091D01*
X128258094Y-61255405D01*
X128246180Y-61280397D01*
X128245715Y-61280899D01*
X128224946Y-61293937D01*
X128197629Y-61300800D01*
X128176600Y-61304057D01*
X128166198Y-61312701D01*
X128162350Y-61331683D01*
X128162253Y-61332727D01*
X128164809Y-61357134D01*
X128179967Y-61374106D01*
X128197171Y-61382959D01*
X128232694Y-61387697D01*
X128270043Y-61379131D01*
X128304647Y-61358659D01*
X128331936Y-61327677D01*
X128344534Y-61298946D01*
X128354149Y-61252051D01*
X128356785Y-61197659D01*
X128352267Y-61140811D01*
X128340415Y-61086551D01*
X128327177Y-61049353D01*
X128299970Y-60994533D01*
X128267682Y-60949177D01*
X128264035Y-60945846D01*
X128407592Y-60945846D01*
X128407677Y-60953168D01*
X128410762Y-61016257D01*
X128417608Y-61079609D01*
X128427546Y-61140201D01*
X128439908Y-61195015D01*
X128440719Y-61197659D01*
X128454024Y-61241030D01*
X128469225Y-61275225D01*
X128484841Y-61294579D01*
X128507289Y-61304890D01*
X128531017Y-61307791D01*
X128547633Y-61302027D01*
X128550779Y-61296812D01*
X128553386Y-61275132D01*
X128549685Y-61244307D01*
X128540095Y-61209469D01*
X128536294Y-61197989D01*
X128530954Y-61177208D01*
X128530723Y-61167109D01*
X128533202Y-61165862D01*
X128549118Y-61162144D01*
X128573681Y-61158611D01*
X128584943Y-61157474D01*
X128605613Y-61158115D01*
X128620416Y-61166677D01*
X128637235Y-61186635D01*
X128649367Y-61201699D01*
X128677256Y-61228970D01*
X128700750Y-61240771D01*
X128718857Y-61236495D01*
X128725725Y-61228402D01*
X128732208Y-61208730D01*
X128731859Y-61206303D01*
X128725275Y-61188689D01*
X128711499Y-61159203D01*
X128692034Y-61120572D01*
X128668385Y-61075524D01*
X128642056Y-61026785D01*
X128614552Y-60977083D01*
X128587376Y-60929146D01*
X128562033Y-60885700D01*
X128540027Y-60849472D01*
X128522863Y-60823191D01*
X128512045Y-60809583D01*
X128500283Y-60800603D01*
X128472553Y-60791404D01*
X128446954Y-60799712D01*
X128424878Y-60825277D01*
X128422264Y-60829955D01*
X128414573Y-60848206D01*
X128410001Y-60870555D01*
X128407893Y-60901576D01*
X128407592Y-60945846D01*
X128264035Y-60945846D01*
X128232980Y-60917484D01*
X128204849Y-60904432D01*
X128166962Y-60897446D01*
X128129903Y-60899370D01*
X128100772Y-60910575D01*
X128087825Y-60923118D01*
X128073041Y-60949944D01*
X128066678Y-60979315D01*
X127979610Y-60979315D01*
X127971957Y-60971897D01*
X127951364Y-60971094D01*
X127927939Y-60986933D01*
X127923686Y-60991666D01*
X127920642Y-60995053D01*
X127914367Y-61006776D01*
X127911295Y-61023566D01*
X127910770Y-61049673D01*
X127911276Y-61064369D01*
X127912137Y-61089348D01*
X127915766Y-61172331D01*
X127870735Y-61131802D01*
X127832481Y-61100249D01*
X127799041Y-61078786D01*
X127773500Y-61069561D01*
X127757499Y-61073422D01*
X127751146Y-61087603D01*
X127274513Y-61087603D01*
X127272364Y-61085026D01*
X127256306Y-61076906D01*
X127239660Y-61082706D01*
X127225331Y-61105315D01*
X127213225Y-61144969D01*
X127203245Y-61201905D01*
X127195296Y-61276361D01*
X127195273Y-61276638D01*
X127191480Y-61318348D01*
X127187747Y-61353122D01*
X127184504Y-61377334D01*
X127182178Y-61387359D01*
X127180744Y-61387853D01*
X127166120Y-61387589D01*
X127139698Y-61384772D01*
X127105915Y-61379840D01*
X127101016Y-61379049D01*
X127065813Y-61373965D01*
X127043512Y-61372542D01*
X127029981Y-61374833D01*
X127021087Y-61380887D01*
X127019244Y-61382852D01*
X127013869Y-61398327D01*
X126611786Y-61398327D01*
X126602476Y-61392765D01*
X126458686Y-61296887D01*
X126312407Y-61189556D01*
X126263870Y-61150715D01*
X126508369Y-61150715D01*
X126511562Y-61167151D01*
X126528258Y-61195295D01*
X126556018Y-61222219D01*
X126591190Y-61243815D01*
X126631002Y-61260187D01*
X126663680Y-61268108D01*
X126683555Y-61265187D01*
X126685204Y-61263580D01*
X126693298Y-61247872D01*
X126703839Y-61219547D01*
X126705377Y-61214766D01*
X126788146Y-61214766D01*
X126789326Y-61264627D01*
X126799137Y-61303814D01*
X126817826Y-61334732D01*
X126834803Y-61351588D01*
X126853681Y-61359560D01*
X126882035Y-61361330D01*
X126917515Y-61357811D01*
X126946908Y-61346244D01*
X126971310Y-61324679D01*
X126992326Y-61291165D01*
X127011559Y-61243749D01*
X127030612Y-61180479D01*
X127042785Y-61131907D01*
X127049907Y-61091605D01*
X127050164Y-61064369D01*
X127043549Y-61048388D01*
X127030056Y-61041850D01*
X127019537Y-61041569D01*
X127008310Y-61046401D01*
X126998356Y-61059247D01*
X126988447Y-61082475D01*
X126977356Y-61118452D01*
X126963854Y-61169549D01*
X126952700Y-61211199D01*
X126941921Y-61247495D01*
X126932834Y-61274198D01*
X126926665Y-61287418D01*
X126914500Y-61294857D01*
X126893170Y-61297268D01*
X126890662Y-61296971D01*
X126880659Y-61294783D01*
X126874611Y-61288881D01*
X126871570Y-61275728D01*
X126870588Y-61251787D01*
X126870716Y-61213522D01*
X126870932Y-61201266D01*
X126873259Y-61158645D01*
X126877500Y-61119524D01*
X126882939Y-61091082D01*
X126889428Y-61059406D01*
X126889195Y-61029287D01*
X126880530Y-61010685D01*
X126863960Y-61005977D01*
X126860649Y-61006606D01*
X126840449Y-61017991D01*
X126823686Y-61042827D01*
X126809632Y-61082570D01*
X126797556Y-61138676D01*
X126795346Y-61151825D01*
X126788146Y-61214766D01*
X126705377Y-61214766D01*
X126715819Y-61182301D01*
X126728233Y-61139832D01*
X126740074Y-61095837D01*
X126750336Y-61054013D01*
X126758012Y-61018057D01*
X126762096Y-60991666D01*
X126761582Y-60978539D01*
X126761277Y-60978044D01*
X126744731Y-60962514D01*
X126716826Y-60945760D01*
X126683405Y-60930469D01*
X126650308Y-60919325D01*
X126623378Y-60915013D01*
X126620216Y-60915044D01*
X126593227Y-60919911D01*
X126575858Y-60934863D01*
X126573611Y-60938405D01*
X126564031Y-60967617D01*
X126562819Y-61001565D01*
X126570522Y-61030437D01*
X126572569Y-61034756D01*
X126571987Y-61046686D01*
X126556661Y-61056663D01*
X126546549Y-61063329D01*
X126527639Y-61086871D01*
X126513761Y-61118240D01*
X126508369Y-61150715D01*
X126263870Y-61150715D01*
X126165011Y-61071604D01*
X126130707Y-61042604D01*
X126092883Y-61009723D01*
X126059373Y-60979675D01*
X126032526Y-60954613D01*
X126014694Y-60936687D01*
X126008228Y-60928052D01*
X126008265Y-60927966D01*
X126017799Y-60926695D01*
X126042274Y-60925591D01*
X126078948Y-60924720D01*
X126125077Y-60924149D01*
X126177919Y-60923944D01*
X126180410Y-60923944D01*
X126244144Y-60923566D01*
X126291403Y-60922424D01*
X126323514Y-60920438D01*
X126341807Y-60917527D01*
X126347609Y-60913609D01*
X126344109Y-60903807D01*
X126333487Y-60880579D01*
X126317047Y-60846818D01*
X126296107Y-60805227D01*
X126271987Y-60758512D01*
X126249077Y-60713978D01*
X126228749Y-60673077D01*
X126213182Y-60640219D01*
X126203591Y-60617976D01*
X126201195Y-60608919D01*
X126202384Y-60608591D01*
X126215218Y-60612627D01*
X126238274Y-60623566D01*
X126267559Y-60639564D01*
X126283928Y-60648845D01*
X126394546Y-60704897D01*
X126517919Y-60757423D01*
X126649730Y-60804974D01*
X126785665Y-60846099D01*
X126921408Y-60879349D01*
X127052643Y-60903274D01*
X127066391Y-60905193D01*
X127148296Y-60913273D01*
X127239615Y-60917592D01*
X127334964Y-60918202D01*
X127428955Y-60915153D01*
X127516203Y-60908494D01*
X127591324Y-60898276D01*
X127620515Y-60892941D01*
X127697036Y-60877249D01*
X127766851Y-60859751D01*
X127834385Y-60839003D01*
X127904060Y-60813562D01*
X127970517Y-60786036D01*
X128714152Y-60786036D01*
X128715085Y-60814276D01*
X128721851Y-60852946D01*
X128734581Y-60903610D01*
X128753405Y-60967835D01*
X128778455Y-61047186D01*
X128781534Y-61056718D01*
X128797819Y-61106134D01*
X128810470Y-61141696D01*
X128820803Y-61166193D01*
X128830134Y-61182418D01*
X128839779Y-61193161D01*
X128851052Y-61201214D01*
X128856202Y-61204308D01*
X128865119Y-61208730D01*
X128879767Y-61215994D01*
X128895647Y-61217007D01*
X128909044Y-61207953D01*
X128913694Y-61201340D01*
X128918762Y-61177518D01*
X128916622Y-61139973D01*
X128907255Y-61087404D01*
X128895377Y-61032052D01*
X128954206Y-61008502D01*
X128957244Y-61007296D01*
X128985865Y-60997134D01*
X129006775Y-60991791D01*
X129015631Y-60992405D01*
X129020889Y-61003246D01*
X129032434Y-61025012D01*
X129047713Y-61052866D01*
X129054600Y-61064750D01*
X129081348Y-61100921D01*
X129109585Y-61122681D01*
X129130260Y-61131225D01*
X129155693Y-61132554D01*
X129171844Y-61119779D01*
X129178297Y-61093852D01*
X129174638Y-61055720D01*
X129160450Y-61006334D01*
X129159189Y-61002729D01*
X129149613Y-60972221D01*
X129137633Y-60930220D01*
X129124653Y-60881787D01*
X129112078Y-60831985D01*
X129108378Y-60817044D01*
X129096813Y-60773033D01*
X129086061Y-60735788D01*
X129077183Y-60708857D01*
X129071245Y-60695786D01*
X129069680Y-60694036D01*
X129049040Y-60683830D01*
X129023973Y-60686612D01*
X129000981Y-60701823D01*
X129000119Y-60702776D01*
X128985139Y-60729026D01*
X128974113Y-60765791D01*
X128968539Y-60806239D01*
X128969914Y-60843539D01*
X128971005Y-60850612D01*
X128971895Y-60870281D01*
X128964360Y-60881385D01*
X128944596Y-60891062D01*
X128927353Y-60898287D01*
X128902918Y-60907243D01*
X128886402Y-60908141D01*
X128873733Y-60899050D01*
X128860842Y-60878039D01*
X128843657Y-60843175D01*
X128822808Y-60802333D01*
X128804630Y-60772710D01*
X128788474Y-60755180D01*
X128772107Y-60747364D01*
X128753300Y-60746886D01*
X128745034Y-60748227D01*
X128729257Y-60754577D01*
X128718920Y-60766658D01*
X128714152Y-60786036D01*
X127970517Y-60786036D01*
X127980302Y-60781983D01*
X128067533Y-60742822D01*
X128116702Y-60720502D01*
X128270810Y-60655582D01*
X128415917Y-60602672D01*
X128554436Y-60560947D01*
X128688780Y-60529576D01*
X128727420Y-60522461D01*
X128772742Y-60516077D01*
X128820122Y-60511994D01*
X128874818Y-60509783D01*
X128942089Y-60509019D01*
X128963570Y-60509047D01*
X129045540Y-60511155D01*
X129113789Y-60516850D01*
X129171472Y-60526631D01*
X129221743Y-60540995D01*
X129267757Y-60560441D01*
X129307630Y-60580098D01*
X129457319Y-60950737D01*
X129480104Y-61007128D01*
X129510199Y-61081527D01*
X129515191Y-61093852D01*
X129537967Y-61150083D01*
G37*
G36*
X132852317Y-86104568D02*
G01*
X132849852Y-86145814D01*
X132845105Y-86180825D01*
X132837402Y-86215315D01*
X132826066Y-86255000D01*
X132810286Y-86302684D01*
X132756351Y-86424513D01*
X132687120Y-86534052D01*
X132603596Y-86630401D01*
X132506779Y-86712660D01*
X132397670Y-86779929D01*
X132277272Y-86831307D01*
X132146585Y-86865894D01*
X132108374Y-86871424D01*
X132040486Y-86875830D01*
X131965000Y-86875470D01*
X131882392Y-86868471D01*
X131757542Y-86842336D01*
X131639979Y-86798718D01*
X131531148Y-86738781D01*
X131432497Y-86663687D01*
X131345470Y-86574599D01*
X131271514Y-86472680D01*
X131212075Y-86359093D01*
X131168597Y-86235000D01*
X131162891Y-86212697D01*
X131155032Y-86173234D01*
X131150104Y-86130936D01*
X131147544Y-86080094D01*
X131147304Y-86059541D01*
X131212427Y-86059541D01*
X131220292Y-86138893D01*
X131247641Y-86257069D01*
X131292197Y-86368138D01*
X131352563Y-86470473D01*
X131427344Y-86562448D01*
X131515145Y-86642435D01*
X131614570Y-86708809D01*
X131724223Y-86759943D01*
X131842708Y-86794209D01*
X131939195Y-86807702D01*
X132059284Y-86807260D01*
X132177335Y-86788566D01*
X132291147Y-86752536D01*
X132398521Y-86700087D01*
X132497259Y-86632135D01*
X132585161Y-86549599D01*
X132660028Y-86453394D01*
X132689365Y-86405142D01*
X132740052Y-86295430D01*
X132772673Y-86181497D01*
X132787646Y-86065359D01*
X132785388Y-85949032D01*
X132766317Y-85834531D01*
X132730851Y-85723873D01*
X132679408Y-85619072D01*
X132612406Y-85522144D01*
X132530263Y-85435106D01*
X132433395Y-85359972D01*
X132347483Y-85310844D01*
X132235017Y-85266033D01*
X132118659Y-85239351D01*
X132000503Y-85230606D01*
X131882643Y-85239607D01*
X131767174Y-85266162D01*
X131656190Y-85310081D01*
X131551784Y-85371172D01*
X131456051Y-85449243D01*
X131415540Y-85490547D01*
X131338344Y-85589009D01*
X131279089Y-85696006D01*
X131238120Y-85810672D01*
X131215784Y-85932139D01*
X131212427Y-86059541D01*
X131147304Y-86059541D01*
X131146783Y-86015000D01*
X131146827Y-85988626D01*
X131147684Y-85935431D01*
X131150149Y-85894185D01*
X131154896Y-85859174D01*
X131162599Y-85824684D01*
X131173935Y-85785000D01*
X131213037Y-85679039D01*
X131274391Y-85563166D01*
X131350783Y-85459532D01*
X131441127Y-85369196D01*
X131544337Y-85293221D01*
X131659323Y-85232667D01*
X131785000Y-85188596D01*
X131807303Y-85182890D01*
X131846766Y-85175031D01*
X131889064Y-85170103D01*
X131939906Y-85167543D01*
X132005000Y-85166782D01*
X132031374Y-85166826D01*
X132084569Y-85167683D01*
X132125815Y-85170148D01*
X132160826Y-85174895D01*
X132195316Y-85182598D01*
X132235000Y-85193934D01*
X132340961Y-85233036D01*
X132456834Y-85294390D01*
X132560468Y-85370782D01*
X132650804Y-85461126D01*
X132726779Y-85564336D01*
X132787333Y-85679322D01*
X132831404Y-85805000D01*
X132837110Y-85827302D01*
X132844969Y-85866765D01*
X132849897Y-85909063D01*
X132852457Y-85959905D01*
X132853218Y-86025000D01*
X132853174Y-86051373D01*
X132852949Y-86065359D01*
X132852317Y-86104568D01*
G37*
G36*
X134500000Y-87500000D02*
G01*
X132000000Y-87500000D01*
X129500000Y-87500000D01*
X129500000Y-85000000D01*
X129500000Y-83250000D01*
X129550000Y-83250000D01*
X129550000Y-83425000D01*
X129550000Y-83600000D01*
X130010772Y-83599999D01*
X130471544Y-83599999D01*
X130705912Y-83724961D01*
X130940281Y-83849922D01*
X130980966Y-83820450D01*
X131021078Y-83797675D01*
X131079141Y-83782824D01*
X131138325Y-83786148D01*
X131195252Y-83807322D01*
X131246547Y-83846019D01*
X131264931Y-83866823D01*
X131294591Y-83919093D01*
X131307238Y-83974755D01*
X131306964Y-83979202D01*
X131303793Y-84030600D01*
X131285177Y-84083416D01*
X131252309Y-84129992D01*
X131206110Y-84167118D01*
X131147500Y-84191583D01*
X131130574Y-84195284D01*
X131071600Y-84196375D01*
X131016627Y-84180351D01*
X130968488Y-84149461D01*
X130930021Y-84105954D01*
X130904061Y-84052079D01*
X130895894Y-84004393D01*
X130980998Y-84004393D01*
X130995170Y-84050327D01*
X131013524Y-84074515D01*
X131039673Y-84094830D01*
X131048889Y-84099143D01*
X131094156Y-84109233D01*
X131138701Y-84103513D01*
X131177337Y-84083383D01*
X131204875Y-84050243D01*
X131214980Y-84024795D01*
X131219346Y-83979202D01*
X131207821Y-83937126D01*
X131182614Y-83902367D01*
X131145937Y-83878725D01*
X131100000Y-83870000D01*
X131073421Y-83872787D01*
X131032361Y-83890278D01*
X131001800Y-83920573D01*
X130983943Y-83959876D01*
X130980998Y-84004393D01*
X130895894Y-84004393D01*
X130893443Y-83990084D01*
X130891760Y-83935169D01*
X130673380Y-83818066D01*
X130455000Y-83700963D01*
X130002500Y-83700481D01*
X129550000Y-83700000D01*
X129550000Y-85575000D01*
X129550000Y-87450000D01*
X132000000Y-87450000D01*
X134450000Y-87450000D01*
X134450000Y-85000000D01*
X134450000Y-82550000D01*
X132000000Y-82550000D01*
X129550000Y-82550000D01*
X129550000Y-82850000D01*
X129550000Y-83150000D01*
X130180772Y-83149999D01*
X130811544Y-83149999D01*
X131045985Y-83274999D01*
X131107021Y-83307408D01*
X131164107Y-83337451D01*
X131213102Y-83362959D01*
X131251622Y-83382701D01*
X131277287Y-83395444D01*
X131287713Y-83399958D01*
X131294724Y-83397859D01*
X131315744Y-83388777D01*
X131344195Y-83374958D01*
X131369167Y-83364152D01*
X131428914Y-83352176D01*
X131487086Y-83358397D01*
X131540572Y-83381690D01*
X131586261Y-83420933D01*
X131621042Y-83475000D01*
X131621054Y-83475026D01*
X131637504Y-83531248D01*
X131637242Y-83544075D01*
X131636390Y-83585887D01*
X131620136Y-83636696D01*
X131591167Y-83681427D01*
X131551907Y-83717831D01*
X131504779Y-83743661D01*
X131452209Y-83756669D01*
X131396619Y-83754606D01*
X131340435Y-83735224D01*
X131332445Y-83730797D01*
X131288584Y-83694163D01*
X131255488Y-83644779D01*
X131235701Y-83587515D01*
X131233530Y-83554259D01*
X131321982Y-83554259D01*
X131327063Y-83593097D01*
X131345943Y-83627984D01*
X131379673Y-83654830D01*
X131419707Y-83667907D01*
X131461887Y-83666051D01*
X131498797Y-83649794D01*
X131527492Y-83622082D01*
X131545026Y-83585861D01*
X131548455Y-83544075D01*
X131534831Y-83499672D01*
X131512253Y-83471485D01*
X131475644Y-83448680D01*
X131435000Y-83440000D01*
X131418581Y-83441135D01*
X131378998Y-83454906D01*
X131349002Y-83481075D01*
X131329646Y-83515556D01*
X131321982Y-83554259D01*
X131233530Y-83554259D01*
X131231767Y-83527243D01*
X131235000Y-83487071D01*
X131015000Y-83369017D01*
X130795000Y-83250963D01*
X130172500Y-83250481D01*
X129550000Y-83250000D01*
X129500000Y-83250000D01*
X129500000Y-82500000D01*
X132000000Y-82500000D01*
X134500000Y-82500000D01*
X134500000Y-85000000D01*
X134500000Y-87500000D01*
G37*
G36*
X134199774Y-84528787D02*
G01*
X134197388Y-84597394D01*
X134191997Y-84663093D01*
X134183784Y-84720357D01*
X134172930Y-84763660D01*
X134170226Y-84771376D01*
X134160587Y-84800770D01*
X134157588Y-84818297D01*
X134161079Y-84829745D01*
X134170906Y-84840905D01*
X134187331Y-84863736D01*
X134195065Y-84902100D01*
X134184697Y-84946693D01*
X134156458Y-84996709D01*
X134110580Y-85051338D01*
X134108853Y-85053138D01*
X134084466Y-85080746D01*
X134071427Y-85100176D01*
X134071500Y-85108833D01*
X134078683Y-85111968D01*
X134102938Y-85131820D01*
X134122171Y-85159445D01*
X134130000Y-85186383D01*
X134129757Y-85190141D01*
X134118715Y-85216912D01*
X134094034Y-85247917D01*
X134059568Y-85279540D01*
X134019172Y-85308166D01*
X133976699Y-85330180D01*
X133971150Y-85332485D01*
X133942370Y-85345309D01*
X133927778Y-85355585D01*
X133923508Y-85367483D01*
X133925693Y-85385172D01*
X133926486Y-85390641D01*
X133920408Y-85425078D01*
X133895640Y-85457093D01*
X133853269Y-85485918D01*
X133794379Y-85510784D01*
X133720056Y-85530922D01*
X133691457Y-85538892D01*
X133672022Y-85551490D01*
X133659096Y-85572659D01*
X133648399Y-85591046D01*
X133619267Y-85617740D01*
X133574966Y-85638486D01*
X133513226Y-85654557D01*
X133502478Y-85656514D01*
X133451288Y-85662807D01*
X133389313Y-85666938D01*
X133321664Y-85668902D01*
X133253453Y-85668694D01*
X133189788Y-85666308D01*
X133135782Y-85661739D01*
X133096544Y-85654981D01*
X133084916Y-85651767D01*
X133021843Y-85625839D01*
X132970279Y-85587312D01*
X132927736Y-85533857D01*
X132891728Y-85463146D01*
X132883736Y-85441798D01*
X132870955Y-85375886D01*
X132871606Y-85365344D01*
X132937168Y-85365344D01*
X132950591Y-85424282D01*
X132962182Y-85452767D01*
X132995575Y-85512158D01*
X133036267Y-85554454D01*
X133086231Y-85581360D01*
X133147440Y-85594585D01*
X133245008Y-85601960D01*
X133357710Y-85602800D01*
X133457213Y-85594352D01*
X133541207Y-85576719D01*
X133571502Y-85567085D01*
X133589784Y-85557476D01*
X133598706Y-85544134D01*
X133603430Y-85522568D01*
X133609446Y-85484942D01*
X133692223Y-85466365D01*
X133702209Y-85464060D01*
X133756716Y-85449098D01*
X133802825Y-85432496D01*
X133836744Y-85415791D01*
X133854679Y-85400520D01*
X133854306Y-85395582D01*
X133842592Y-85381318D01*
X133820357Y-85364049D01*
X133807002Y-85354813D01*
X133787619Y-85339451D01*
X133780000Y-85330310D01*
X133787350Y-85324924D01*
X133809299Y-85316155D01*
X133840744Y-85306390D01*
X133865069Y-85298800D01*
X133909539Y-85281940D01*
X133955287Y-85261729D01*
X133997259Y-85240610D01*
X134030399Y-85221025D01*
X134049652Y-85205419D01*
X134052774Y-85201265D01*
X134056144Y-85184332D01*
X134040235Y-85172532D01*
X134005102Y-85165912D01*
X133993219Y-85164446D01*
X133968506Y-85155289D01*
X133952599Y-85135263D01*
X133944789Y-85118173D01*
X133946178Y-85104982D01*
X133961670Y-85092032D01*
X133984964Y-85074127D01*
X134017780Y-85045007D01*
X134051896Y-85011647D01*
X134083156Y-84978320D01*
X134107402Y-84949297D01*
X134120477Y-84928850D01*
X134126439Y-84912099D01*
X134125495Y-84895608D01*
X134111522Y-84879271D01*
X134093511Y-84856761D01*
X134083055Y-84822600D01*
X134090248Y-84789537D01*
X134100610Y-84767444D01*
X134112548Y-84730415D01*
X134122041Y-84682843D01*
X134130201Y-84620000D01*
X134131919Y-84601383D01*
X134134132Y-84557664D01*
X134134496Y-84512263D01*
X134133191Y-84469514D01*
X134130397Y-84433746D01*
X134126295Y-84409293D01*
X134121065Y-84400485D01*
X134120753Y-84400560D01*
X134111053Y-84409120D01*
X134092916Y-84429039D01*
X134070000Y-84456314D01*
X134057903Y-84470799D01*
X133982914Y-84548076D01*
X133894932Y-84621689D01*
X133799177Y-84687960D01*
X133700872Y-84743209D01*
X133605236Y-84783758D01*
X133473431Y-84835279D01*
X133328135Y-84908816D01*
X133197716Y-84994988D01*
X133081537Y-85094173D01*
X133063154Y-85112428D01*
X133003872Y-85180336D01*
X132963391Y-85244423D01*
X132941296Y-85305741D01*
X132937168Y-85365344D01*
X132871606Y-85365344D01*
X132875293Y-85305604D01*
X132896814Y-85228072D01*
X132902822Y-85212152D01*
X132915382Y-85183407D01*
X132930219Y-85158039D01*
X132950426Y-85131799D01*
X132979093Y-85100437D01*
X133019314Y-85059703D01*
X133133491Y-84958102D01*
X133265820Y-84865422D01*
X133411599Y-84786739D01*
X133571767Y-84721477D01*
X133615087Y-84705502D01*
X133705362Y-84665441D01*
X133787185Y-84617885D01*
X133866209Y-84559297D01*
X133948086Y-84486144D01*
X133975829Y-84457762D01*
X134016030Y-84412778D01*
X134058093Y-84362499D01*
X134096855Y-84313135D01*
X134127149Y-84270894D01*
X134132660Y-84269120D01*
X134145170Y-84279149D01*
X134160276Y-84300240D01*
X134174982Y-84327983D01*
X134186293Y-84357967D01*
X134187081Y-84360782D01*
X134194802Y-84404955D01*
X134198972Y-84462799D01*
X134199573Y-84512263D01*
X134199774Y-84528787D01*
G37*
G36*
X131129128Y-85379050D02*
G01*
X131127585Y-85405042D01*
X131121381Y-85429416D01*
X131108885Y-85458569D01*
X131088469Y-85498899D01*
X131079287Y-85516088D01*
X131045113Y-85569552D01*
X131008370Y-85607964D01*
X130964764Y-85635072D01*
X130910000Y-85654624D01*
X130894047Y-85657905D01*
X130852779Y-85662384D01*
X130798673Y-85665218D01*
X130736256Y-85666453D01*
X130670052Y-85666133D01*
X130604589Y-85664301D01*
X130544393Y-85661003D01*
X130493990Y-85656283D01*
X130457906Y-85650185D01*
X130429703Y-85641617D01*
X130386787Y-85621271D01*
X130355511Y-85596507D01*
X130340036Y-85570150D01*
X130339818Y-85569261D01*
X130327247Y-85548891D01*
X130299612Y-85536658D01*
X130259368Y-85525748D01*
X130185749Y-85501300D01*
X130131105Y-85475613D01*
X130094741Y-85448223D01*
X130075959Y-85418666D01*
X130074063Y-85386479D01*
X130075131Y-85380674D01*
X130076583Y-85363876D01*
X130070944Y-85352567D01*
X130054386Y-85342449D01*
X130023080Y-85329220D01*
X130017287Y-85326781D01*
X129974564Y-85303832D01*
X129934611Y-85274713D01*
X129901291Y-85243030D01*
X129878467Y-85212385D01*
X129870000Y-85186383D01*
X129870747Y-85179006D01*
X129882605Y-85150985D01*
X129903984Y-85124774D01*
X129928501Y-85108833D01*
X129928895Y-85108670D01*
X129928158Y-85099317D01*
X129914412Y-85079341D01*
X129889421Y-85051338D01*
X129852803Y-85009207D01*
X129820685Y-84958680D01*
X129805883Y-84913411D01*
X129806703Y-84902007D01*
X129866533Y-84902007D01*
X129884884Y-84936082D01*
X129892198Y-84947720D01*
X129917360Y-84978933D01*
X129952140Y-85015537D01*
X129992180Y-85053089D01*
X130033120Y-85087146D01*
X130034318Y-85088072D01*
X130051760Y-85103593D01*
X130055237Y-85116651D01*
X130047192Y-85135665D01*
X130042479Y-85143681D01*
X130024894Y-85159105D01*
X129996083Y-85164728D01*
X129983149Y-85165914D01*
X129954288Y-85173817D01*
X129943259Y-85187487D01*
X129950924Y-85206134D01*
X129952785Y-85208145D01*
X129973282Y-85223186D01*
X130006727Y-85242251D01*
X130048126Y-85262954D01*
X130092487Y-85282904D01*
X130134818Y-85299715D01*
X130170128Y-85310999D01*
X130188685Y-85316244D01*
X130211209Y-85324475D01*
X130220000Y-85330561D01*
X130217567Y-85334470D01*
X130202809Y-85347455D01*
X130179111Y-85364401D01*
X130162861Y-85375413D01*
X130148017Y-85388092D01*
X130146090Y-85397867D01*
X130154505Y-85409452D01*
X130173526Y-85422668D01*
X130207465Y-85438048D01*
X130250442Y-85453180D01*
X130297016Y-85466161D01*
X130341749Y-85475082D01*
X130357311Y-85477597D01*
X130379032Y-85484032D01*
X130390175Y-85496008D01*
X130397109Y-85518522D01*
X130397759Y-85521156D01*
X130408914Y-85546909D01*
X130429233Y-85565379D01*
X130462326Y-85578796D01*
X130511800Y-85589389D01*
X130576798Y-85597503D01*
X130658021Y-85602423D01*
X130741360Y-85602999D01*
X130817689Y-85598947D01*
X130822649Y-85598471D01*
X130891716Y-85587013D01*
X130945517Y-85566352D01*
X130987511Y-85533865D01*
X131021158Y-85486933D01*
X131049915Y-85422932D01*
X131060540Y-85392546D01*
X131065304Y-85368099D01*
X131063470Y-85343355D01*
X131055497Y-85308874D01*
X131052549Y-85297665D01*
X131038156Y-85252338D01*
X131020101Y-85213597D01*
X130995338Y-85176744D01*
X130960821Y-85137084D01*
X130913503Y-85089919D01*
X130821300Y-85009700D01*
X130689560Y-84918332D01*
X130544917Y-84841819D01*
X130388092Y-84780586D01*
X130350829Y-84766926D01*
X130260099Y-84723406D01*
X130166807Y-84665742D01*
X130074913Y-84596790D01*
X129988377Y-84519407D01*
X129911157Y-84436449D01*
X129898870Y-84422781D01*
X129881834Y-84407472D01*
X129872508Y-84404159D01*
X129872203Y-84404617D01*
X129869945Y-84418636D01*
X129868207Y-84448159D01*
X129867157Y-84489184D01*
X129866960Y-84537709D01*
X129867753Y-84592224D01*
X129870068Y-84636512D01*
X129874666Y-84672378D01*
X129882327Y-84705789D01*
X129893835Y-84742710D01*
X129897555Y-84753849D01*
X129908995Y-84789413D01*
X129916991Y-84816318D01*
X129920000Y-84829443D01*
X129919324Y-84832261D01*
X129910017Y-84848327D01*
X129893267Y-84870236D01*
X129866533Y-84902007D01*
X129806703Y-84902007D01*
X129808687Y-84874416D01*
X129829392Y-84842713D01*
X129832979Y-84839330D01*
X129841237Y-84829275D01*
X129843168Y-84817277D01*
X129838635Y-84797707D01*
X129827502Y-84764936D01*
X129826855Y-84763056D01*
X129815930Y-84718240D01*
X129807709Y-84659849D01*
X129802378Y-84593418D01*
X129800124Y-84524479D01*
X129801136Y-84458569D01*
X129805602Y-84401220D01*
X129813708Y-84357967D01*
X129820430Y-84338633D01*
X129834392Y-84309329D01*
X129849831Y-84285335D01*
X129863743Y-84271055D01*
X129873120Y-84270894D01*
X129874600Y-84272922D01*
X129885345Y-84287656D01*
X129903829Y-84313004D01*
X129927159Y-84345000D01*
X129935626Y-84356394D01*
X130007042Y-84440249D01*
X130091481Y-84521944D01*
X130183125Y-84596259D01*
X130276155Y-84657976D01*
X130287893Y-84664402D01*
X130326567Y-84682714D01*
X130373542Y-84702266D01*
X130421155Y-84719792D01*
X130574868Y-84780822D01*
X130723677Y-84859344D01*
X130859242Y-84952366D01*
X130980894Y-85059480D01*
X131004114Y-85083088D01*
X131051377Y-85136245D01*
X131085093Y-85184607D01*
X131107530Y-85232585D01*
X131120955Y-85284591D01*
X131127635Y-85345038D01*
X131127635Y-85345042D01*
X131128647Y-85368099D01*
X131129128Y-85379050D01*
G37*
%TD*%
M02*
