%TF.GenerationSoftware,KiCad,Pcbnew,9.0.3*%
%TF.CreationDate,2025-08-02T05:50:16+03:00*%
%TF.ProjectId,LuminanceMeter,4c756d69-6e61-46e6-9365-4d657465722e,V0.1*%
%TF.SameCoordinates,Original*%
%TF.FileFunction,Copper,L2,Bot*%
%TF.FilePolarity,Positive*%
%FSLAX46Y46*%
G04 Gerber Fmt 4.6, Leading zero omitted, Abs format (unit mm)*
G04 Created by KiCad (PCBNEW 9.0.3) date 2025-08-02 05:50:16*
%MOMM*%
%LPD*%
G01*
G04 APERTURE LIST*
%TA.AperFunction,ComponentPad*%
%ADD10O,1.600000X2.000000*%
%TD*%
%TA.AperFunction,ComponentPad*%
%ADD11C,1.400000*%
%TD*%
%TA.AperFunction,ComponentPad*%
%ADD12C,2.000000*%
%TD*%
%TA.AperFunction,ComponentPad*%
%ADD13C,1.524000*%
%TD*%
%TA.AperFunction,SMDPad,CuDef*%
%ADD14R,1.270000X5.080000*%
%TD*%
%TA.AperFunction,SMDPad,CuDef*%
%ADD15C,17.800000*%
%TD*%
%TA.AperFunction,ViaPad*%
%ADD16C,0.600000*%
%TD*%
%TA.AperFunction,Conductor*%
%ADD17C,0.200000*%
%TD*%
G04 APERTURE END LIST*
D10*
%TO.P,Brd1,1,GND*%
%TO.N,GND*%
X85880000Y-62000000D03*
%TO.P,Brd1,2,VCC*%
%TO.N,3V3*%
X88420000Y-62000000D03*
%TO.P,Brd1,3,SCL*%
%TO.N,SCL*%
X90960000Y-62000000D03*
%TO.P,Brd1,4,SDA*%
%TO.N,SDA*%
X93500000Y-62000000D03*
%TD*%
D11*
%TO.P,R2,1*%
%TO.N,SCL*%
X112000000Y-75000000D03*
%TO.P,R2,2*%
%TO.N,3V3*%
X106920000Y-75000000D03*
%TD*%
%TO.P,R1,1*%
%TO.N,SDA*%
X112000000Y-71500000D03*
%TO.P,R1,2*%
%TO.N,3V3*%
X106920000Y-71500000D03*
%TD*%
D12*
%TO.P,SW1,1,1*%
%TO.N,Battery*%
X111500000Y-79500000D03*
X111500000Y-86000000D03*
%TO.P,SW1,2,2*%
%TO.N,Net-(BT1-+)*%
X107000000Y-79500000D03*
X107000000Y-86000000D03*
%TD*%
D13*
%TO.P,U1,1,GPIO26/ADC0/A0*%
%TO.N,unconnected-(U1-GPIO26{slash}ADC0{slash}A0-Pad1)*%
X117380000Y-62380000D03*
%TO.P,U1,2,GPIO27/ADC1/A1*%
%TO.N,unconnected-(U1-GPIO27{slash}ADC1{slash}A1-Pad2)*%
X117380000Y-64920000D03*
%TO.P,U1,3,GPIO28/ADC2/A2*%
%TO.N,unconnected-(U1-GPIO28{slash}ADC2{slash}A2-Pad3)*%
X117380000Y-67460000D03*
%TO.P,U1,4,GPIO29/ADC3/A3*%
%TO.N,Reset*%
X117380000Y-70000000D03*
%TO.P,U1,5,GPIO6/SDA*%
%TO.N,SDA*%
X117380000Y-72540000D03*
%TO.P,U1,6,GPIO7/SCL*%
%TO.N,SCL*%
X117380000Y-75080000D03*
%TO.P,U1,7,GPIO0/TX*%
%TO.N,unconnected-(U1-GPIO0{slash}TX-Pad7)*%
X117380000Y-77620000D03*
%TO.P,U1,8,GPIO1/RX*%
%TO.N,unconnected-(U1-GPIO1{slash}RX-Pad8)*%
X132620000Y-77620000D03*
%TO.P,U1,9,GPIO2/SCK*%
%TO.N,unconnected-(U1-GPIO2{slash}SCK-Pad9)*%
X132620000Y-75080000D03*
%TO.P,U1,10,GPIO4/MISO*%
%TO.N,unconnected-(U1-GPIO4{slash}MISO-Pad10)*%
X132620000Y-72540000D03*
%TO.P,U1,11,GPIO3/MOSI*%
%TO.N,unconnected-(U1-GPIO3{slash}MOSI-Pad11)*%
X132620000Y-70000000D03*
%TO.P,U1,12,3V3*%
%TO.N,3V3*%
X132620000Y-67460000D03*
%TO.P,U1,13,GND*%
%TO.N,GND*%
X132620000Y-64920000D03*
%TO.P,U1,14,VBUS*%
%TO.N,Battery*%
X132620000Y-62380000D03*
%TD*%
D14*
%TO.P,BT1,1,+*%
%TO.N,Net-(BT1-+)*%
X101000000Y-74500000D03*
X79030000Y-74500000D03*
D15*
%TO.P,BT1,2,-*%
%TO.N,GND*%
X90015000Y-74500000D03*
%TD*%
D16*
%TO.N,GND*%
X98500000Y-81500000D03*
%TD*%
D17*
%TO.N,GND*%
X97015000Y-81500000D02*
X90015000Y-74500000D01*
X98500000Y-81500000D02*
X97015000Y-81500000D01*
%TO.N,3V3*%
X122500000Y-60000000D02*
X129960000Y-67460000D01*
X90420000Y-60000000D02*
X122500000Y-60000000D01*
X88420000Y-62000000D02*
X90420000Y-60000000D01*
X129960000Y-67460000D02*
X132620000Y-67460000D01*
%TO.N,Battery*%
X118978429Y-81000000D02*
X135000000Y-81000000D01*
X135000000Y-62380000D02*
X132620000Y-62380000D01*
X111500000Y-86000000D02*
X113978429Y-86000000D01*
X113978429Y-86000000D02*
X118978429Y-81000000D01*
X135000000Y-81000000D02*
X135000000Y-62380000D01*
%TO.N,Net-(BT1-+)*%
X101000000Y-86000000D02*
X101000000Y-74500000D01*
X99000000Y-86000000D02*
X101000000Y-86000000D01*
X99000000Y-86000000D02*
X83500000Y-86000000D01*
X79030000Y-81530000D02*
X79030000Y-74500000D01*
X83500000Y-86000000D02*
X79030000Y-81530000D01*
X101000000Y-86000000D02*
X107000000Y-86000000D01*
%TO.N,SDA*%
X112000000Y-65000000D02*
X112000000Y-71500000D01*
X93500000Y-62000000D02*
X109000000Y-62000000D01*
X109000000Y-62000000D02*
X112000000Y-65000000D01*
%TD*%
%TA.AperFunction,Conductor*%
%TO.N,GND*%
G36*
X89837941Y-59520185D02*
G01*
X89883696Y-59572989D01*
X89893640Y-59642147D01*
X89864615Y-59705703D01*
X89858583Y-59712181D01*
X89015794Y-60554969D01*
X88954471Y-60588454D01*
X88889795Y-60585219D01*
X88724536Y-60531523D01*
X88589746Y-60510174D01*
X88522352Y-60499500D01*
X88317648Y-60499500D01*
X88304781Y-60501538D01*
X88115465Y-60531522D01*
X87920776Y-60594781D01*
X87738386Y-60687715D01*
X87572786Y-60808028D01*
X87428028Y-60952786D01*
X87307713Y-61118388D01*
X87260203Y-61211630D01*
X87212228Y-61262426D01*
X87144407Y-61279220D01*
X87078272Y-61256682D01*
X87039234Y-61211628D01*
X86991861Y-61118652D01*
X86871582Y-60953105D01*
X86871582Y-60953104D01*
X86726895Y-60808417D01*
X86561349Y-60688140D01*
X86379029Y-60595244D01*
X86184413Y-60532009D01*
X86130000Y-60523390D01*
X86130000Y-61566988D01*
X86072993Y-61534075D01*
X85945826Y-61500000D01*
X85814174Y-61500000D01*
X85687007Y-61534075D01*
X85630000Y-61566988D01*
X85630000Y-60523390D01*
X85575586Y-60532009D01*
X85380970Y-60595244D01*
X85198650Y-60688140D01*
X85033105Y-60808417D01*
X85033104Y-60808417D01*
X84888417Y-60953104D01*
X84888417Y-60953105D01*
X84768140Y-61118650D01*
X84675244Y-61300968D01*
X84612009Y-61495582D01*
X84580000Y-61697682D01*
X84580000Y-61750000D01*
X85446988Y-61750000D01*
X85414075Y-61807007D01*
X85380000Y-61934174D01*
X85380000Y-62065826D01*
X85414075Y-62192993D01*
X85446988Y-62250000D01*
X84580000Y-62250000D01*
X84580000Y-62302317D01*
X84612009Y-62504417D01*
X84675244Y-62699031D01*
X84768140Y-62881349D01*
X84888417Y-63046894D01*
X84888417Y-63046895D01*
X85033104Y-63191582D01*
X85198650Y-63311859D01*
X85380968Y-63404754D01*
X85575578Y-63467988D01*
X85630000Y-63476607D01*
X85630000Y-62433012D01*
X85687007Y-62465925D01*
X85814174Y-62500000D01*
X85945826Y-62500000D01*
X86072993Y-62465925D01*
X86130000Y-62433012D01*
X86130000Y-63476606D01*
X86184421Y-63467988D01*
X86379031Y-63404754D01*
X86561349Y-63311859D01*
X86726894Y-63191582D01*
X86726895Y-63191582D01*
X86871582Y-63046895D01*
X86871582Y-63046894D01*
X86991861Y-62881347D01*
X87039234Y-62788371D01*
X87087208Y-62737575D01*
X87155028Y-62720779D01*
X87221164Y-62743316D01*
X87260203Y-62788369D01*
X87307713Y-62881611D01*
X87428028Y-63047213D01*
X87572786Y-63191971D01*
X87727749Y-63304556D01*
X87738390Y-63312287D01*
X87854607Y-63371503D01*
X87920776Y-63405218D01*
X87920778Y-63405218D01*
X87920781Y-63405220D01*
X88025137Y-63439127D01*
X88115465Y-63468477D01*
X88216557Y-63484488D01*
X88317648Y-63500500D01*
X88317649Y-63500500D01*
X88522351Y-63500500D01*
X88522352Y-63500500D01*
X88724534Y-63468477D01*
X88919219Y-63405220D01*
X89101610Y-63312287D01*
X89194590Y-63244732D01*
X89267213Y-63191971D01*
X89267215Y-63191968D01*
X89267219Y-63191966D01*
X89411966Y-63047219D01*
X89411968Y-63047215D01*
X89411971Y-63047213D01*
X89532284Y-62881614D01*
X89532286Y-62881611D01*
X89532287Y-62881610D01*
X89579516Y-62788917D01*
X89627489Y-62738123D01*
X89695310Y-62721328D01*
X89761445Y-62743865D01*
X89800485Y-62788919D01*
X89847715Y-62881614D01*
X89968028Y-63047213D01*
X90112786Y-63191971D01*
X90267749Y-63304556D01*
X90278390Y-63312287D01*
X90394607Y-63371503D01*
X90460776Y-63405218D01*
X90460778Y-63405218D01*
X90460781Y-63405220D01*
X90565137Y-63439127D01*
X90655465Y-63468477D01*
X90756557Y-63484488D01*
X90857648Y-63500500D01*
X90857649Y-63500500D01*
X91062351Y-63500500D01*
X91062352Y-63500500D01*
X91264534Y-63468477D01*
X91459219Y-63405220D01*
X91641610Y-63312287D01*
X91734590Y-63244732D01*
X91807213Y-63191971D01*
X91807215Y-63191968D01*
X91807219Y-63191966D01*
X91951966Y-63047219D01*
X91951968Y-63047215D01*
X91951971Y-63047213D01*
X92072284Y-62881614D01*
X92072286Y-62881611D01*
X92072287Y-62881610D01*
X92119516Y-62788917D01*
X92167489Y-62738123D01*
X92235310Y-62721328D01*
X92301445Y-62743865D01*
X92340485Y-62788919D01*
X92387715Y-62881614D01*
X92508028Y-63047213D01*
X92652786Y-63191971D01*
X92807749Y-63304556D01*
X92818390Y-63312287D01*
X92934607Y-63371503D01*
X93000776Y-63405218D01*
X93000778Y-63405218D01*
X93000781Y-63405220D01*
X93105137Y-63439127D01*
X93195465Y-63468477D01*
X93296557Y-63484488D01*
X93397648Y-63500500D01*
X93397649Y-63500500D01*
X93602351Y-63500500D01*
X93602352Y-63500500D01*
X93804534Y-63468477D01*
X93999219Y-63405220D01*
X94181610Y-63312287D01*
X94274590Y-63244732D01*
X94347213Y-63191971D01*
X94347215Y-63191968D01*
X94347219Y-63191966D01*
X94491966Y-63047219D01*
X94491968Y-63047215D01*
X94491971Y-63047213D01*
X94544732Y-62974590D01*
X94612287Y-62881610D01*
X94705220Y-62699219D01*
X94709457Y-62686180D01*
X94748895Y-62628505D01*
X94813254Y-62601308D01*
X94827387Y-62600500D01*
X108699903Y-62600500D01*
X108766942Y-62620185D01*
X108787584Y-62636819D01*
X111363181Y-65212416D01*
X111396666Y-65273739D01*
X111399500Y-65300097D01*
X111399500Y-70389207D01*
X111379815Y-70456246D01*
X111348386Y-70489525D01*
X111217925Y-70584311D01*
X111084312Y-70717924D01*
X111084312Y-70717925D01*
X111084310Y-70717927D01*
X111036610Y-70783579D01*
X110973240Y-70870800D01*
X110887454Y-71039163D01*
X110829059Y-71218881D01*
X110799500Y-71405513D01*
X110799500Y-71594486D01*
X110829059Y-71781118D01*
X110887454Y-71960836D01*
X110935621Y-72055368D01*
X110973240Y-72129199D01*
X111084310Y-72282073D01*
X111217927Y-72415690D01*
X111370801Y-72526760D01*
X111450347Y-72567290D01*
X111539163Y-72612545D01*
X111539165Y-72612545D01*
X111539168Y-72612547D01*
X111635497Y-72643846D01*
X111718881Y-72670940D01*
X111905514Y-72700500D01*
X111905519Y-72700500D01*
X112094486Y-72700500D01*
X112281118Y-72670940D01*
X112460832Y-72612547D01*
X112629199Y-72526760D01*
X112782073Y-72415690D01*
X112915690Y-72282073D01*
X113026760Y-72129199D01*
X113112547Y-71960832D01*
X113170940Y-71781118D01*
X113180990Y-71717664D01*
X113200500Y-71594486D01*
X113200500Y-71405513D01*
X113170940Y-71218881D01*
X113125745Y-71079787D01*
X113112547Y-71039168D01*
X113112545Y-71039165D01*
X113112545Y-71039163D01*
X113026759Y-70870800D01*
X112991642Y-70822466D01*
X112915690Y-70717927D01*
X112782073Y-70584310D01*
X112737649Y-70552034D01*
X112651614Y-70489525D01*
X112608948Y-70434194D01*
X112600500Y-70389207D01*
X112600500Y-65089060D01*
X112600501Y-65089047D01*
X112600501Y-64920944D01*
X112600501Y-64920943D01*
X112559577Y-64768216D01*
X112489634Y-64647070D01*
X112480524Y-64631290D01*
X112480518Y-64631282D01*
X111349736Y-63500500D01*
X110129874Y-62280639D01*
X116117500Y-62280639D01*
X116117500Y-62479361D01*
X116121487Y-62504534D01*
X116148587Y-62675637D01*
X116209993Y-62864629D01*
X116209994Y-62864632D01*
X116269033Y-62980500D01*
X116300213Y-63041694D01*
X116417019Y-63202464D01*
X116557536Y-63342981D01*
X116718306Y-63459787D01*
X116836832Y-63520179D01*
X116874780Y-63539515D01*
X116925576Y-63587490D01*
X116942371Y-63655311D01*
X116919833Y-63721446D01*
X116874780Y-63760485D01*
X116718305Y-63840213D01*
X116557533Y-63957021D01*
X116417021Y-64097533D01*
X116300213Y-64258305D01*
X116209994Y-64435367D01*
X116209993Y-64435370D01*
X116148587Y-64624362D01*
X116117500Y-64820639D01*
X116117500Y-65019360D01*
X116148587Y-65215637D01*
X116209993Y-65404629D01*
X116209994Y-65404632D01*
X116258558Y-65499942D01*
X116300213Y-65581694D01*
X116417019Y-65742464D01*
X116557536Y-65882981D01*
X116718306Y-65999787D01*
X116836832Y-66060179D01*
X116874780Y-66079515D01*
X116925576Y-66127490D01*
X116942371Y-66195311D01*
X116919833Y-66261446D01*
X116874780Y-66300485D01*
X116718305Y-66380213D01*
X116557533Y-66497021D01*
X116417021Y-66637533D01*
X116300213Y-66798305D01*
X116209994Y-66975367D01*
X116209993Y-66975370D01*
X116148587Y-67164362D01*
X116117500Y-67360639D01*
X116117500Y-67559360D01*
X116148587Y-67755637D01*
X116209993Y-67944629D01*
X116209994Y-67944632D01*
X116279063Y-68080185D01*
X116300213Y-68121694D01*
X116417019Y-68282464D01*
X116557536Y-68422981D01*
X116718306Y-68539787D01*
X116836832Y-68600179D01*
X116874780Y-68619515D01*
X116925576Y-68667490D01*
X116942371Y-68735311D01*
X116919833Y-68801446D01*
X116874780Y-68840485D01*
X116718305Y-68920213D01*
X116557533Y-69037021D01*
X116417021Y-69177533D01*
X116300213Y-69338305D01*
X116209994Y-69515367D01*
X116209993Y-69515370D01*
X116148587Y-69704362D01*
X116117500Y-69900639D01*
X116117500Y-70099360D01*
X116148587Y-70295637D01*
X116209993Y-70484629D01*
X116209994Y-70484632D01*
X116278190Y-70618472D01*
X116300213Y-70661694D01*
X116417019Y-70822464D01*
X116557536Y-70962981D01*
X116718306Y-71079787D01*
X116836832Y-71140179D01*
X116874780Y-71159515D01*
X116925576Y-71207490D01*
X116942371Y-71275311D01*
X116919833Y-71341446D01*
X116874780Y-71380485D01*
X116718305Y-71460213D01*
X116557533Y-71577021D01*
X116417021Y-71717533D01*
X116300213Y-71878305D01*
X116209994Y-72055367D01*
X116209993Y-72055370D01*
X116148587Y-72244362D01*
X116148587Y-72244364D01*
X116117500Y-72440639D01*
X116117500Y-72639361D01*
X116133043Y-72737498D01*
X116148587Y-72835637D01*
X116209993Y-73024629D01*
X116209994Y-73024632D01*
X116300213Y-73201694D01*
X116417019Y-73362464D01*
X116557536Y-73502981D01*
X116718306Y-73619787D01*
X116836832Y-73680179D01*
X116874780Y-73699515D01*
X116925576Y-73747490D01*
X116942371Y-73815311D01*
X116919833Y-73881446D01*
X116874780Y-73920485D01*
X116718305Y-74000213D01*
X116557533Y-74117021D01*
X116417021Y-74257533D01*
X116300213Y-74418305D01*
X116209994Y-74595367D01*
X116209993Y-74595370D01*
X116148587Y-74784362D01*
X116117500Y-74980639D01*
X116117500Y-75179360D01*
X116148587Y-75375637D01*
X116209993Y-75564629D01*
X116209994Y-75564632D01*
X116300213Y-75741694D01*
X116417019Y-75902464D01*
X116557536Y-76042981D01*
X116718306Y-76159787D01*
X116836832Y-76220179D01*
X116874780Y-76239515D01*
X116925576Y-76287490D01*
X116942371Y-76355311D01*
X116919833Y-76421446D01*
X116874780Y-76460485D01*
X116718305Y-76540213D01*
X116557533Y-76657021D01*
X116417021Y-76797533D01*
X116300213Y-76958305D01*
X116209994Y-77135367D01*
X116209993Y-77135370D01*
X116148587Y-77324362D01*
X116148587Y-77324364D01*
X116117500Y-77520639D01*
X116117500Y-77719361D01*
X116132320Y-77812932D01*
X116148587Y-77915637D01*
X116209993Y-78104629D01*
X116209994Y-78104632D01*
X116300213Y-78281694D01*
X116417019Y-78442464D01*
X116557536Y-78582981D01*
X116718306Y-78699787D01*
X116745349Y-78713566D01*
X116895367Y-78790005D01*
X116895370Y-78790006D01*
X116989866Y-78820709D01*
X117084364Y-78851413D01*
X117280639Y-78882500D01*
X117280640Y-78882500D01*
X117479360Y-78882500D01*
X117479361Y-78882500D01*
X117675636Y-78851413D01*
X117864632Y-78790005D01*
X118041694Y-78699787D01*
X118202464Y-78582981D01*
X118342981Y-78442464D01*
X118459787Y-78281694D01*
X118550005Y-78104632D01*
X118611413Y-77915636D01*
X118642500Y-77719361D01*
X118642500Y-77520639D01*
X118611413Y-77324364D01*
X118580709Y-77229866D01*
X118550006Y-77135370D01*
X118550005Y-77135367D01*
X118459786Y-76958305D01*
X118342981Y-76797536D01*
X118202464Y-76657019D01*
X118041694Y-76540213D01*
X117885218Y-76460484D01*
X117834423Y-76412510D01*
X117817628Y-76344689D01*
X117840165Y-76278554D01*
X117885218Y-76239515D01*
X118041694Y-76159787D01*
X118202464Y-76042981D01*
X118342981Y-75902464D01*
X118459787Y-75741694D01*
X118550005Y-75564632D01*
X118611413Y-75375636D01*
X118642500Y-75179361D01*
X118642500Y-74980639D01*
X118611413Y-74784364D01*
X118550005Y-74595368D01*
X118550005Y-74595367D01*
X118459786Y-74418305D01*
X118342981Y-74257536D01*
X118202464Y-74117019D01*
X118041694Y-74000213D01*
X117885218Y-73920484D01*
X117834423Y-73872510D01*
X117817628Y-73804689D01*
X117840165Y-73738554D01*
X117885218Y-73699515D01*
X118041694Y-73619787D01*
X118202464Y-73502981D01*
X118342981Y-73362464D01*
X118459787Y-73201694D01*
X118550005Y-73024632D01*
X118611413Y-72835636D01*
X118642500Y-72639361D01*
X118642500Y-72440639D01*
X118611413Y-72244364D01*
X118550005Y-72055368D01*
X118550005Y-72055367D01*
X118477024Y-71912135D01*
X118459787Y-71878306D01*
X118342981Y-71717536D01*
X118202464Y-71577019D01*
X118041694Y-71460213D01*
X117885218Y-71380484D01*
X117834423Y-71332510D01*
X117817628Y-71264689D01*
X117840165Y-71198554D01*
X117885218Y-71159515D01*
X118041694Y-71079787D01*
X118202464Y-70962981D01*
X118342981Y-70822464D01*
X118459787Y-70661694D01*
X118550005Y-70484632D01*
X118611413Y-70295636D01*
X118642500Y-70099361D01*
X118642500Y-69900639D01*
X118611413Y-69704364D01*
X118550005Y-69515368D01*
X118550005Y-69515367D01*
X118459786Y-69338305D01*
X118342981Y-69177536D01*
X118202464Y-69037019D01*
X118041694Y-68920213D01*
X117885218Y-68840484D01*
X117834423Y-68792510D01*
X117817628Y-68724689D01*
X117840165Y-68658554D01*
X117885218Y-68619515D01*
X118041694Y-68539787D01*
X118202464Y-68422981D01*
X118342981Y-68282464D01*
X118459787Y-68121694D01*
X118550005Y-67944632D01*
X118611413Y-67755636D01*
X118642500Y-67559361D01*
X118642500Y-67360639D01*
X118611413Y-67164364D01*
X118550005Y-66975368D01*
X118550005Y-66975367D01*
X118490967Y-66859500D01*
X118459787Y-66798306D01*
X118342981Y-66637536D01*
X118202464Y-66497019D01*
X118041694Y-66380213D01*
X117885218Y-66300484D01*
X117834423Y-66252510D01*
X117817628Y-66184689D01*
X117840165Y-66118554D01*
X117885218Y-66079515D01*
X118041694Y-65999787D01*
X118202464Y-65882981D01*
X118342981Y-65742464D01*
X118459787Y-65581694D01*
X118550005Y-65404632D01*
X118611413Y-65215636D01*
X118642500Y-65019361D01*
X118642500Y-64820639D01*
X118611413Y-64624364D01*
X118550005Y-64435368D01*
X118550005Y-64435367D01*
X118504035Y-64345149D01*
X118459787Y-64258306D01*
X118342981Y-64097536D01*
X118202464Y-63957019D01*
X118041694Y-63840213D01*
X117885218Y-63760484D01*
X117834423Y-63712510D01*
X117817628Y-63644689D01*
X117840165Y-63578554D01*
X117885218Y-63539515D01*
X118041694Y-63459787D01*
X118202464Y-63342981D01*
X118342981Y-63202464D01*
X118459787Y-63041694D01*
X118550005Y-62864632D01*
X118611413Y-62675636D01*
X118642500Y-62479361D01*
X118642500Y-62280639D01*
X118611413Y-62084364D01*
X118562592Y-61934108D01*
X118550006Y-61895370D01*
X118550005Y-61895367D01*
X118475936Y-61750000D01*
X118459787Y-61718306D01*
X118342981Y-61557536D01*
X118202464Y-61417019D01*
X118041694Y-61300213D01*
X117864632Y-61209994D01*
X117864629Y-61209993D01*
X117675637Y-61148587D01*
X117500398Y-61120832D01*
X117479361Y-61117500D01*
X117280639Y-61117500D01*
X117273366Y-61118652D01*
X117084362Y-61148587D01*
X116895370Y-61209993D01*
X116895367Y-61209994D01*
X116718305Y-61300213D01*
X116557533Y-61417021D01*
X116417021Y-61557533D01*
X116300213Y-61718305D01*
X116209994Y-61895367D01*
X116209993Y-61895370D01*
X116148587Y-62084362D01*
X116148587Y-62084364D01*
X116117500Y-62280639D01*
X110129874Y-62280639D01*
X109487589Y-61638354D01*
X109487588Y-61638352D01*
X109368717Y-61519481D01*
X109368716Y-61519480D01*
X109281904Y-61469360D01*
X109281904Y-61469359D01*
X109281900Y-61469358D01*
X109231785Y-61440423D01*
X109079057Y-61399499D01*
X108920943Y-61399499D01*
X108913347Y-61399499D01*
X108913331Y-61399500D01*
X94827387Y-61399500D01*
X94760348Y-61379815D01*
X94714593Y-61327011D01*
X94709457Y-61313820D01*
X94705220Y-61300780D01*
X94658962Y-61209995D01*
X94612287Y-61118390D01*
X94603889Y-61106831D01*
X94491971Y-60952786D01*
X94351366Y-60812181D01*
X94317881Y-60750858D01*
X94322865Y-60681166D01*
X94364737Y-60625233D01*
X94430201Y-60600816D01*
X94439047Y-60600500D01*
X122199903Y-60600500D01*
X122266942Y-60620185D01*
X122287584Y-60636819D01*
X129475139Y-67824374D01*
X129475149Y-67824385D01*
X129479479Y-67828715D01*
X129479480Y-67828716D01*
X129591284Y-67940520D01*
X129678095Y-67990639D01*
X129678097Y-67990641D01*
X129716151Y-68012611D01*
X129728215Y-68019577D01*
X129880943Y-68060500D01*
X131433270Y-68060500D01*
X131500309Y-68080185D01*
X131537191Y-68117866D01*
X131537349Y-68117752D01*
X131538127Y-68118823D01*
X131539000Y-68119715D01*
X131540210Y-68121690D01*
X131540213Y-68121694D01*
X131657019Y-68282464D01*
X131797536Y-68422981D01*
X131958306Y-68539787D01*
X132076832Y-68600179D01*
X132114780Y-68619515D01*
X132165576Y-68667490D01*
X132182371Y-68735311D01*
X132159833Y-68801446D01*
X132114780Y-68840485D01*
X131958305Y-68920213D01*
X131797533Y-69037021D01*
X131657021Y-69177533D01*
X131540213Y-69338305D01*
X131449994Y-69515367D01*
X131449993Y-69515370D01*
X131388587Y-69704362D01*
X131357500Y-69900639D01*
X131357500Y-70099360D01*
X131388587Y-70295637D01*
X131449993Y-70484629D01*
X131449994Y-70484632D01*
X131518190Y-70618472D01*
X131540213Y-70661694D01*
X131657019Y-70822464D01*
X131797536Y-70962981D01*
X131958306Y-71079787D01*
X132076832Y-71140179D01*
X132114780Y-71159515D01*
X132165576Y-71207490D01*
X132182371Y-71275311D01*
X132159833Y-71341446D01*
X132114780Y-71380485D01*
X131958305Y-71460213D01*
X131797533Y-71577021D01*
X131657021Y-71717533D01*
X131540213Y-71878305D01*
X131449994Y-72055367D01*
X131449993Y-72055370D01*
X131388587Y-72244362D01*
X131388587Y-72244364D01*
X131357500Y-72440639D01*
X131357500Y-72639361D01*
X131373043Y-72737498D01*
X131388587Y-72835637D01*
X131449993Y-73024629D01*
X131449994Y-73024632D01*
X131540213Y-73201694D01*
X131657019Y-73362464D01*
X131797536Y-73502981D01*
X131958306Y-73619787D01*
X132076832Y-73680179D01*
X132114780Y-73699515D01*
X132165576Y-73747490D01*
X132182371Y-73815311D01*
X132159833Y-73881446D01*
X132114780Y-73920485D01*
X131958305Y-74000213D01*
X131797533Y-74117021D01*
X131657021Y-74257533D01*
X131540213Y-74418305D01*
X131449994Y-74595367D01*
X131449993Y-74595370D01*
X131388587Y-74784362D01*
X131357500Y-74980639D01*
X131357500Y-75179360D01*
X131388587Y-75375637D01*
X131449993Y-75564629D01*
X131449994Y-75564632D01*
X131540213Y-75741694D01*
X131657019Y-75902464D01*
X131797536Y-76042981D01*
X131958306Y-76159787D01*
X132076832Y-76220179D01*
X132114780Y-76239515D01*
X132165576Y-76287490D01*
X132182371Y-76355311D01*
X132159833Y-76421446D01*
X132114780Y-76460485D01*
X131958305Y-76540213D01*
X131797533Y-76657021D01*
X131657021Y-76797533D01*
X131540213Y-76958305D01*
X131449994Y-77135367D01*
X131449993Y-77135370D01*
X131388587Y-77324362D01*
X131388587Y-77324364D01*
X131357500Y-77520639D01*
X131357500Y-77719361D01*
X131372320Y-77812932D01*
X131388587Y-77915637D01*
X131449993Y-78104629D01*
X131449994Y-78104632D01*
X131540213Y-78281694D01*
X131657019Y-78442464D01*
X131797536Y-78582981D01*
X131958306Y-78699787D01*
X131985349Y-78713566D01*
X132135367Y-78790005D01*
X132135370Y-78790006D01*
X132229866Y-78820709D01*
X132324364Y-78851413D01*
X132520639Y-78882500D01*
X132520640Y-78882500D01*
X132719360Y-78882500D01*
X132719361Y-78882500D01*
X132915636Y-78851413D01*
X133104632Y-78790005D01*
X133281694Y-78699787D01*
X133442464Y-78582981D01*
X133582981Y-78442464D01*
X133699787Y-78281694D01*
X133790005Y-78104632D01*
X133851413Y-77915636D01*
X133882500Y-77719361D01*
X133882500Y-77520639D01*
X133851413Y-77324364D01*
X133820709Y-77229866D01*
X133790006Y-77135370D01*
X133790005Y-77135367D01*
X133699786Y-76958305D01*
X133582981Y-76797536D01*
X133442464Y-76657019D01*
X133281694Y-76540213D01*
X133125218Y-76460484D01*
X133074423Y-76412510D01*
X133057628Y-76344689D01*
X133080165Y-76278554D01*
X133125218Y-76239515D01*
X133281694Y-76159787D01*
X133442464Y-76042981D01*
X133582981Y-75902464D01*
X133699787Y-75741694D01*
X133790005Y-75564632D01*
X133851413Y-75375636D01*
X133882500Y-75179361D01*
X133882500Y-74980639D01*
X133851413Y-74784364D01*
X133790005Y-74595368D01*
X133790005Y-74595367D01*
X133699786Y-74418305D01*
X133582981Y-74257536D01*
X133442464Y-74117019D01*
X133281694Y-74000213D01*
X133125218Y-73920484D01*
X133074423Y-73872510D01*
X133057628Y-73804689D01*
X133080165Y-73738554D01*
X133125218Y-73699515D01*
X133281694Y-73619787D01*
X133442464Y-73502981D01*
X133582981Y-73362464D01*
X133699787Y-73201694D01*
X133790005Y-73024632D01*
X133851413Y-72835636D01*
X133882500Y-72639361D01*
X133882500Y-72440639D01*
X133851413Y-72244364D01*
X133790005Y-72055368D01*
X133790005Y-72055367D01*
X133717024Y-71912135D01*
X133699787Y-71878306D01*
X133582981Y-71717536D01*
X133442464Y-71577019D01*
X133281694Y-71460213D01*
X133125218Y-71380484D01*
X133074423Y-71332510D01*
X133057628Y-71264689D01*
X133080165Y-71198554D01*
X133125218Y-71159515D01*
X133281694Y-71079787D01*
X133442464Y-70962981D01*
X133582981Y-70822464D01*
X133699787Y-70661694D01*
X133790005Y-70484632D01*
X133851413Y-70295636D01*
X133882500Y-70099361D01*
X133882500Y-69900639D01*
X133851413Y-69704364D01*
X133790005Y-69515368D01*
X133790005Y-69515367D01*
X133699786Y-69338305D01*
X133582981Y-69177536D01*
X133442464Y-69037019D01*
X133281694Y-68920213D01*
X133125218Y-68840484D01*
X133074423Y-68792510D01*
X133057628Y-68724689D01*
X133080165Y-68658554D01*
X133125218Y-68619515D01*
X133281694Y-68539787D01*
X133442464Y-68422981D01*
X133582981Y-68282464D01*
X133699787Y-68121694D01*
X133790005Y-67944632D01*
X133851413Y-67755636D01*
X133882500Y-67559361D01*
X133882500Y-67360639D01*
X133851413Y-67164364D01*
X133790005Y-66975368D01*
X133790005Y-66975367D01*
X133730967Y-66859500D01*
X133699787Y-66798306D01*
X133582981Y-66637536D01*
X133442464Y-66497019D01*
X133281694Y-66380213D01*
X133124667Y-66300203D01*
X133073872Y-66252229D01*
X133057077Y-66184408D01*
X133079614Y-66118273D01*
X133124669Y-66079234D01*
X133281422Y-65999364D01*
X133318716Y-65972268D01*
X132704095Y-65357647D01*
X132791571Y-65334208D01*
X132892930Y-65275689D01*
X132975689Y-65192930D01*
X133034208Y-65091571D01*
X133057647Y-65004094D01*
X133672268Y-65618715D01*
X133699362Y-65581425D01*
X133789542Y-65404437D01*
X133850924Y-65215523D01*
X133850924Y-65215520D01*
X133882000Y-65019321D01*
X133882000Y-64820678D01*
X133850924Y-64624479D01*
X133850924Y-64624476D01*
X133789542Y-64435562D01*
X133699358Y-64258567D01*
X133672268Y-64221283D01*
X133057647Y-64835904D01*
X133034208Y-64748429D01*
X132975689Y-64647070D01*
X132892930Y-64564311D01*
X132791571Y-64505792D01*
X132704094Y-64482352D01*
X133318716Y-63867731D01*
X133318715Y-63867730D01*
X133281432Y-63840641D01*
X133124668Y-63760765D01*
X133073872Y-63712790D01*
X133057077Y-63644969D01*
X133079615Y-63578834D01*
X133124667Y-63539796D01*
X133281694Y-63459787D01*
X133442464Y-63342981D01*
X133582981Y-63202464D01*
X133699787Y-63041694D01*
X133699789Y-63041689D01*
X133701000Y-63039715D01*
X133701656Y-63039121D01*
X133702651Y-63037752D01*
X133702938Y-63037960D01*
X133752810Y-62992837D01*
X133806730Y-62980500D01*
X134275500Y-62980500D01*
X134342539Y-63000185D01*
X134388294Y-63052989D01*
X134399500Y-63104500D01*
X134399500Y-80275500D01*
X134379815Y-80342539D01*
X134327011Y-80388294D01*
X134275500Y-80399500D01*
X119065098Y-80399500D01*
X119065082Y-80399499D01*
X119057486Y-80399499D01*
X118899372Y-80399499D01*
X118792016Y-80428265D01*
X118746639Y-80440424D01*
X118746638Y-80440425D01*
X118696525Y-80469359D01*
X118696524Y-80469360D01*
X118653118Y-80494420D01*
X118609714Y-80519479D01*
X118609711Y-80519481D01*
X118497907Y-80631286D01*
X113766013Y-85363181D01*
X113704690Y-85396666D01*
X113678332Y-85399500D01*
X112954068Y-85399500D01*
X112887029Y-85379815D01*
X112843583Y-85331795D01*
X112783343Y-85213567D01*
X112644517Y-85022490D01*
X112477510Y-84855483D01*
X112286433Y-84716657D01*
X112075996Y-84609433D01*
X111851368Y-84536446D01*
X111618097Y-84499500D01*
X111618092Y-84499500D01*
X111381908Y-84499500D01*
X111381903Y-84499500D01*
X111148631Y-84536446D01*
X110924003Y-84609433D01*
X110713566Y-84716657D01*
X110604550Y-84795862D01*
X110522490Y-84855483D01*
X110522488Y-84855485D01*
X110522487Y-84855485D01*
X110355485Y-85022487D01*
X110355485Y-85022488D01*
X110355483Y-85022490D01*
X110295862Y-85104550D01*
X110216657Y-85213566D01*
X110109433Y-85424003D01*
X110036446Y-85648631D01*
X109999500Y-85881902D01*
X109999500Y-86118097D01*
X110036446Y-86351368D01*
X110109433Y-86575996D01*
X110216657Y-86786433D01*
X110355483Y-86977510D01*
X110522490Y-87144517D01*
X110713567Y-87283343D01*
X110812991Y-87334002D01*
X110924003Y-87390566D01*
X110924005Y-87390566D01*
X110924008Y-87390568D01*
X111014215Y-87419878D01*
X111148631Y-87463553D01*
X111381903Y-87500500D01*
X111381908Y-87500500D01*
X111618097Y-87500500D01*
X111851368Y-87463553D01*
X112075992Y-87390568D01*
X112286433Y-87283343D01*
X112477510Y-87144517D01*
X112644517Y-86977510D01*
X112783343Y-86786433D01*
X112843583Y-86668204D01*
X112891558Y-86617409D01*
X112954068Y-86600500D01*
X113891760Y-86600500D01*
X113891776Y-86600501D01*
X113899372Y-86600501D01*
X114057483Y-86600501D01*
X114057486Y-86600501D01*
X114210214Y-86559577D01*
X114288722Y-86514250D01*
X114347145Y-86480520D01*
X114458949Y-86368716D01*
X114458949Y-86368714D01*
X114469153Y-86358511D01*
X114469156Y-86358506D01*
X119190845Y-81636819D01*
X119252168Y-81603334D01*
X119278526Y-81600500D01*
X135079055Y-81600500D01*
X135079057Y-81600500D01*
X135231784Y-81559577D01*
X135368716Y-81480520D01*
X135480520Y-81368716D01*
X135559577Y-81231784D01*
X135600500Y-81079057D01*
X135600500Y-62300943D01*
X135559577Y-62148216D01*
X135559573Y-62148209D01*
X135480524Y-62011290D01*
X135480518Y-62011282D01*
X135368717Y-61899481D01*
X135368709Y-61899475D01*
X135231790Y-61820426D01*
X135231786Y-61820424D01*
X135231784Y-61820423D01*
X135079057Y-61779500D01*
X135079056Y-61779500D01*
X133806730Y-61779500D01*
X133739691Y-61759815D01*
X133702808Y-61722133D01*
X133702651Y-61722248D01*
X133701872Y-61721176D01*
X133701000Y-61720285D01*
X133699789Y-61718309D01*
X133636563Y-61631286D01*
X133582981Y-61557536D01*
X133442464Y-61417019D01*
X133281694Y-61300213D01*
X133104632Y-61209994D01*
X133104629Y-61209993D01*
X132915637Y-61148587D01*
X132740398Y-61120832D01*
X132719361Y-61117500D01*
X132520639Y-61117500D01*
X132513366Y-61118652D01*
X132324362Y-61148587D01*
X132135370Y-61209993D01*
X132135367Y-61209994D01*
X131958305Y-61300213D01*
X131797533Y-61417021D01*
X131657021Y-61557533D01*
X131540213Y-61718305D01*
X131449994Y-61895367D01*
X131449993Y-61895370D01*
X131388587Y-62084362D01*
X131388587Y-62084364D01*
X131357500Y-62280639D01*
X131357500Y-62479361D01*
X131361487Y-62504534D01*
X131388587Y-62675637D01*
X131449993Y-62864629D01*
X131449994Y-62864632D01*
X131509033Y-62980500D01*
X131540213Y-63041694D01*
X131657019Y-63202464D01*
X131797536Y-63342981D01*
X131958306Y-63459787D01*
X132115332Y-63539796D01*
X132166127Y-63587769D01*
X132182922Y-63655590D01*
X132160385Y-63721725D01*
X132115332Y-63760764D01*
X131958566Y-63840641D01*
X131921283Y-63867729D01*
X131921282Y-63867730D01*
X132535906Y-64482352D01*
X132448429Y-64505792D01*
X132347070Y-64564311D01*
X132264311Y-64647070D01*
X132205792Y-64748429D01*
X132182352Y-64835905D01*
X131567730Y-64221282D01*
X131567729Y-64221283D01*
X131540643Y-64258564D01*
X131450457Y-64435562D01*
X131389075Y-64624476D01*
X131389075Y-64624479D01*
X131358000Y-64820678D01*
X131358000Y-65019321D01*
X131389075Y-65215520D01*
X131389075Y-65215523D01*
X131450457Y-65404437D01*
X131540641Y-65581432D01*
X131567730Y-65618715D01*
X131567731Y-65618716D01*
X132182352Y-65004094D01*
X132205792Y-65091571D01*
X132264311Y-65192930D01*
X132347070Y-65275689D01*
X132448429Y-65334208D01*
X132535905Y-65357647D01*
X131921283Y-65972268D01*
X131921283Y-65972269D01*
X131958567Y-65999358D01*
X132115331Y-66079234D01*
X132166127Y-66127209D01*
X132182922Y-66195030D01*
X132160384Y-66261165D01*
X132115331Y-66300204D01*
X131958305Y-66380213D01*
X131797533Y-66497021D01*
X131657021Y-66637533D01*
X131540210Y-66798309D01*
X131539000Y-66800285D01*
X131538343Y-66800878D01*
X131537349Y-66802248D01*
X131537061Y-66802039D01*
X131487190Y-66847163D01*
X131433270Y-66859500D01*
X130260097Y-66859500D01*
X130193058Y-66839815D01*
X130172416Y-66823181D01*
X123061416Y-59712181D01*
X123027931Y-59650858D01*
X123032915Y-59581166D01*
X123074787Y-59525233D01*
X123140251Y-59500816D01*
X123149097Y-59500500D01*
X133934108Y-59500500D01*
X133996249Y-59500500D01*
X134003736Y-59500726D01*
X134293796Y-59518271D01*
X134308657Y-59520075D01*
X134590798Y-59571780D01*
X134605335Y-59575363D01*
X134879172Y-59660695D01*
X134893163Y-59666000D01*
X135154743Y-59783727D01*
X135167989Y-59790680D01*
X135413465Y-59939075D01*
X135425776Y-59947573D01*
X135651573Y-60124473D01*
X135662781Y-60134403D01*
X135865596Y-60337218D01*
X135875526Y-60348426D01*
X136018972Y-60531522D01*
X136052422Y-60574217D01*
X136060926Y-60586537D01*
X136194822Y-60808028D01*
X136209316Y-60832004D01*
X136216275Y-60845263D01*
X136333997Y-61106831D01*
X136339306Y-61120832D01*
X136424635Y-61394663D01*
X136428219Y-61409201D01*
X136479923Y-61691340D01*
X136481728Y-61706205D01*
X136499274Y-61996263D01*
X136499500Y-62003750D01*
X136499500Y-85996249D01*
X136499274Y-86003736D01*
X136481728Y-86293794D01*
X136479923Y-86308659D01*
X136428219Y-86590798D01*
X136424635Y-86605336D01*
X136339306Y-86879167D01*
X136333997Y-86893168D01*
X136216275Y-87154736D01*
X136209316Y-87167995D01*
X136060928Y-87413459D01*
X136052422Y-87425782D01*
X135875526Y-87651573D01*
X135865596Y-87662781D01*
X135662781Y-87865596D01*
X135651573Y-87875526D01*
X135425782Y-88052422D01*
X135413459Y-88060928D01*
X135167995Y-88209316D01*
X135154736Y-88216275D01*
X134893168Y-88333997D01*
X134879167Y-88339306D01*
X134605336Y-88424635D01*
X134590798Y-88428219D01*
X134308659Y-88479923D01*
X134293794Y-88481728D01*
X134003736Y-88499274D01*
X133996249Y-88499500D01*
X77503751Y-88499500D01*
X77496264Y-88499274D01*
X77206205Y-88481728D01*
X77191340Y-88479923D01*
X76909201Y-88428219D01*
X76894663Y-88424635D01*
X76620832Y-88339306D01*
X76606831Y-88333997D01*
X76345263Y-88216275D01*
X76332004Y-88209316D01*
X76086540Y-88060928D01*
X76074217Y-88052422D01*
X75848426Y-87875526D01*
X75837218Y-87865596D01*
X75634403Y-87662781D01*
X75624473Y-87651573D01*
X75506115Y-87500500D01*
X75447573Y-87425776D01*
X75439075Y-87413465D01*
X75290680Y-87167989D01*
X75283727Y-87154743D01*
X75166000Y-86893163D01*
X75160693Y-86879167D01*
X75075364Y-86605336D01*
X75071780Y-86590798D01*
X75057752Y-86514250D01*
X75020075Y-86308657D01*
X75018271Y-86293794D01*
X75000726Y-86003736D01*
X75000500Y-85996249D01*
X75000500Y-71912135D01*
X77894500Y-71912135D01*
X77894500Y-77087870D01*
X77894501Y-77087876D01*
X77900908Y-77147483D01*
X77951202Y-77282328D01*
X77951206Y-77282335D01*
X78037452Y-77397544D01*
X78037455Y-77397547D01*
X78152664Y-77483793D01*
X78152671Y-77483797D01*
X78287517Y-77534091D01*
X78287515Y-77534091D01*
X78318756Y-77537450D01*
X78383307Y-77564188D01*
X78423155Y-77621581D01*
X78429500Y-77660739D01*
X78429500Y-81443330D01*
X78429499Y-81443348D01*
X78429499Y-81609054D01*
X78429498Y-81609054D01*
X78470423Y-81761785D01*
X78499358Y-81811900D01*
X78499359Y-81811904D01*
X78499360Y-81811904D01*
X78549479Y-81898714D01*
X78549481Y-81898717D01*
X78668349Y-82017585D01*
X78668354Y-82017589D01*
X83131284Y-86480520D01*
X83131286Y-86480521D01*
X83131290Y-86480524D01*
X83268209Y-86559573D01*
X83268212Y-86559575D01*
X83268216Y-86559577D01*
X83420943Y-86600501D01*
X83420945Y-86600501D01*
X83586654Y-86600501D01*
X83586670Y-86600500D01*
X98920943Y-86600500D01*
X100920943Y-86600500D01*
X105545932Y-86600500D01*
X105612971Y-86620185D01*
X105656416Y-86668203D01*
X105716657Y-86786433D01*
X105855483Y-86977510D01*
X106022490Y-87144517D01*
X106213567Y-87283343D01*
X106312991Y-87334002D01*
X106424003Y-87390566D01*
X106424005Y-87390566D01*
X106424008Y-87390568D01*
X106514215Y-87419878D01*
X106648631Y-87463553D01*
X106881903Y-87500500D01*
X106881908Y-87500500D01*
X107118097Y-87500500D01*
X107351368Y-87463553D01*
X107575992Y-87390568D01*
X107786433Y-87283343D01*
X107977510Y-87144517D01*
X108144517Y-86977510D01*
X108283343Y-86786433D01*
X108390568Y-86575992D01*
X108463553Y-86351368D01*
X108500500Y-86118097D01*
X108500500Y-85881902D01*
X108463553Y-85648631D01*
X108390566Y-85424003D01*
X108283342Y-85213566D01*
X108144517Y-85022490D01*
X107977510Y-84855483D01*
X107786433Y-84716657D01*
X107575996Y-84609433D01*
X107351368Y-84536446D01*
X107118097Y-84499500D01*
X107118092Y-84499500D01*
X106881908Y-84499500D01*
X106881903Y-84499500D01*
X106648631Y-84536446D01*
X106424003Y-84609433D01*
X106213566Y-84716657D01*
X106104550Y-84795862D01*
X106022490Y-84855483D01*
X106022488Y-84855485D01*
X106022487Y-84855485D01*
X105855485Y-85022487D01*
X105855485Y-85022488D01*
X105855483Y-85022490D01*
X105795862Y-85104550D01*
X105716657Y-85213566D01*
X105685100Y-85275500D01*
X105658855Y-85327011D01*
X105656417Y-85331795D01*
X105608442Y-85382591D01*
X105545932Y-85399500D01*
X101724500Y-85399500D01*
X101657461Y-85379815D01*
X101611706Y-85327011D01*
X101600500Y-85275500D01*
X101600500Y-79381902D01*
X105499500Y-79381902D01*
X105499500Y-79618097D01*
X105536446Y-79851368D01*
X105609433Y-80075996D01*
X105711086Y-80275500D01*
X105716657Y-80286433D01*
X105855483Y-80477510D01*
X106022490Y-80644517D01*
X106213567Y-80783343D01*
X106312991Y-80834002D01*
X106424003Y-80890566D01*
X106424005Y-80890566D01*
X106424008Y-80890568D01*
X106542926Y-80929207D01*
X106648631Y-80963553D01*
X106881903Y-81000500D01*
X106881908Y-81000500D01*
X107118097Y-81000500D01*
X107351368Y-80963553D01*
X107575992Y-80890568D01*
X107786433Y-80783343D01*
X107977510Y-80644517D01*
X108144517Y-80477510D01*
X108283343Y-80286433D01*
X108390568Y-80075992D01*
X108463553Y-79851368D01*
X108500500Y-79618097D01*
X108500500Y-79381902D01*
X109999500Y-79381902D01*
X109999500Y-79618097D01*
X110036446Y-79851368D01*
X110109433Y-80075996D01*
X110211086Y-80275500D01*
X110216657Y-80286433D01*
X110355483Y-80477510D01*
X110522490Y-80644517D01*
X110713567Y-80783343D01*
X110812991Y-80834002D01*
X110924003Y-80890566D01*
X110924005Y-80890566D01*
X110924008Y-80890568D01*
X111042926Y-80929207D01*
X111148631Y-80963553D01*
X111381903Y-81000500D01*
X111381908Y-81000500D01*
X111618097Y-81000500D01*
X111851368Y-80963553D01*
X112075992Y-80890568D01*
X112286433Y-80783343D01*
X112477510Y-80644517D01*
X112644517Y-80477510D01*
X112783343Y-80286433D01*
X112890568Y-80075992D01*
X112963553Y-79851368D01*
X113000500Y-79618097D01*
X113000500Y-79381902D01*
X112963553Y-79148631D01*
X112890566Y-78924003D01*
X112834002Y-78812991D01*
X112783343Y-78713567D01*
X112644517Y-78522490D01*
X112477510Y-78355483D01*
X112286433Y-78216657D01*
X112075996Y-78109433D01*
X111851368Y-78036446D01*
X111618097Y-77999500D01*
X111618092Y-77999500D01*
X111381908Y-77999500D01*
X111381903Y-77999500D01*
X111148631Y-78036446D01*
X110924003Y-78109433D01*
X110713566Y-78216657D01*
X110604550Y-78295862D01*
X110522490Y-78355483D01*
X110522488Y-78355485D01*
X110522487Y-78355485D01*
X110355485Y-78522487D01*
X110355485Y-78522488D01*
X110355483Y-78522490D01*
X110311536Y-78582978D01*
X110216657Y-78713566D01*
X110109433Y-78924003D01*
X110036446Y-79148631D01*
X109999500Y-79381902D01*
X108500500Y-79381902D01*
X108463553Y-79148631D01*
X108390566Y-78924003D01*
X108334002Y-78812991D01*
X108283343Y-78713567D01*
X108144517Y-78522490D01*
X107977510Y-78355483D01*
X107786433Y-78216657D01*
X107575996Y-78109433D01*
X107351368Y-78036446D01*
X107118097Y-77999500D01*
X107118092Y-77999500D01*
X106881908Y-77999500D01*
X106881903Y-77999500D01*
X106648631Y-78036446D01*
X106424003Y-78109433D01*
X106213566Y-78216657D01*
X106104550Y-78295862D01*
X106022490Y-78355483D01*
X106022488Y-78355485D01*
X106022487Y-78355485D01*
X105855485Y-78522487D01*
X105855485Y-78522488D01*
X105855483Y-78522490D01*
X105811536Y-78582978D01*
X105716657Y-78713566D01*
X105609433Y-78924003D01*
X105536446Y-79148631D01*
X105499500Y-79381902D01*
X101600500Y-79381902D01*
X101600500Y-77660738D01*
X101620185Y-77593699D01*
X101672989Y-77547944D01*
X101711247Y-77537448D01*
X101742483Y-77534091D01*
X101877331Y-77483796D01*
X101992546Y-77397546D01*
X102078796Y-77282331D01*
X102129091Y-77147483D01*
X102135500Y-77087873D01*
X102135499Y-74905513D01*
X105719500Y-74905513D01*
X105719500Y-75094486D01*
X105749059Y-75281118D01*
X105807454Y-75460836D01*
X105893240Y-75629199D01*
X106004310Y-75782073D01*
X106137927Y-75915690D01*
X106290801Y-76026760D01*
X106322631Y-76042978D01*
X106459163Y-76112545D01*
X106459165Y-76112545D01*
X106459168Y-76112547D01*
X106555497Y-76143846D01*
X106638881Y-76170940D01*
X106825514Y-76200500D01*
X106825519Y-76200500D01*
X107014486Y-76200500D01*
X107201118Y-76170940D01*
X107235446Y-76159786D01*
X107380832Y-76112547D01*
X107549199Y-76026760D01*
X107702073Y-75915690D01*
X107835690Y-75782073D01*
X107946760Y-75629199D01*
X108032547Y-75460832D01*
X108090940Y-75281118D01*
X108107057Y-75179360D01*
X108120500Y-75094486D01*
X108120500Y-74905513D01*
X110799500Y-74905513D01*
X110799500Y-75094486D01*
X110829059Y-75281118D01*
X110887454Y-75460836D01*
X110973240Y-75629199D01*
X111084310Y-75782073D01*
X111217927Y-75915690D01*
X111370801Y-76026760D01*
X111402631Y-76042978D01*
X111539163Y-76112545D01*
X111539165Y-76112545D01*
X111539168Y-76112547D01*
X111635497Y-76143846D01*
X111718881Y-76170940D01*
X111905514Y-76200500D01*
X111905519Y-76200500D01*
X112094486Y-76200500D01*
X112281118Y-76170940D01*
X112315446Y-76159786D01*
X112460832Y-76112547D01*
X112629199Y-76026760D01*
X112782073Y-75915690D01*
X112915690Y-75782073D01*
X113026760Y-75629199D01*
X113112547Y-75460832D01*
X113170940Y-75281118D01*
X113187057Y-75179360D01*
X113200500Y-75094486D01*
X113200500Y-74905513D01*
X113170940Y-74718881D01*
X113130808Y-74595370D01*
X113112547Y-74539168D01*
X113112545Y-74539165D01*
X113112545Y-74539163D01*
X113026759Y-74370800D01*
X112915690Y-74217927D01*
X112782073Y-74084310D01*
X112629199Y-73973240D01*
X112460836Y-73887454D01*
X112281118Y-73829059D01*
X112094486Y-73799500D01*
X112094481Y-73799500D01*
X111905519Y-73799500D01*
X111905514Y-73799500D01*
X111718881Y-73829059D01*
X111539163Y-73887454D01*
X111370800Y-73973240D01*
X111283579Y-74036610D01*
X111217927Y-74084310D01*
X111217925Y-74084312D01*
X111217924Y-74084312D01*
X111084312Y-74217924D01*
X111084312Y-74217925D01*
X111084310Y-74217927D01*
X111055532Y-74257536D01*
X110973240Y-74370800D01*
X110887454Y-74539163D01*
X110829059Y-74718881D01*
X110799500Y-74905513D01*
X108120500Y-74905513D01*
X108090940Y-74718881D01*
X108050808Y-74595370D01*
X108032547Y-74539168D01*
X108032545Y-74539165D01*
X108032545Y-74539163D01*
X107946759Y-74370800D01*
X107835690Y-74217927D01*
X107702073Y-74084310D01*
X107549199Y-73973240D01*
X107380836Y-73887454D01*
X107201118Y-73829059D01*
X107014486Y-73799500D01*
X107014481Y-73799500D01*
X106825519Y-73799500D01*
X106825514Y-73799500D01*
X106638881Y-73829059D01*
X106459163Y-73887454D01*
X106290800Y-73973240D01*
X106203579Y-74036610D01*
X106137927Y-74084310D01*
X106137925Y-74084312D01*
X106137924Y-74084312D01*
X106004312Y-74217924D01*
X106004312Y-74217925D01*
X106004310Y-74217927D01*
X105975532Y-74257536D01*
X105893240Y-74370800D01*
X105807454Y-74539163D01*
X105749059Y-74718881D01*
X105719500Y-74905513D01*
X102135499Y-74905513D01*
X102135499Y-74500000D01*
X102135499Y-71912129D01*
X102135498Y-71912123D01*
X102135497Y-71912116D01*
X102129091Y-71852517D01*
X102078796Y-71717669D01*
X102078795Y-71717668D01*
X102078793Y-71717664D01*
X101992547Y-71602455D01*
X101992544Y-71602452D01*
X101877335Y-71516206D01*
X101877327Y-71516202D01*
X101742482Y-71465908D01*
X101742483Y-71465908D01*
X101682883Y-71459501D01*
X101682881Y-71459500D01*
X101682873Y-71459500D01*
X101682864Y-71459500D01*
X100317129Y-71459500D01*
X100317123Y-71459501D01*
X100257516Y-71465908D01*
X100122671Y-71516202D01*
X100122664Y-71516206D01*
X100007455Y-71602452D01*
X100007452Y-71602455D01*
X99921206Y-71717664D01*
X99921202Y-71717671D01*
X99870908Y-71852517D01*
X99868136Y-71878305D01*
X99864501Y-71912123D01*
X99864500Y-71912135D01*
X99864500Y-77087870D01*
X99864501Y-77087876D01*
X99870908Y-77147483D01*
X99921202Y-77282328D01*
X99921206Y-77282335D01*
X100007452Y-77397544D01*
X100007455Y-77397547D01*
X100122664Y-77483793D01*
X100122671Y-77483797D01*
X100257517Y-77534091D01*
X100257515Y-77534091D01*
X100288756Y-77537450D01*
X100353307Y-77564188D01*
X100393155Y-77621581D01*
X100399500Y-77660739D01*
X100399500Y-85275500D01*
X100379815Y-85342539D01*
X100327011Y-85388294D01*
X100275500Y-85399500D01*
X83800098Y-85399500D01*
X83733059Y-85379815D01*
X83712417Y-85363181D01*
X79672815Y-81323579D01*
X83544972Y-81323579D01*
X83585793Y-81364400D01*
X84048514Y-81770196D01*
X84536774Y-82144851D01*
X85048486Y-82486766D01*
X85048511Y-82486782D01*
X85581496Y-82794501D01*
X86133472Y-83066705D01*
X86702067Y-83302225D01*
X86702078Y-83302229D01*
X87284852Y-83500055D01*
X87284860Y-83500057D01*
X87879345Y-83659349D01*
X87879363Y-83659353D01*
X88482952Y-83779414D01*
X88482963Y-83779416D01*
X89093139Y-83859747D01*
X89707287Y-83900000D01*
X90322713Y-83900000D01*
X90936860Y-83859747D01*
X91547036Y-83779416D01*
X91547047Y-83779414D01*
X92150636Y-83659353D01*
X92150654Y-83659349D01*
X92745139Y-83500057D01*
X92745147Y-83500055D01*
X93327921Y-83302229D01*
X93327932Y-83302225D01*
X93896527Y-83066705D01*
X94448503Y-82794501D01*
X94981488Y-82486782D01*
X94981513Y-82486766D01*
X95493225Y-82144851D01*
X95981485Y-81770196D01*
X96444207Y-81364400D01*
X96485027Y-81323579D01*
X90015000Y-74853553D01*
X83544972Y-81323579D01*
X79672815Y-81323579D01*
X79666819Y-81317583D01*
X79633334Y-81256260D01*
X79630500Y-81229902D01*
X79630500Y-77660738D01*
X79650185Y-77593699D01*
X79702989Y-77547944D01*
X79741247Y-77537448D01*
X79772483Y-77534091D01*
X79907331Y-77483796D01*
X80022546Y-77397546D01*
X80108796Y-77282331D01*
X80159091Y-77147483D01*
X80165500Y-77087873D01*
X80165499Y-74192287D01*
X80615000Y-74192287D01*
X80615000Y-74807712D01*
X80655252Y-75421860D01*
X80735583Y-76032036D01*
X80735585Y-76032047D01*
X80855646Y-76635636D01*
X80855650Y-76635654D01*
X81014942Y-77230139D01*
X81014944Y-77230147D01*
X81212770Y-77812921D01*
X81212774Y-77812932D01*
X81448294Y-78381527D01*
X81720498Y-78933503D01*
X82028217Y-79466488D01*
X82028233Y-79466513D01*
X82370148Y-79978225D01*
X82744803Y-80466485D01*
X83150606Y-80929214D01*
X83191419Y-80970027D01*
X89661446Y-74500000D01*
X89661446Y-74499999D01*
X90368553Y-74499999D01*
X90368553Y-74500000D01*
X96838579Y-80970027D01*
X96838580Y-80970027D01*
X96879400Y-80929207D01*
X97285196Y-80466485D01*
X97659851Y-79978225D01*
X98001766Y-79466513D01*
X98001782Y-79466488D01*
X98309501Y-78933503D01*
X98581705Y-78381527D01*
X98817225Y-77812932D01*
X98817229Y-77812921D01*
X99015055Y-77230147D01*
X99015057Y-77230139D01*
X99174349Y-76635654D01*
X99174353Y-76635636D01*
X99294414Y-76032047D01*
X99294416Y-76032036D01*
X99374747Y-75421860D01*
X99415000Y-74807712D01*
X99415000Y-74192287D01*
X99374747Y-73578139D01*
X99294416Y-72967963D01*
X99294414Y-72967952D01*
X99174353Y-72364363D01*
X99174349Y-72364345D01*
X99015057Y-71769860D01*
X99015055Y-71769852D01*
X98891378Y-71405513D01*
X105719500Y-71405513D01*
X105719500Y-71594486D01*
X105749059Y-71781118D01*
X105807454Y-71960836D01*
X105855621Y-72055368D01*
X105893240Y-72129199D01*
X106004310Y-72282073D01*
X106137927Y-72415690D01*
X106290801Y-72526760D01*
X106370347Y-72567290D01*
X106459163Y-72612545D01*
X106459165Y-72612545D01*
X106459168Y-72612547D01*
X106555497Y-72643846D01*
X106638881Y-72670940D01*
X106825514Y-72700500D01*
X106825519Y-72700500D01*
X107014486Y-72700500D01*
X107201118Y-72670940D01*
X107380832Y-72612547D01*
X107549199Y-72526760D01*
X107702073Y-72415690D01*
X107835690Y-72282073D01*
X107946760Y-72129199D01*
X108032547Y-71960832D01*
X108090940Y-71781118D01*
X108100990Y-71717664D01*
X108120500Y-71594486D01*
X108120500Y-71405513D01*
X108090940Y-71218881D01*
X108045745Y-71079787D01*
X108032547Y-71039168D01*
X108032545Y-71039165D01*
X108032545Y-71039163D01*
X107946759Y-70870800D01*
X107911642Y-70822466D01*
X107835690Y-70717927D01*
X107702073Y-70584310D01*
X107549199Y-70473240D01*
X107520500Y-70458617D01*
X107380836Y-70387454D01*
X107201118Y-70329059D01*
X107014486Y-70299500D01*
X107014481Y-70299500D01*
X106825519Y-70299500D01*
X106825514Y-70299500D01*
X106638881Y-70329059D01*
X106459163Y-70387454D01*
X106290800Y-70473240D01*
X106203579Y-70536610D01*
X106137927Y-70584310D01*
X106137925Y-70584312D01*
X106137924Y-70584312D01*
X106004312Y-70717924D01*
X106004312Y-70717925D01*
X106004310Y-70717927D01*
X105956610Y-70783579D01*
X105893240Y-70870800D01*
X105807454Y-71039163D01*
X105749059Y-71218881D01*
X105719500Y-71405513D01*
X98891378Y-71405513D01*
X98817229Y-71187078D01*
X98817225Y-71187067D01*
X98581705Y-70618472D01*
X98309501Y-70066496D01*
X98001782Y-69533511D01*
X98001766Y-69533486D01*
X97659851Y-69021774D01*
X97285196Y-68533514D01*
X96879393Y-68070785D01*
X96838580Y-68029972D01*
X90368553Y-74499999D01*
X89661446Y-74499999D01*
X83191419Y-68029972D01*
X83191418Y-68029972D01*
X83150628Y-68070762D01*
X83150601Y-68070791D01*
X82744803Y-68533514D01*
X82370148Y-69021774D01*
X82028233Y-69533486D01*
X82028217Y-69533511D01*
X81720498Y-70066496D01*
X81448294Y-70618472D01*
X81212774Y-71187067D01*
X81212770Y-71187078D01*
X81014944Y-71769852D01*
X81014942Y-71769860D01*
X80855650Y-72364345D01*
X80855646Y-72364363D01*
X80735585Y-72967952D01*
X80735583Y-72967963D01*
X80655252Y-73578139D01*
X80615000Y-74192287D01*
X80165499Y-74192287D01*
X80165499Y-71912128D01*
X80159091Y-71852517D01*
X80108796Y-71717669D01*
X80108795Y-71717668D01*
X80108793Y-71717664D01*
X80022547Y-71602455D01*
X80022544Y-71602452D01*
X79907335Y-71516206D01*
X79907328Y-71516202D01*
X79772482Y-71465908D01*
X79772483Y-71465908D01*
X79712883Y-71459501D01*
X79712881Y-71459500D01*
X79712873Y-71459500D01*
X79712864Y-71459500D01*
X78347129Y-71459500D01*
X78347123Y-71459501D01*
X78287516Y-71465908D01*
X78152671Y-71516202D01*
X78152664Y-71516206D01*
X78037455Y-71602452D01*
X78037452Y-71602455D01*
X77951206Y-71717664D01*
X77951202Y-71717671D01*
X77900908Y-71852517D01*
X77898136Y-71878305D01*
X77894501Y-71912123D01*
X77894500Y-71912135D01*
X75000500Y-71912135D01*
X75000500Y-67676417D01*
X83544972Y-67676417D01*
X83544972Y-67676418D01*
X90014999Y-74146446D01*
X96485027Y-67676419D01*
X96444214Y-67635606D01*
X95981485Y-67229803D01*
X95493225Y-66855148D01*
X94981513Y-66513233D01*
X94981488Y-66513217D01*
X94448503Y-66205498D01*
X93896527Y-65933294D01*
X93327932Y-65697774D01*
X93327921Y-65697770D01*
X92745147Y-65499944D01*
X92745139Y-65499942D01*
X92150654Y-65340650D01*
X92150636Y-65340646D01*
X91547047Y-65220585D01*
X91547036Y-65220583D01*
X90936860Y-65140252D01*
X90322713Y-65100000D01*
X89707287Y-65100000D01*
X89093139Y-65140252D01*
X88482963Y-65220583D01*
X88482952Y-65220585D01*
X87879363Y-65340646D01*
X87879345Y-65340650D01*
X87284860Y-65499942D01*
X87284852Y-65499944D01*
X86702078Y-65697770D01*
X86702067Y-65697774D01*
X86133472Y-65933294D01*
X85581496Y-66205498D01*
X85048511Y-66513217D01*
X85048486Y-66513233D01*
X84536774Y-66855148D01*
X84048514Y-67229803D01*
X83585791Y-67635601D01*
X83585762Y-67635628D01*
X83544972Y-67676417D01*
X75000500Y-67676417D01*
X75000500Y-62003750D01*
X75000726Y-61996263D01*
X75017308Y-61722133D01*
X75018271Y-61706201D01*
X75020076Y-61691339D01*
X75023902Y-61670463D01*
X75023902Y-61670462D01*
X75029787Y-61638352D01*
X75071780Y-61409197D01*
X75075364Y-61394663D01*
X75079991Y-61379815D01*
X75160696Y-61120822D01*
X75165998Y-61106841D01*
X75283731Y-60845249D01*
X75290676Y-60832016D01*
X75439080Y-60586526D01*
X75447567Y-60574230D01*
X75624480Y-60348417D01*
X75634395Y-60337226D01*
X75837226Y-60134395D01*
X75848417Y-60124480D01*
X76074230Y-59947567D01*
X76086526Y-59939080D01*
X76332016Y-59790676D01*
X76345249Y-59783731D01*
X76606841Y-59665998D01*
X76620822Y-59660696D01*
X76894668Y-59575362D01*
X76909197Y-59571780D01*
X77191344Y-59520075D01*
X77206201Y-59518271D01*
X77496264Y-59500726D01*
X77503751Y-59500500D01*
X77565892Y-59500500D01*
X89770902Y-59500500D01*
X89837941Y-59520185D01*
G37*
%TD.AperFunction*%
%TD*%
M02*
