%TF.GenerationSoftware,KiCad,Pcbnew,9.0.3*%
%TF.CreationDate,2025-08-02T05:50:16+03:00*%
%TF.ProjectId,LuminanceMeter,4c756d69-6e61-46e6-9365-4d657465722e,V0.1*%
%TF.SameCoordinates,Original*%
%TF.FileFunction,Copper,L1,Top*%
%TF.FilePolarity,Positive*%
%FSLAX46Y46*%
G04 Gerber Fmt 4.6, Leading zero omitted, Abs format (unit mm)*
G04 Created by KiCad (PCBNEW 9.0.3) date 2025-08-02 05:50:16*
%MOMM*%
%LPD*%
G01*
G04 APERTURE LIST*
G04 Aperture macros list*
%AMRoundRect*
0 Rectangle with rounded corners*
0 $1 Rounding radius*
0 $2 $3 $4 $5 $6 $7 $8 $9 X,Y pos of 4 corners*
0 Add a 4 corners polygon primitive as box body*
4,1,4,$2,$3,$4,$5,$6,$7,$8,$9,$2,$3,0*
0 Add four circle primitives for the rounded corners*
1,1,$1+$1,$2,$3*
1,1,$1+$1,$4,$5*
1,1,$1+$1,$6,$7*
1,1,$1+$1,$8,$9*
0 Add four rect primitives between the rounded corners*
20,1,$1+$1,$2,$3,$4,$5,0*
20,1,$1+$1,$4,$5,$6,$7,0*
20,1,$1+$1,$6,$7,$8,$9,0*
20,1,$1+$1,$8,$9,$2,$3,0*%
G04 Aperture macros list end*
%TA.AperFunction,ComponentPad*%
%ADD10O,1.600000X2.000000*%
%TD*%
%TA.AperFunction,ComponentPad*%
%ADD11C,1.400000*%
%TD*%
%TA.AperFunction,SMDPad,CuDef*%
%ADD12R,0.550000X0.250000*%
%TD*%
%TA.AperFunction,ComponentPad*%
%ADD13C,2.000000*%
%TD*%
%TA.AperFunction,SMDPad,CuDef*%
%ADD14RoundRect,0.152400X1.063600X0.609600X-1.063600X0.609600X-1.063600X-0.609600X1.063600X-0.609600X0*%
%TD*%
%TA.AperFunction,ComponentPad*%
%ADD15C,1.524000*%
%TD*%
%TA.AperFunction,SMDPad,CuDef*%
%ADD16RoundRect,0.152400X-1.063600X-0.609600X1.063600X-0.609600X1.063600X0.609600X-1.063600X0.609600X0*%
%TD*%
%TA.AperFunction,SMDPad,CuDef*%
%ADD17RoundRect,0.156350X-0.143650X0.138650X-0.143650X-0.138650X0.143650X-0.138650X0.143650X0.138650X0*%
%TD*%
%TA.AperFunction,ViaPad*%
%ADD18C,0.600000*%
%TD*%
%TA.AperFunction,Conductor*%
%ADD19C,0.200000*%
%TD*%
G04 APERTURE END LIST*
D10*
%TO.P,Brd1,1,GND*%
%TO.N,GND*%
X85880000Y-62000000D03*
%TO.P,Brd1,2,VCC*%
%TO.N,3V3*%
X88420000Y-62000000D03*
%TO.P,Brd1,3,SCL*%
%TO.N,SCL*%
X90960000Y-62000000D03*
%TO.P,Brd1,4,SDA*%
%TO.N,SDA*%
X93500000Y-62000000D03*
%TD*%
D11*
%TO.P,R2,1*%
%TO.N,SCL*%
X112000000Y-75000000D03*
%TO.P,R2,2*%
%TO.N,3V3*%
X106920000Y-75000000D03*
%TD*%
D12*
%TO.P,U2,1,VCC*%
%TO.N,3V3*%
X108625000Y-67500000D03*
%TO.P,U2,2,ADDR*%
%TO.N,unconnected-(U2-ADDR-Pad2)*%
X108625000Y-68000000D03*
%TO.P,U2,3,GND*%
%TO.N,GND*%
X108625000Y-68500000D03*
%TO.P,U2,4,SDA*%
%TO.N,SDA*%
X111375000Y-68500000D03*
%TO.P,U2,5,DVI*%
%TO.N,Reset*%
X111375000Y-68000000D03*
%TO.P,U2,6,SCL*%
%TO.N,SCL*%
X111375000Y-67500000D03*
%TD*%
D11*
%TO.P,R1,1*%
%TO.N,SDA*%
X112000000Y-71500000D03*
%TO.P,R1,2*%
%TO.N,3V3*%
X106920000Y-71500000D03*
%TD*%
D13*
%TO.P,SW1,1,1*%
%TO.N,Battery*%
X111500000Y-79500000D03*
X111500000Y-86000000D03*
%TO.P,SW1,2,2*%
%TO.N,Net-(BT1-+)*%
X107000000Y-79500000D03*
X107000000Y-86000000D03*
%TD*%
D14*
%TO.P,U1,1,GPIO26/ADC0/A0*%
%TO.N,unconnected-(U1-GPIO26{slash}ADC0{slash}A0-Pad1)*%
X116545000Y-62380000D03*
D15*
X117380000Y-62380000D03*
D14*
%TO.P,U1,2,GPIO27/ADC1/A1*%
%TO.N,unconnected-(U1-GPIO27{slash}ADC1{slash}A1-Pad2)*%
X116545000Y-64920000D03*
D15*
X117380000Y-64920000D03*
D14*
%TO.P,U1,3,GPIO28/ADC2/A2*%
%TO.N,unconnected-(U1-GPIO28{slash}ADC2{slash}A2-Pad3)*%
X116545000Y-67460000D03*
D15*
X117380000Y-67460000D03*
D14*
%TO.P,U1,4,GPIO29/ADC3/A3*%
%TO.N,Reset*%
X116545000Y-70000000D03*
D15*
X117380000Y-70000000D03*
D14*
%TO.P,U1,5,GPIO6/SDA*%
%TO.N,SDA*%
X116545000Y-72540000D03*
D15*
X117380000Y-72540000D03*
D14*
%TO.P,U1,6,GPIO7/SCL*%
%TO.N,SCL*%
X116545000Y-75080000D03*
D15*
X117380000Y-75080000D03*
D14*
%TO.P,U1,7,GPIO0/TX*%
%TO.N,unconnected-(U1-GPIO0{slash}TX-Pad7)*%
X116545000Y-77620000D03*
D15*
X117380000Y-77620000D03*
%TO.P,U1,8,GPIO1/RX*%
%TO.N,unconnected-(U1-GPIO1{slash}RX-Pad8)*%
X132620000Y-77620000D03*
D16*
X133455000Y-77620000D03*
D15*
%TO.P,U1,9,GPIO2/SCK*%
%TO.N,unconnected-(U1-GPIO2{slash}SCK-Pad9)*%
X132620000Y-75080000D03*
D16*
X133455000Y-75080000D03*
D15*
%TO.P,U1,10,GPIO4/MISO*%
%TO.N,unconnected-(U1-GPIO4{slash}MISO-Pad10)*%
X132620000Y-72540000D03*
D16*
X133455000Y-72540000D03*
D15*
%TO.P,U1,11,GPIO3/MOSI*%
%TO.N,unconnected-(U1-GPIO3{slash}MOSI-Pad11)*%
X132620000Y-70000000D03*
D16*
X133455000Y-70000000D03*
D15*
%TO.P,U1,12,3V3*%
%TO.N,3V3*%
X132620000Y-67460000D03*
D16*
X133455000Y-67460000D03*
D15*
%TO.P,U1,13,GND*%
%TO.N,GND*%
X132620000Y-64920000D03*
D16*
X133455000Y-64920000D03*
D15*
%TO.P,U1,14,VBUS*%
%TO.N,Battery*%
X132620000Y-62380000D03*
D16*
X133455000Y-62380000D03*
%TD*%
D17*
%TO.P,C1,1*%
%TO.N,3V3*%
X106000000Y-67595000D03*
%TO.P,C1,2*%
%TO.N,GND*%
X106000000Y-68405000D03*
%TD*%
%TO.P,C2,1*%
%TO.N,Reset*%
X113500000Y-67595000D03*
%TO.P,C2,2*%
%TO.N,GND*%
X113500000Y-68405000D03*
%TD*%
D18*
%TO.N,GND*%
X98500000Y-81500000D03*
%TD*%
D19*
%TO.N,GND*%
X85880000Y-60844508D02*
X85879454Y-60843962D01*
X113500000Y-69687626D02*
X115289374Y-71477000D01*
X126063000Y-71477000D02*
X132620000Y-64920000D01*
X113500000Y-68405000D02*
X113500000Y-69687626D01*
X115289374Y-71477000D02*
X126063000Y-71477000D01*
X98500000Y-81500000D02*
X99500000Y-81500000D01*
X99500000Y-81500000D02*
X103500000Y-77500000D01*
X85880000Y-60844508D02*
X85880000Y-62000000D01*
X108625000Y-76375000D02*
X108625000Y-68500000D01*
X103500000Y-77500000D02*
X107500000Y-77500000D01*
X107500000Y-77500000D02*
X108625000Y-76375000D01*
%TO.N,3V3*%
X88420000Y-65920000D02*
X97500000Y-75000000D01*
X106920000Y-71500000D02*
X107000000Y-71420000D01*
X106000000Y-67595000D02*
X106095000Y-67500000D01*
X107000000Y-71420000D02*
X107000000Y-67500000D01*
X88420000Y-62000000D02*
X88420000Y-65920000D01*
X106920000Y-75000000D02*
X106920000Y-71500000D01*
X106095000Y-67500000D02*
X108625000Y-67500000D01*
X97500000Y-75000000D02*
X106920000Y-75000000D01*
%TO.N,Battery*%
X111500000Y-86000000D02*
X111500000Y-79500000D01*
%TO.N,Net-(BT1-+)*%
X107000000Y-86000000D02*
X107000000Y-79500000D01*
%TO.N,Reset*%
X115000000Y-70500000D02*
X116045000Y-70500000D01*
X116045000Y-70500000D02*
X116545000Y-70000000D01*
X113500000Y-67595000D02*
X114095000Y-67595000D01*
X112000000Y-68000000D02*
X112405000Y-67595000D01*
X115000000Y-68500000D02*
X115000000Y-70500000D01*
X114095000Y-67595000D02*
X115000000Y-68500000D01*
X111375000Y-68000000D02*
X112000000Y-68000000D01*
X112405000Y-67595000D02*
X113500000Y-67595000D01*
%TO.N,SDA*%
X112000000Y-71500000D02*
X113500000Y-73000000D01*
X111375000Y-70875000D02*
X112000000Y-71500000D01*
X113500000Y-73000000D02*
X116920000Y-73000000D01*
X111375000Y-68500000D02*
X111375000Y-70875000D01*
X116920000Y-73000000D02*
X117380000Y-72540000D01*
%TO.N,SCL*%
X112580000Y-75580000D02*
X116880000Y-75580000D01*
X110000000Y-75000000D02*
X112000000Y-75000000D01*
X92261000Y-60699000D02*
X105699000Y-60699000D01*
X105699000Y-60699000D02*
X110000000Y-65000000D01*
X110000000Y-67500000D02*
X110000000Y-75000000D01*
X116880000Y-75580000D02*
X117380000Y-75080000D01*
X110000000Y-67500000D02*
X111375000Y-67500000D01*
X112000000Y-75000000D02*
X112580000Y-75580000D01*
X90960000Y-62000000D02*
X92261000Y-60699000D01*
X110000000Y-65000000D02*
X110000000Y-67500000D01*
%TD*%
%TA.AperFunction,Conductor*%
%TO.N,GND*%
G36*
X105465942Y-61319185D02*
G01*
X105486584Y-61335819D01*
X109363181Y-65212416D01*
X109396666Y-65273739D01*
X109399500Y-65300097D01*
X109399500Y-66875998D01*
X109379815Y-66943037D01*
X109327011Y-66988792D01*
X109257853Y-66998736D01*
X109201189Y-66975265D01*
X109142331Y-66931204D01*
X109142328Y-66931202D01*
X109007486Y-66880910D01*
X109007485Y-66880909D01*
X109007483Y-66880909D01*
X108947873Y-66874500D01*
X108947863Y-66874500D01*
X108302129Y-66874500D01*
X108302123Y-66874501D01*
X108242518Y-66880908D01*
X108223547Y-66887984D01*
X108213632Y-66891682D01*
X108170300Y-66899500D01*
X106526358Y-66899500D01*
X106463237Y-66882232D01*
X106461000Y-66880909D01*
X106406590Y-66848731D01*
X106406589Y-66848730D01*
X106406588Y-66848730D01*
X106406585Y-66848729D01*
X106247225Y-66802430D01*
X106247219Y-66802429D01*
X106209991Y-66799500D01*
X105790020Y-66799500D01*
X105789998Y-66799501D01*
X105752782Y-66802429D01*
X105593409Y-66848731D01*
X105450564Y-66933209D01*
X105450556Y-66933215D01*
X105333215Y-67050556D01*
X105333209Y-67050564D01*
X105248730Y-67193411D01*
X105248729Y-67193414D01*
X105202430Y-67352774D01*
X105202429Y-67352780D01*
X105199500Y-67390001D01*
X105199500Y-67799979D01*
X105199501Y-67800001D01*
X105202430Y-67837222D01*
X105239931Y-67966301D01*
X105239931Y-68035491D01*
X105205210Y-68154998D01*
X105205212Y-68155000D01*
X105297411Y-68155000D01*
X105364450Y-68174685D01*
X105385087Y-68191314D01*
X105450562Y-68256789D01*
X105593410Y-68341269D01*
X105635437Y-68353479D01*
X105752774Y-68387569D01*
X105752777Y-68387569D01*
X105752779Y-68387570D01*
X105790009Y-68390500D01*
X105934153Y-68390499D01*
X105943482Y-68390852D01*
X106135345Y-68405353D01*
X106163827Y-68416107D01*
X106193039Y-68424685D01*
X106196197Y-68428329D01*
X106200711Y-68430034D01*
X106218862Y-68454487D01*
X106238794Y-68477489D01*
X106239978Y-68482932D01*
X106242356Y-68486136D01*
X106243111Y-68497335D01*
X106250000Y-68529000D01*
X106250000Y-69196240D01*
X106253569Y-69198920D01*
X106310774Y-69199083D01*
X106369444Y-69237025D01*
X106398288Y-69300663D01*
X106399500Y-69317960D01*
X106399500Y-70341867D01*
X106379815Y-70408906D01*
X106331796Y-70452351D01*
X106290803Y-70473238D01*
X106214364Y-70528775D01*
X106137927Y-70584310D01*
X106137925Y-70584312D01*
X106137924Y-70584312D01*
X106004312Y-70717924D01*
X106004312Y-70717925D01*
X106004310Y-70717927D01*
X105994238Y-70731790D01*
X105893240Y-70870800D01*
X105807454Y-71039163D01*
X105749059Y-71218881D01*
X105719500Y-71405513D01*
X105719500Y-71594486D01*
X105749059Y-71781118D01*
X105807454Y-71960836D01*
X105855621Y-72055368D01*
X105893240Y-72129199D01*
X106004310Y-72282073D01*
X106137927Y-72415690D01*
X106268386Y-72510474D01*
X106311051Y-72565803D01*
X106319500Y-72610791D01*
X106319500Y-73889207D01*
X106299815Y-73956246D01*
X106268386Y-73989525D01*
X106137925Y-74084311D01*
X106004312Y-74217924D01*
X106004312Y-74217925D01*
X106004310Y-74217927D01*
X105909526Y-74348386D01*
X105854196Y-74391051D01*
X105809208Y-74399500D01*
X97800097Y-74399500D01*
X97733058Y-74379815D01*
X97712416Y-74363181D01*
X92004236Y-68655001D01*
X105205210Y-68655001D01*
X105249192Y-68806385D01*
X105249193Y-68806388D01*
X105333607Y-68949125D01*
X105333614Y-68949134D01*
X105450865Y-69066385D01*
X105450874Y-69066392D01*
X105593609Y-69150805D01*
X105750000Y-69196240D01*
X105750000Y-68655000D01*
X105205212Y-68655000D01*
X105205210Y-68655001D01*
X92004236Y-68655001D01*
X89056819Y-65707584D01*
X89023334Y-65646261D01*
X89020500Y-65619903D01*
X89020500Y-63429601D01*
X89040185Y-63362562D01*
X89088206Y-63319116D01*
X89101610Y-63312287D01*
X89267219Y-63191966D01*
X89411966Y-63047219D01*
X89411968Y-63047215D01*
X89411971Y-63047213D01*
X89532284Y-62881614D01*
X89532286Y-62881611D01*
X89532287Y-62881610D01*
X89579516Y-62788917D01*
X89627489Y-62738123D01*
X89695310Y-62721328D01*
X89761445Y-62743865D01*
X89800485Y-62788919D01*
X89847715Y-62881614D01*
X89968028Y-63047213D01*
X90112786Y-63191971D01*
X90267749Y-63304556D01*
X90278390Y-63312287D01*
X90359499Y-63353614D01*
X90460776Y-63405218D01*
X90460778Y-63405218D01*
X90460781Y-63405220D01*
X90535818Y-63429601D01*
X90655465Y-63468477D01*
X90756557Y-63484488D01*
X90857648Y-63500500D01*
X90857649Y-63500500D01*
X91062351Y-63500500D01*
X91062352Y-63500500D01*
X91264534Y-63468477D01*
X91459219Y-63405220D01*
X91641610Y-63312287D01*
X91734590Y-63244732D01*
X91807213Y-63191971D01*
X91807215Y-63191968D01*
X91807219Y-63191966D01*
X91951966Y-63047219D01*
X91951968Y-63047215D01*
X91951971Y-63047213D01*
X92072284Y-62881614D01*
X92072286Y-62881611D01*
X92072287Y-62881610D01*
X92119516Y-62788917D01*
X92167489Y-62738123D01*
X92235310Y-62721328D01*
X92301445Y-62743865D01*
X92340485Y-62788919D01*
X92387715Y-62881614D01*
X92508028Y-63047213D01*
X92652786Y-63191971D01*
X92807749Y-63304556D01*
X92818390Y-63312287D01*
X92899499Y-63353614D01*
X93000776Y-63405218D01*
X93000778Y-63405218D01*
X93000781Y-63405220D01*
X93075818Y-63429601D01*
X93195465Y-63468477D01*
X93296557Y-63484488D01*
X93397648Y-63500500D01*
X93397649Y-63500500D01*
X93602351Y-63500500D01*
X93602352Y-63500500D01*
X93804534Y-63468477D01*
X93999219Y-63405220D01*
X94181610Y-63312287D01*
X94274590Y-63244732D01*
X94347213Y-63191971D01*
X94347215Y-63191968D01*
X94347219Y-63191966D01*
X94491966Y-63047219D01*
X94491968Y-63047215D01*
X94491971Y-63047213D01*
X94544732Y-62974590D01*
X94612287Y-62881610D01*
X94705220Y-62699219D01*
X94768477Y-62504534D01*
X94800500Y-62302352D01*
X94800500Y-61697648D01*
X94768477Y-61495466D01*
X94768475Y-61495462D01*
X94768475Y-61495457D01*
X94757545Y-61461817D01*
X94755550Y-61391976D01*
X94791631Y-61332144D01*
X94854332Y-61301316D01*
X94875476Y-61299500D01*
X105398903Y-61299500D01*
X105465942Y-61319185D01*
G37*
%TD.AperFunction*%
%TA.AperFunction,Conductor*%
G36*
X112904949Y-68215185D02*
G01*
X112925591Y-68231819D01*
X112950556Y-68256784D01*
X112950560Y-68256787D01*
X112950562Y-68256789D01*
X113093410Y-68341269D01*
X113135437Y-68353479D01*
X113252774Y-68387569D01*
X113252777Y-68387569D01*
X113252779Y-68387570D01*
X113290009Y-68390500D01*
X113434153Y-68390499D01*
X113443482Y-68390852D01*
X113635345Y-68405353D01*
X113663827Y-68416107D01*
X113693039Y-68424685D01*
X113696197Y-68428329D01*
X113700711Y-68430034D01*
X113718862Y-68454487D01*
X113738794Y-68477489D01*
X113739978Y-68482932D01*
X113742356Y-68486136D01*
X113743111Y-68497335D01*
X113750000Y-68529000D01*
X113750000Y-69196239D01*
X113906390Y-69150805D01*
X114049125Y-69066392D01*
X114049134Y-69066385D01*
X114166385Y-68949134D01*
X114166392Y-68949125D01*
X114168767Y-68945110D01*
X114219835Y-68897425D01*
X114288577Y-68884920D01*
X114353167Y-68911565D01*
X114393098Y-68968900D01*
X114399500Y-69008229D01*
X114399500Y-70579057D01*
X114436710Y-70717925D01*
X114440423Y-70731783D01*
X114440426Y-70731790D01*
X114519475Y-70868709D01*
X114519479Y-70868714D01*
X114519480Y-70868716D01*
X114631284Y-70980520D01*
X114631286Y-70980521D01*
X114631290Y-70980524D01*
X114732866Y-71039168D01*
X114768216Y-71059577D01*
X114920943Y-71100500D01*
X114998093Y-71100500D01*
X115014648Y-71105194D01*
X115030809Y-71104894D01*
X115053405Y-71116184D01*
X115063181Y-71118956D01*
X115074232Y-71125771D01*
X115078053Y-71129592D01*
X115135969Y-71163844D01*
X115136962Y-71164456D01*
X115159581Y-71189599D01*
X115182679Y-71214338D01*
X115182892Y-71215512D01*
X115183691Y-71216400D01*
X115189128Y-71249798D01*
X115195182Y-71283079D01*
X115194726Y-71284182D01*
X115194919Y-71285362D01*
X115181428Y-71316418D01*
X115168536Y-71347669D01*
X115167440Y-71348618D01*
X115167081Y-71349446D01*
X115164464Y-71351197D01*
X115134996Y-71376732D01*
X115078053Y-71410408D01*
X115078047Y-71410412D01*
X114961412Y-71527047D01*
X114961405Y-71527056D01*
X114877435Y-71669042D01*
X114877434Y-71669045D01*
X114831413Y-71827447D01*
X114831412Y-71827453D01*
X114828500Y-71864458D01*
X114828500Y-72275500D01*
X114808815Y-72342539D01*
X114756011Y-72388294D01*
X114704500Y-72399500D01*
X113800097Y-72399500D01*
X113733058Y-72379815D01*
X113712416Y-72363181D01*
X113210066Y-71860831D01*
X113176581Y-71799508D01*
X113175274Y-71753752D01*
X113200500Y-71594486D01*
X113200500Y-71405513D01*
X113170940Y-71218881D01*
X113112545Y-71039163D01*
X113067290Y-70950347D01*
X113026760Y-70870801D01*
X112915690Y-70717927D01*
X112782073Y-70584310D01*
X112629199Y-70473240D01*
X112578350Y-70447331D01*
X112460836Y-70387454D01*
X112281118Y-70329059D01*
X112094489Y-70299500D01*
X112089770Y-70299129D01*
X112024482Y-70274245D01*
X111983012Y-70218013D01*
X111975500Y-70175511D01*
X111975500Y-69065955D01*
X111995185Y-68998916D01*
X112002495Y-68989844D01*
X112002231Y-68989646D01*
X112007546Y-68982546D01*
X112093796Y-68867331D01*
X112144091Y-68732483D01*
X112146744Y-68707811D01*
X112150499Y-68672886D01*
X112150677Y-68669566D01*
X112150855Y-68669575D01*
X112150856Y-68669569D01*
X112150977Y-68669582D01*
X112152693Y-68669673D01*
X112154308Y-68663948D01*
X112153651Y-68655001D01*
X112705210Y-68655001D01*
X112749192Y-68806385D01*
X112749193Y-68806388D01*
X112833607Y-68949125D01*
X112833614Y-68949134D01*
X112950865Y-69066385D01*
X112950874Y-69066392D01*
X113093609Y-69150805D01*
X113250000Y-69196240D01*
X113250000Y-68655000D01*
X112705212Y-68655000D01*
X112705210Y-68655001D01*
X112153651Y-68655001D01*
X112153282Y-68649979D01*
X112163602Y-68630990D01*
X112169469Y-68610186D01*
X112180629Y-68599662D01*
X112186647Y-68588590D01*
X112206389Y-68575371D01*
X112214860Y-68567384D01*
X112226519Y-68560987D01*
X112231785Y-68559577D01*
X112281904Y-68530639D01*
X112368716Y-68480520D01*
X112480520Y-68368716D01*
X112480521Y-68368713D01*
X112617417Y-68231817D01*
X112678740Y-68198334D01*
X112705097Y-68195500D01*
X112837910Y-68195500D01*
X112904949Y-68215185D01*
G37*
%TD.AperFunction*%
%TA.AperFunction,Conductor*%
G36*
X134003736Y-59500726D02*
G01*
X134293796Y-59518271D01*
X134308659Y-59520076D01*
X134590798Y-59571780D01*
X134605335Y-59575363D01*
X134879172Y-59660695D01*
X134893163Y-59666000D01*
X135154743Y-59783727D01*
X135167989Y-59790680D01*
X135413465Y-59939075D01*
X135425776Y-59947573D01*
X135618421Y-60098500D01*
X135651573Y-60124473D01*
X135662781Y-60134403D01*
X135865596Y-60337218D01*
X135875526Y-60348426D01*
X136018972Y-60531522D01*
X136052422Y-60574217D01*
X136060928Y-60586540D01*
X136209316Y-60832004D01*
X136216275Y-60845263D01*
X136333997Y-61106831D01*
X136339306Y-61120832D01*
X136424635Y-61394663D01*
X136428219Y-61409201D01*
X136479923Y-61691340D01*
X136481728Y-61706205D01*
X136499274Y-61996263D01*
X136499500Y-62003750D01*
X136499500Y-85996249D01*
X136499274Y-86003736D01*
X136481728Y-86293794D01*
X136479923Y-86308659D01*
X136428219Y-86590798D01*
X136424635Y-86605336D01*
X136339306Y-86879167D01*
X136333997Y-86893168D01*
X136216275Y-87154736D01*
X136209316Y-87167995D01*
X136060928Y-87413459D01*
X136052422Y-87425782D01*
X135875526Y-87651573D01*
X135865596Y-87662781D01*
X135662781Y-87865596D01*
X135651573Y-87875526D01*
X135425782Y-88052422D01*
X135413459Y-88060928D01*
X135167995Y-88209316D01*
X135154736Y-88216275D01*
X134893168Y-88333997D01*
X134879167Y-88339306D01*
X134605336Y-88424635D01*
X134590798Y-88428219D01*
X134308659Y-88479923D01*
X134293794Y-88481728D01*
X134003736Y-88499274D01*
X133996249Y-88499500D01*
X77503751Y-88499500D01*
X77496264Y-88499274D01*
X77206205Y-88481728D01*
X77191340Y-88479923D01*
X76909201Y-88428219D01*
X76894663Y-88424635D01*
X76620832Y-88339306D01*
X76606831Y-88333997D01*
X76345263Y-88216275D01*
X76332004Y-88209316D01*
X76086540Y-88060928D01*
X76074217Y-88052422D01*
X75848426Y-87875526D01*
X75837218Y-87865596D01*
X75634403Y-87662781D01*
X75624473Y-87651573D01*
X75506115Y-87500500D01*
X75447573Y-87425776D01*
X75439075Y-87413465D01*
X75290680Y-87167989D01*
X75283727Y-87154743D01*
X75166000Y-86893163D01*
X75160693Y-86879167D01*
X75075364Y-86605336D01*
X75071780Y-86590798D01*
X75020076Y-86308659D01*
X75018271Y-86293794D01*
X75000726Y-86003736D01*
X75000500Y-85996249D01*
X75000500Y-79381902D01*
X105499500Y-79381902D01*
X105499500Y-79618097D01*
X105536446Y-79851368D01*
X105609433Y-80075996D01*
X105716657Y-80286433D01*
X105855483Y-80477510D01*
X106022490Y-80644517D01*
X106165797Y-80748636D01*
X106213568Y-80783344D01*
X106288177Y-80821358D01*
X106331794Y-80843582D01*
X106382590Y-80891556D01*
X106399500Y-80954067D01*
X106399500Y-84545931D01*
X106379815Y-84612970D01*
X106331796Y-84656415D01*
X106213568Y-84716655D01*
X106079896Y-84813774D01*
X106022490Y-84855483D01*
X106022488Y-84855485D01*
X106022487Y-84855485D01*
X105855485Y-85022487D01*
X105855485Y-85022488D01*
X105855483Y-85022490D01*
X105795862Y-85104550D01*
X105716657Y-85213566D01*
X105609433Y-85424003D01*
X105536446Y-85648631D01*
X105499500Y-85881902D01*
X105499500Y-86118097D01*
X105536446Y-86351368D01*
X105609433Y-86575996D01*
X105716657Y-86786433D01*
X105855483Y-86977510D01*
X106022490Y-87144517D01*
X106213567Y-87283343D01*
X106312991Y-87334002D01*
X106424003Y-87390566D01*
X106424005Y-87390566D01*
X106424008Y-87390568D01*
X106514215Y-87419878D01*
X106648631Y-87463553D01*
X106881903Y-87500500D01*
X106881908Y-87500500D01*
X107118097Y-87500500D01*
X107351368Y-87463553D01*
X107575992Y-87390568D01*
X107786433Y-87283343D01*
X107977510Y-87144517D01*
X108144517Y-86977510D01*
X108283343Y-86786433D01*
X108390568Y-86575992D01*
X108463553Y-86351368D01*
X108500500Y-86118097D01*
X108500500Y-85881902D01*
X108463553Y-85648631D01*
X108390566Y-85424003D01*
X108283342Y-85213566D01*
X108144517Y-85022490D01*
X107977510Y-84855483D01*
X107881971Y-84786070D01*
X107786431Y-84716655D01*
X107668204Y-84656415D01*
X107617409Y-84608441D01*
X107600500Y-84545931D01*
X107600500Y-80954067D01*
X107620185Y-80887028D01*
X107668205Y-80843582D01*
X107786433Y-80783343D01*
X107977510Y-80644517D01*
X108144517Y-80477510D01*
X108283343Y-80286433D01*
X108390568Y-80075992D01*
X108463553Y-79851368D01*
X108500500Y-79618097D01*
X108500500Y-79381902D01*
X109999500Y-79381902D01*
X109999500Y-79618097D01*
X110036446Y-79851368D01*
X110109433Y-80075996D01*
X110216657Y-80286433D01*
X110355483Y-80477510D01*
X110522490Y-80644517D01*
X110665797Y-80748636D01*
X110713568Y-80783344D01*
X110788177Y-80821358D01*
X110831794Y-80843582D01*
X110882590Y-80891556D01*
X110899500Y-80954067D01*
X110899500Y-84545931D01*
X110879815Y-84612970D01*
X110831796Y-84656415D01*
X110713568Y-84716655D01*
X110579896Y-84813774D01*
X110522490Y-84855483D01*
X110522488Y-84855485D01*
X110522487Y-84855485D01*
X110355485Y-85022487D01*
X110355485Y-85022488D01*
X110355483Y-85022490D01*
X110295862Y-85104550D01*
X110216657Y-85213566D01*
X110109433Y-85424003D01*
X110036446Y-85648631D01*
X109999500Y-85881902D01*
X109999500Y-86118097D01*
X110036446Y-86351368D01*
X110109433Y-86575996D01*
X110216657Y-86786433D01*
X110355483Y-86977510D01*
X110522490Y-87144517D01*
X110713567Y-87283343D01*
X110812991Y-87334002D01*
X110924003Y-87390566D01*
X110924005Y-87390566D01*
X110924008Y-87390568D01*
X111014215Y-87419878D01*
X111148631Y-87463553D01*
X111381903Y-87500500D01*
X111381908Y-87500500D01*
X111618097Y-87500500D01*
X111851368Y-87463553D01*
X112075992Y-87390568D01*
X112286433Y-87283343D01*
X112477510Y-87144517D01*
X112644517Y-86977510D01*
X112783343Y-86786433D01*
X112890568Y-86575992D01*
X112963553Y-86351368D01*
X113000500Y-86118097D01*
X113000500Y-85881902D01*
X112963553Y-85648631D01*
X112890566Y-85424003D01*
X112783342Y-85213566D01*
X112644517Y-85022490D01*
X112477510Y-84855483D01*
X112381971Y-84786070D01*
X112286431Y-84716655D01*
X112168204Y-84656415D01*
X112117409Y-84608441D01*
X112100500Y-84545931D01*
X112100500Y-80954067D01*
X112120185Y-80887028D01*
X112168205Y-80843582D01*
X112286433Y-80783343D01*
X112477510Y-80644517D01*
X112644517Y-80477510D01*
X112783343Y-80286433D01*
X112890568Y-80075992D01*
X112963553Y-79851368D01*
X113000500Y-79618097D01*
X113000500Y-79381902D01*
X112963553Y-79148631D01*
X112890566Y-78924003D01*
X112801700Y-78749595D01*
X112783343Y-78713567D01*
X112644517Y-78522490D01*
X112477510Y-78355483D01*
X112286433Y-78216657D01*
X112075996Y-78109433D01*
X111851368Y-78036446D01*
X111618097Y-77999500D01*
X111618092Y-77999500D01*
X111381908Y-77999500D01*
X111381903Y-77999500D01*
X111148631Y-78036446D01*
X110924003Y-78109433D01*
X110713566Y-78216657D01*
X110605013Y-78295526D01*
X110522490Y-78355483D01*
X110522488Y-78355485D01*
X110522487Y-78355485D01*
X110355485Y-78522487D01*
X110355485Y-78522488D01*
X110355483Y-78522490D01*
X110295862Y-78604550D01*
X110216657Y-78713566D01*
X110109433Y-78924003D01*
X110036446Y-79148631D01*
X109999500Y-79381902D01*
X108500500Y-79381902D01*
X108463553Y-79148631D01*
X108390566Y-78924003D01*
X108301700Y-78749595D01*
X108283343Y-78713567D01*
X108144517Y-78522490D01*
X107977510Y-78355483D01*
X107786433Y-78216657D01*
X107575996Y-78109433D01*
X107351368Y-78036446D01*
X107118097Y-77999500D01*
X107118092Y-77999500D01*
X106881908Y-77999500D01*
X106881903Y-77999500D01*
X106648631Y-78036446D01*
X106424003Y-78109433D01*
X106213566Y-78216657D01*
X106105013Y-78295526D01*
X106022490Y-78355483D01*
X106022488Y-78355485D01*
X106022487Y-78355485D01*
X105855485Y-78522487D01*
X105855485Y-78522488D01*
X105855483Y-78522490D01*
X105795862Y-78604550D01*
X105716657Y-78713566D01*
X105609433Y-78924003D01*
X105536446Y-79148631D01*
X105499500Y-79381902D01*
X75000500Y-79381902D01*
X75000500Y-62003750D01*
X75000726Y-61996263D01*
X75018271Y-61706205D01*
X75019306Y-61697682D01*
X84580000Y-61697682D01*
X84580000Y-61750000D01*
X85446988Y-61750000D01*
X85414075Y-61807007D01*
X85380000Y-61934174D01*
X85380000Y-62065826D01*
X85414075Y-62192993D01*
X85446988Y-62250000D01*
X84580000Y-62250000D01*
X84580000Y-62302317D01*
X84612009Y-62504417D01*
X84675244Y-62699031D01*
X84768140Y-62881349D01*
X84888417Y-63046894D01*
X84888417Y-63046895D01*
X85033104Y-63191582D01*
X85198650Y-63311859D01*
X85380968Y-63404754D01*
X85575578Y-63467988D01*
X85630000Y-63476607D01*
X85630000Y-62433012D01*
X85687007Y-62465925D01*
X85814174Y-62500000D01*
X85945826Y-62500000D01*
X86072993Y-62465925D01*
X86130000Y-62433012D01*
X86130000Y-63476606D01*
X86184421Y-63467988D01*
X86379031Y-63404754D01*
X86561349Y-63311859D01*
X86726894Y-63191582D01*
X86726895Y-63191582D01*
X86871582Y-63046895D01*
X86871582Y-63046894D01*
X86991861Y-62881347D01*
X87039234Y-62788371D01*
X87087208Y-62737575D01*
X87155028Y-62720779D01*
X87221164Y-62743316D01*
X87260203Y-62788369D01*
X87307713Y-62881611D01*
X87428028Y-63047213D01*
X87428034Y-63047219D01*
X87572781Y-63191966D01*
X87738390Y-63312287D01*
X87751793Y-63319116D01*
X87802589Y-63367088D01*
X87819500Y-63429601D01*
X87819500Y-65833330D01*
X87819499Y-65833348D01*
X87819499Y-65999054D01*
X87819498Y-65999054D01*
X87860423Y-66151786D01*
X87876473Y-66179583D01*
X87876474Y-66179588D01*
X87876476Y-66179588D01*
X87914455Y-66245371D01*
X87939479Y-66288714D01*
X87939481Y-66288717D01*
X88058349Y-66407585D01*
X88058355Y-66407590D01*
X97015139Y-75364374D01*
X97015149Y-75364385D01*
X97019479Y-75368715D01*
X97019480Y-75368716D01*
X97131284Y-75480520D01*
X97212873Y-75527625D01*
X97212874Y-75527626D01*
X97268209Y-75559574D01*
X97268210Y-75559574D01*
X97268215Y-75559577D01*
X97420943Y-75600500D01*
X105809208Y-75600500D01*
X105876247Y-75620185D01*
X105909524Y-75651612D01*
X106004310Y-75782073D01*
X106137927Y-75915690D01*
X106290801Y-76026760D01*
X106370347Y-76067290D01*
X106459163Y-76112545D01*
X106459165Y-76112545D01*
X106459168Y-76112547D01*
X106555497Y-76143846D01*
X106638881Y-76170940D01*
X106825514Y-76200500D01*
X106825519Y-76200500D01*
X107014486Y-76200500D01*
X107201118Y-76170940D01*
X107201121Y-76170939D01*
X107380832Y-76112547D01*
X107549199Y-76026760D01*
X107702073Y-75915690D01*
X107835690Y-75782073D01*
X107946760Y-75629199D01*
X108032547Y-75460832D01*
X108090940Y-75281118D01*
X108107057Y-75179360D01*
X108120500Y-75094486D01*
X108120500Y-74905513D01*
X108090940Y-74718881D01*
X108050808Y-74595370D01*
X108032547Y-74539168D01*
X108032545Y-74539165D01*
X108032545Y-74539163D01*
X107970964Y-74418305D01*
X107946760Y-74370801D01*
X107835690Y-74217927D01*
X107702073Y-74084310D01*
X107650175Y-74046604D01*
X107571614Y-73989525D01*
X107528948Y-73934194D01*
X107520500Y-73889207D01*
X107520500Y-72610791D01*
X107540185Y-72543752D01*
X107571612Y-72510475D01*
X107702073Y-72415690D01*
X107835690Y-72282073D01*
X107946760Y-72129199D01*
X108032547Y-71960832D01*
X108090940Y-71781118D01*
X108097793Y-71737850D01*
X108120500Y-71594486D01*
X108120500Y-71405513D01*
X108090940Y-71218881D01*
X108032545Y-71039163D01*
X107987290Y-70950347D01*
X107946760Y-70870801D01*
X107835690Y-70717927D01*
X107702073Y-70584310D01*
X107651613Y-70547648D01*
X107608948Y-70492318D01*
X107600500Y-70447331D01*
X107600500Y-68224500D01*
X107620185Y-68157461D01*
X107672989Y-68111706D01*
X107724500Y-68100500D01*
X107730336Y-68100500D01*
X107732539Y-68101147D01*
X107734765Y-68100579D01*
X107765909Y-68110945D01*
X107797375Y-68120185D01*
X107798877Y-68121919D01*
X107801058Y-68122645D01*
X107821653Y-68148204D01*
X107843130Y-68172989D01*
X107843906Y-68175819D01*
X107844898Y-68177050D01*
X107853626Y-68211248D01*
X107856619Y-68239093D01*
X107856619Y-68265599D01*
X107850000Y-68327169D01*
X107850000Y-68375000D01*
X107850051Y-68375051D01*
X107854261Y-68376287D01*
X107858729Y-68375316D01*
X107887483Y-68386042D01*
X107916915Y-68394685D01*
X107921103Y-68398584D01*
X107924192Y-68399737D01*
X107949147Y-68424695D01*
X107950644Y-68426695D01*
X107975058Y-68492161D01*
X107960202Y-68560433D01*
X107910794Y-68609836D01*
X107851373Y-68625000D01*
X107850000Y-68625000D01*
X107850000Y-68672844D01*
X107856401Y-68732372D01*
X107856403Y-68732379D01*
X107906645Y-68867086D01*
X107906649Y-68867093D01*
X107992809Y-68982187D01*
X107992812Y-68982190D01*
X108107906Y-69068350D01*
X108107913Y-69068354D01*
X108242620Y-69118596D01*
X108242627Y-69118598D01*
X108302155Y-69124999D01*
X108302172Y-69125000D01*
X108500000Y-69125000D01*
X108500000Y-68749499D01*
X108502550Y-68740813D01*
X108501262Y-68731852D01*
X108512240Y-68707811D01*
X108519685Y-68682460D01*
X108526525Y-68676532D01*
X108530287Y-68668296D01*
X108552521Y-68654006D01*
X108572489Y-68636705D01*
X108583003Y-68634417D01*
X108589065Y-68630522D01*
X108623996Y-68625499D01*
X108626001Y-68625499D01*
X108693039Y-68645184D01*
X108738794Y-68697988D01*
X108750000Y-68749499D01*
X108750000Y-69125000D01*
X108947828Y-69125000D01*
X108947844Y-69124999D01*
X109007372Y-69118598D01*
X109007379Y-69118596D01*
X109142086Y-69068354D01*
X109142089Y-69068352D01*
X109201188Y-69024111D01*
X109266652Y-68999693D01*
X109334926Y-69014544D01*
X109384331Y-69063949D01*
X109399500Y-69123377D01*
X109399500Y-75079057D01*
X109426377Y-75179361D01*
X109440423Y-75231783D01*
X109440426Y-75231790D01*
X109519475Y-75368709D01*
X109519478Y-75368713D01*
X109519480Y-75368716D01*
X109631284Y-75480520D01*
X109631286Y-75480521D01*
X109631290Y-75480524D01*
X109768209Y-75559573D01*
X109768216Y-75559577D01*
X109920943Y-75600500D01*
X110079057Y-75600500D01*
X110889208Y-75600500D01*
X110956247Y-75620185D01*
X110989524Y-75651612D01*
X111084310Y-75782073D01*
X111217927Y-75915690D01*
X111370801Y-76026760D01*
X111450347Y-76067290D01*
X111539163Y-76112545D01*
X111539165Y-76112545D01*
X111539168Y-76112547D01*
X111635497Y-76143846D01*
X111718881Y-76170940D01*
X111905514Y-76200500D01*
X111905519Y-76200500D01*
X112094486Y-76200500D01*
X112198168Y-76184077D01*
X112281118Y-76170940D01*
X112329408Y-76155248D01*
X112399248Y-76153252D01*
X112399483Y-76153314D01*
X112500943Y-76180501D01*
X112500946Y-76180501D01*
X112666653Y-76180501D01*
X112666669Y-76180500D01*
X114998093Y-76180500D01*
X115014648Y-76185194D01*
X115030809Y-76184894D01*
X115053405Y-76196184D01*
X115063181Y-76198956D01*
X115074232Y-76205771D01*
X115078053Y-76209592D01*
X115135969Y-76243844D01*
X115136962Y-76244456D01*
X115159581Y-76269599D01*
X115182679Y-76294338D01*
X115182892Y-76295512D01*
X115183691Y-76296400D01*
X115189128Y-76329798D01*
X115195182Y-76363079D01*
X115194726Y-76364182D01*
X115194919Y-76365362D01*
X115181428Y-76396418D01*
X115168536Y-76427669D01*
X115167440Y-76428618D01*
X115167081Y-76429446D01*
X115164464Y-76431197D01*
X115134996Y-76456732D01*
X115078053Y-76490408D01*
X115078047Y-76490412D01*
X114961412Y-76607047D01*
X114961405Y-76607056D01*
X114877435Y-76749042D01*
X114877434Y-76749045D01*
X114831413Y-76907447D01*
X114831412Y-76907453D01*
X114828500Y-76944458D01*
X114828500Y-78295541D01*
X114831412Y-78332546D01*
X114831413Y-78332552D01*
X114877434Y-78490954D01*
X114877435Y-78490957D01*
X114877436Y-78490959D01*
X114896218Y-78522718D01*
X114961405Y-78632943D01*
X114961412Y-78632952D01*
X115078047Y-78749587D01*
X115078051Y-78749590D01*
X115078053Y-78749592D01*
X115220041Y-78833564D01*
X115261816Y-78845701D01*
X115378447Y-78879586D01*
X115378450Y-78879586D01*
X115378452Y-78879587D01*
X115415466Y-78882500D01*
X115415474Y-78882500D01*
X117674526Y-78882500D01*
X117674534Y-78882500D01*
X117711548Y-78879587D01*
X117711550Y-78879586D01*
X117711552Y-78879586D01*
X117753323Y-78867449D01*
X117869959Y-78833564D01*
X118011947Y-78749592D01*
X118108148Y-78653389D01*
X118122939Y-78640758D01*
X118202464Y-78582981D01*
X118342981Y-78442464D01*
X118459787Y-78281694D01*
X118550005Y-78104632D01*
X118611413Y-77915636D01*
X118642500Y-77719361D01*
X118642500Y-77520639D01*
X118611413Y-77324364D01*
X118550005Y-77135368D01*
X118550005Y-77135367D01*
X118459786Y-76958305D01*
X118342981Y-76797536D01*
X118202464Y-76657019D01*
X118122937Y-76599239D01*
X118116175Y-76593960D01*
X118112000Y-76590461D01*
X118011947Y-76490408D01*
X117946259Y-76451560D01*
X117938477Y-76445038D01*
X117924510Y-76424073D01*
X117907321Y-76405663D01*
X117905471Y-76395492D01*
X117899740Y-76386890D01*
X117899324Y-76361702D01*
X117894817Y-76336921D01*
X117898758Y-76327366D01*
X117898588Y-76317030D01*
X117911856Y-76295616D01*
X117921462Y-76272332D01*
X117931874Y-76263309D01*
X117935389Y-76257638D01*
X117942127Y-76254425D01*
X117955004Y-76243268D01*
X118011947Y-76209592D01*
X118108148Y-76113389D01*
X118122939Y-76100758D01*
X118202464Y-76042981D01*
X118342981Y-75902464D01*
X118459787Y-75741694D01*
X118550005Y-75564632D01*
X118611413Y-75375636D01*
X118642500Y-75179361D01*
X118642500Y-74980639D01*
X118611413Y-74784364D01*
X118550005Y-74595368D01*
X118550005Y-74595367D01*
X118459786Y-74418305D01*
X118342981Y-74257536D01*
X118202464Y-74117019D01*
X118122937Y-74059239D01*
X118116175Y-74053960D01*
X118112000Y-74050461D01*
X118011947Y-73950408D01*
X117946259Y-73911560D01*
X117938477Y-73905038D01*
X117924510Y-73884073D01*
X117907321Y-73865663D01*
X117905471Y-73855492D01*
X117899740Y-73846890D01*
X117899324Y-73821702D01*
X117894817Y-73796921D01*
X117898758Y-73787366D01*
X117898588Y-73777030D01*
X117911856Y-73755616D01*
X117921462Y-73732332D01*
X117931874Y-73723309D01*
X117935389Y-73717638D01*
X117942127Y-73714425D01*
X117955004Y-73703268D01*
X118011947Y-73669592D01*
X118108148Y-73573389D01*
X118122939Y-73560758D01*
X118124570Y-73559573D01*
X118202464Y-73502981D01*
X118342981Y-73362464D01*
X118459787Y-73201694D01*
X118550005Y-73024632D01*
X118611413Y-72835636D01*
X118642500Y-72639361D01*
X118642500Y-72440639D01*
X118611413Y-72244364D01*
X118550005Y-72055368D01*
X118550005Y-72055367D01*
X118459786Y-71878305D01*
X118342981Y-71717536D01*
X118202464Y-71577019D01*
X118122937Y-71519239D01*
X118116175Y-71513960D01*
X118112000Y-71510461D01*
X118011947Y-71410408D01*
X117946259Y-71371560D01*
X117938477Y-71365038D01*
X117924510Y-71344073D01*
X117907321Y-71325663D01*
X117905471Y-71315492D01*
X117899740Y-71306890D01*
X117899324Y-71281702D01*
X117894817Y-71256921D01*
X117898758Y-71247366D01*
X117898588Y-71237030D01*
X117911856Y-71215616D01*
X117921462Y-71192332D01*
X117931874Y-71183309D01*
X117935389Y-71177638D01*
X117942127Y-71174425D01*
X117955004Y-71163268D01*
X118011947Y-71129592D01*
X118108148Y-71033389D01*
X118122939Y-71020758D01*
X118202464Y-70962981D01*
X118342981Y-70822464D01*
X118459787Y-70661694D01*
X118550005Y-70484632D01*
X118611413Y-70295636D01*
X118642500Y-70099361D01*
X118642500Y-69900639D01*
X118611413Y-69704364D01*
X118550005Y-69515368D01*
X118550005Y-69515367D01*
X118459786Y-69338305D01*
X118342981Y-69177536D01*
X118202464Y-69037019D01*
X118122937Y-68979239D01*
X118116175Y-68973960D01*
X118112000Y-68970461D01*
X118011947Y-68870408D01*
X117946259Y-68831560D01*
X117938477Y-68825038D01*
X117924510Y-68804073D01*
X117907321Y-68785663D01*
X117905471Y-68775492D01*
X117899740Y-68766890D01*
X117899324Y-68741702D01*
X117894817Y-68716921D01*
X117898758Y-68707366D01*
X117898588Y-68697030D01*
X117911856Y-68675616D01*
X117921462Y-68652332D01*
X117931874Y-68643309D01*
X117935389Y-68637638D01*
X117942127Y-68634425D01*
X117955004Y-68623268D01*
X117962067Y-68619091D01*
X118011947Y-68589592D01*
X118108148Y-68493389D01*
X118122939Y-68480758D01*
X118123268Y-68480519D01*
X118202464Y-68422981D01*
X118342981Y-68282464D01*
X118459787Y-68121694D01*
X118550005Y-67944632D01*
X118611413Y-67755636D01*
X118642500Y-67559361D01*
X118642500Y-67360639D01*
X118611413Y-67164364D01*
X118576978Y-67058382D01*
X118550006Y-66975370D01*
X118550005Y-66975367D01*
X118501876Y-66880910D01*
X118459787Y-66798306D01*
X118342981Y-66637536D01*
X118202464Y-66497019D01*
X118122937Y-66439239D01*
X118116175Y-66433960D01*
X118112000Y-66430461D01*
X118011947Y-66330408D01*
X117946259Y-66291560D01*
X117938477Y-66285038D01*
X117924510Y-66264073D01*
X117907321Y-66245663D01*
X117905471Y-66235492D01*
X117899740Y-66226890D01*
X117899324Y-66201702D01*
X117894817Y-66176921D01*
X117898758Y-66167366D01*
X117898588Y-66157030D01*
X117911856Y-66135616D01*
X117921462Y-66112332D01*
X117931874Y-66103309D01*
X117935389Y-66097638D01*
X117942127Y-66094425D01*
X117955004Y-66083268D01*
X117955498Y-66082976D01*
X118011947Y-66049592D01*
X118108148Y-65953389D01*
X118122939Y-65940758D01*
X118202464Y-65882981D01*
X118342981Y-65742464D01*
X118459787Y-65581694D01*
X118550005Y-65404632D01*
X118611413Y-65215636D01*
X118642500Y-65019361D01*
X118642500Y-64820639D01*
X118611413Y-64624364D01*
X118550005Y-64435368D01*
X118550005Y-64435367D01*
X118459786Y-64258305D01*
X118449762Y-64244508D01*
X118342981Y-64097536D01*
X118202464Y-63957019D01*
X118122938Y-63899240D01*
X118116175Y-63893960D01*
X118112000Y-63890461D01*
X118011947Y-63790408D01*
X117946259Y-63751560D01*
X117938477Y-63745038D01*
X117924510Y-63724073D01*
X117907321Y-63705663D01*
X117905471Y-63695492D01*
X117899740Y-63686890D01*
X117899324Y-63661702D01*
X117894817Y-63636921D01*
X117898758Y-63627366D01*
X117898588Y-63617030D01*
X117911856Y-63595616D01*
X117921462Y-63572332D01*
X117931874Y-63563309D01*
X117935389Y-63557638D01*
X117942127Y-63554425D01*
X117955004Y-63543268D01*
X118011947Y-63509592D01*
X118108148Y-63413389D01*
X118122939Y-63400758D01*
X118202464Y-63342981D01*
X118342981Y-63202464D01*
X118459787Y-63041694D01*
X118550005Y-62864632D01*
X118611413Y-62675636D01*
X118642500Y-62479361D01*
X118642500Y-62280639D01*
X131357500Y-62280639D01*
X131357500Y-62479361D01*
X131361487Y-62504534D01*
X131388587Y-62675637D01*
X131449993Y-62864629D01*
X131449994Y-62864632D01*
X131540213Y-63041694D01*
X131657019Y-63202464D01*
X131657021Y-63202466D01*
X131797539Y-63342984D01*
X131877060Y-63400758D01*
X131883786Y-63406007D01*
X131887979Y-63409518D01*
X131988053Y-63509592D01*
X132054208Y-63548716D01*
X132061975Y-63555220D01*
X132075962Y-63576197D01*
X132093170Y-63594627D01*
X132095015Y-63604773D01*
X132100736Y-63613353D01*
X132101161Y-63638564D01*
X132105673Y-63663369D01*
X132101740Y-63672900D01*
X132101915Y-63683212D01*
X132088643Y-63704649D01*
X132079028Y-63727958D01*
X132068643Y-63736956D01*
X132065137Y-63742620D01*
X132058391Y-63745838D01*
X132045487Y-63757021D01*
X131988370Y-63790800D01*
X131988357Y-63790810D01*
X131916360Y-63862806D01*
X131916360Y-63862807D01*
X132535905Y-64482352D01*
X132448429Y-64505792D01*
X132347070Y-64564311D01*
X132264311Y-64647070D01*
X132205792Y-64748429D01*
X132182352Y-64835905D01*
X131567730Y-64221282D01*
X131567729Y-64221283D01*
X131540643Y-64258564D01*
X131450457Y-64435562D01*
X131389075Y-64624476D01*
X131389075Y-64624479D01*
X131358000Y-64820678D01*
X131358000Y-65019321D01*
X131389075Y-65215520D01*
X131389075Y-65215523D01*
X131450457Y-65404437D01*
X131540641Y-65581432D01*
X131567730Y-65618715D01*
X131567731Y-65618716D01*
X132182352Y-65004094D01*
X132205792Y-65091571D01*
X132264311Y-65192930D01*
X132347070Y-65275689D01*
X132448429Y-65334208D01*
X132535904Y-65357647D01*
X131916360Y-65977191D01*
X131988360Y-66049192D01*
X131988364Y-66049195D01*
X132045486Y-66082977D01*
X132093169Y-66134046D01*
X132105673Y-66202788D01*
X132079028Y-66267377D01*
X132061975Y-66284779D01*
X132054204Y-66291285D01*
X131988053Y-66330408D01*
X131887990Y-66430469D01*
X131883784Y-66433992D01*
X131882598Y-66434509D01*
X131877061Y-66439239D01*
X131797536Y-66497018D01*
X131657021Y-66637533D01*
X131540213Y-66798305D01*
X131449994Y-66975367D01*
X131449993Y-66975370D01*
X131388587Y-67164362D01*
X131357500Y-67360639D01*
X131357500Y-67559360D01*
X131388587Y-67755637D01*
X131449993Y-67944629D01*
X131449994Y-67944632D01*
X131496290Y-68035491D01*
X131540213Y-68121694D01*
X131657019Y-68282464D01*
X131657021Y-68282466D01*
X131797539Y-68422984D01*
X131877060Y-68480758D01*
X131883824Y-68486039D01*
X131887998Y-68489537D01*
X131988053Y-68589592D01*
X132053737Y-68628437D01*
X132061522Y-68634962D01*
X132075488Y-68655926D01*
X132092679Y-68674338D01*
X132094528Y-68684506D01*
X132100260Y-68693110D01*
X132100674Y-68718297D01*
X132105182Y-68743079D01*
X132101239Y-68752634D01*
X132101410Y-68762970D01*
X132088143Y-68784381D01*
X132078536Y-68807669D01*
X132068122Y-68816692D01*
X132064609Y-68822363D01*
X132057871Y-68825575D01*
X132044996Y-68836732D01*
X131988053Y-68870408D01*
X131988046Y-68870413D01*
X131891854Y-68966604D01*
X131877061Y-68979239D01*
X131797536Y-69037018D01*
X131657021Y-69177533D01*
X131540213Y-69338305D01*
X131449994Y-69515367D01*
X131449993Y-69515370D01*
X131388587Y-69704362D01*
X131357500Y-69900639D01*
X131357500Y-70099360D01*
X131388587Y-70295637D01*
X131449993Y-70484629D01*
X131449994Y-70484632D01*
X131540213Y-70661694D01*
X131657019Y-70822464D01*
X131657021Y-70822466D01*
X131797539Y-70962984D01*
X131877060Y-71020758D01*
X131883824Y-71026039D01*
X131887998Y-71029537D01*
X131988053Y-71129592D01*
X132053737Y-71168437D01*
X132061522Y-71174962D01*
X132075488Y-71195926D01*
X132092679Y-71214338D01*
X132094528Y-71224506D01*
X132100260Y-71233110D01*
X132100674Y-71258297D01*
X132105182Y-71283079D01*
X132101239Y-71292634D01*
X132101410Y-71302970D01*
X132088143Y-71324381D01*
X132078536Y-71347669D01*
X132068122Y-71356692D01*
X132064609Y-71362363D01*
X132057871Y-71365575D01*
X132044996Y-71376732D01*
X131988053Y-71410408D01*
X131988046Y-71410413D01*
X131891854Y-71506604D01*
X131877061Y-71519239D01*
X131797536Y-71577018D01*
X131657021Y-71717533D01*
X131540213Y-71878305D01*
X131449994Y-72055367D01*
X131449993Y-72055370D01*
X131388587Y-72244362D01*
X131369768Y-72363181D01*
X131357500Y-72440639D01*
X131357500Y-72639361D01*
X131368699Y-72710066D01*
X131388587Y-72835637D01*
X131449993Y-73024629D01*
X131449994Y-73024632D01*
X131540213Y-73201694D01*
X131657019Y-73362464D01*
X131657021Y-73362466D01*
X131797539Y-73502984D01*
X131877060Y-73560758D01*
X131883824Y-73566039D01*
X131887998Y-73569537D01*
X131988053Y-73669592D01*
X132053737Y-73708437D01*
X132061522Y-73714962D01*
X132075488Y-73735926D01*
X132092679Y-73754338D01*
X132094528Y-73764506D01*
X132100260Y-73773110D01*
X132100674Y-73798297D01*
X132105182Y-73823079D01*
X132101239Y-73832634D01*
X132101410Y-73842970D01*
X132088143Y-73864381D01*
X132078536Y-73887669D01*
X132068122Y-73896692D01*
X132064609Y-73902363D01*
X132057871Y-73905575D01*
X132044996Y-73916732D01*
X131988053Y-73950408D01*
X131988046Y-73950413D01*
X131891854Y-74046604D01*
X131877061Y-74059239D01*
X131797536Y-74117018D01*
X131657021Y-74257533D01*
X131540213Y-74418305D01*
X131449994Y-74595367D01*
X131449993Y-74595370D01*
X131388587Y-74784362D01*
X131357500Y-74980639D01*
X131357500Y-75179360D01*
X131388587Y-75375637D01*
X131449993Y-75564629D01*
X131449994Y-75564632D01*
X131540213Y-75741694D01*
X131657019Y-75902464D01*
X131657021Y-75902466D01*
X131797539Y-76042984D01*
X131877060Y-76100758D01*
X131883824Y-76106039D01*
X131887998Y-76109537D01*
X131988053Y-76209592D01*
X132053737Y-76248437D01*
X132061522Y-76254962D01*
X132075488Y-76275926D01*
X132092679Y-76294338D01*
X132094528Y-76304506D01*
X132100260Y-76313110D01*
X132100674Y-76338297D01*
X132105182Y-76363079D01*
X132101239Y-76372634D01*
X132101410Y-76382970D01*
X132088143Y-76404381D01*
X132078536Y-76427669D01*
X132068122Y-76436692D01*
X132064609Y-76442363D01*
X132057871Y-76445575D01*
X132044996Y-76456732D01*
X131988053Y-76490408D01*
X131988046Y-76490413D01*
X131891854Y-76586604D01*
X131877061Y-76599239D01*
X131797536Y-76657018D01*
X131657021Y-76797533D01*
X131540213Y-76958305D01*
X131449994Y-77135367D01*
X131449993Y-77135370D01*
X131388587Y-77324362D01*
X131357500Y-77520639D01*
X131357500Y-77719360D01*
X131388587Y-77915637D01*
X131449993Y-78104629D01*
X131449994Y-78104632D01*
X131540213Y-78281694D01*
X131657019Y-78442464D01*
X131657021Y-78442466D01*
X131797539Y-78582984D01*
X131877060Y-78640758D01*
X131891851Y-78653390D01*
X131988053Y-78749592D01*
X132130041Y-78833564D01*
X132171816Y-78845701D01*
X132288447Y-78879586D01*
X132288450Y-78879586D01*
X132288452Y-78879587D01*
X132325466Y-78882500D01*
X132325474Y-78882500D01*
X134584526Y-78882500D01*
X134584534Y-78882500D01*
X134621548Y-78879587D01*
X134621550Y-78879586D01*
X134621552Y-78879586D01*
X134663323Y-78867449D01*
X134779959Y-78833564D01*
X134921947Y-78749592D01*
X135038592Y-78632947D01*
X135122564Y-78490959D01*
X135168587Y-78332548D01*
X135171500Y-78295534D01*
X135171500Y-76944466D01*
X135168587Y-76907452D01*
X135122564Y-76749041D01*
X135038592Y-76607053D01*
X135038590Y-76607051D01*
X135038587Y-76607047D01*
X134921952Y-76490412D01*
X134921944Y-76490406D01*
X134865004Y-76456732D01*
X134817321Y-76405663D01*
X134804817Y-76336921D01*
X134831462Y-76272332D01*
X134865004Y-76243268D01*
X134921947Y-76209592D01*
X135038592Y-76092947D01*
X135122564Y-75950959D01*
X135168587Y-75792548D01*
X135171500Y-75755534D01*
X135171500Y-74404466D01*
X135168587Y-74367452D01*
X135167346Y-74363181D01*
X135122565Y-74209045D01*
X135122564Y-74209042D01*
X135122564Y-74209041D01*
X135048799Y-74084312D01*
X135038594Y-74067056D01*
X135038587Y-74067047D01*
X134921952Y-73950412D01*
X134921944Y-73950406D01*
X134865004Y-73916732D01*
X134817321Y-73865663D01*
X134804817Y-73796921D01*
X134831462Y-73732332D01*
X134865004Y-73703268D01*
X134921947Y-73669592D01*
X135038592Y-73552947D01*
X135122564Y-73410959D01*
X135168587Y-73252548D01*
X135171500Y-73215534D01*
X135171500Y-71864466D01*
X135168587Y-71827452D01*
X135167081Y-71822269D01*
X135122565Y-71669045D01*
X135122564Y-71669042D01*
X135122564Y-71669041D01*
X135038592Y-71527053D01*
X135038590Y-71527051D01*
X135038587Y-71527047D01*
X134921952Y-71410412D01*
X134921944Y-71410406D01*
X134865004Y-71376732D01*
X134817321Y-71325663D01*
X134804817Y-71256921D01*
X134831462Y-71192332D01*
X134865004Y-71163268D01*
X134921947Y-71129592D01*
X135038592Y-71012947D01*
X135122564Y-70870959D01*
X135168587Y-70712548D01*
X135171500Y-70675534D01*
X135171500Y-69324466D01*
X135168587Y-69287452D01*
X135153936Y-69237025D01*
X135122565Y-69129045D01*
X135122564Y-69129042D01*
X135122564Y-69129041D01*
X135038592Y-68987053D01*
X135038590Y-68987051D01*
X135038587Y-68987047D01*
X134921952Y-68870412D01*
X134921944Y-68870406D01*
X134865004Y-68836732D01*
X134817321Y-68785663D01*
X134804817Y-68716921D01*
X134831462Y-68652332D01*
X134865004Y-68623268D01*
X134872067Y-68619091D01*
X134921947Y-68589592D01*
X135038592Y-68472947D01*
X135122564Y-68330959D01*
X135161919Y-68195500D01*
X135168586Y-68172552D01*
X135168587Y-68172546D01*
X135170503Y-68148204D01*
X135171500Y-68135534D01*
X135171500Y-66784466D01*
X135168587Y-66747452D01*
X135122564Y-66589041D01*
X135038592Y-66447053D01*
X135038590Y-66447051D01*
X135038587Y-66447047D01*
X134921952Y-66330412D01*
X134921949Y-66330410D01*
X134921947Y-66330408D01*
X134864511Y-66296440D01*
X134816829Y-66245371D01*
X134804326Y-66176630D01*
X134830972Y-66112040D01*
X134864514Y-66082976D01*
X134921637Y-66049193D01*
X134921643Y-66049189D01*
X135038189Y-65932643D01*
X135038196Y-65932634D01*
X135122102Y-65790756D01*
X135122103Y-65790753D01*
X135168088Y-65632473D01*
X135168089Y-65632467D01*
X135170999Y-65595488D01*
X135170999Y-64244530D01*
X135170998Y-64244508D01*
X135168089Y-64207533D01*
X135122102Y-64049242D01*
X135038196Y-63907365D01*
X135038189Y-63907356D01*
X134921643Y-63790810D01*
X134921634Y-63790803D01*
X134864513Y-63757022D01*
X134816829Y-63705953D01*
X134804326Y-63637211D01*
X134830972Y-63572622D01*
X134864514Y-63543558D01*
X134921941Y-63509596D01*
X134921942Y-63509594D01*
X134921947Y-63509592D01*
X135038592Y-63392947D01*
X135122564Y-63250959D01*
X135168587Y-63092548D01*
X135171500Y-63055534D01*
X135171500Y-61704466D01*
X135168587Y-61667452D01*
X135148961Y-61599901D01*
X135122565Y-61509045D01*
X135122564Y-61509042D01*
X135122564Y-61509041D01*
X135038592Y-61367053D01*
X135038590Y-61367051D01*
X135038587Y-61367047D01*
X134921952Y-61250412D01*
X134921943Y-61250405D01*
X134779957Y-61166435D01*
X134779954Y-61166434D01*
X134621552Y-61120413D01*
X134621546Y-61120412D01*
X134584541Y-61117500D01*
X134584534Y-61117500D01*
X132325466Y-61117500D01*
X132325458Y-61117500D01*
X132288453Y-61120412D01*
X132288447Y-61120413D01*
X132130045Y-61166434D01*
X132130042Y-61166435D01*
X131988056Y-61250405D01*
X131988046Y-61250413D01*
X131891854Y-61346604D01*
X131877061Y-61359239D01*
X131797536Y-61417018D01*
X131657021Y-61557533D01*
X131540213Y-61718305D01*
X131449994Y-61895367D01*
X131449993Y-61895370D01*
X131388587Y-62084362D01*
X131388587Y-62084364D01*
X131357500Y-62280639D01*
X118642500Y-62280639D01*
X118611413Y-62084364D01*
X118550005Y-61895368D01*
X118550005Y-61895367D01*
X118459786Y-61718305D01*
X118450995Y-61706205D01*
X118342981Y-61557536D01*
X118202464Y-61417019D01*
X118191703Y-61409201D01*
X118122938Y-61359240D01*
X118108147Y-61346608D01*
X118011947Y-61250408D01*
X118011946Y-61250407D01*
X118011943Y-61250405D01*
X117869957Y-61166435D01*
X117869954Y-61166434D01*
X117711552Y-61120413D01*
X117711546Y-61120412D01*
X117674541Y-61117500D01*
X117674534Y-61117500D01*
X115415466Y-61117500D01*
X115415458Y-61117500D01*
X115378453Y-61120412D01*
X115378447Y-61120413D01*
X115220045Y-61166434D01*
X115220042Y-61166435D01*
X115078056Y-61250405D01*
X115078047Y-61250412D01*
X114961412Y-61367047D01*
X114961405Y-61367056D01*
X114877435Y-61509042D01*
X114877434Y-61509045D01*
X114831413Y-61667447D01*
X114831412Y-61667453D01*
X114828500Y-61704458D01*
X114828500Y-63055541D01*
X114831412Y-63092546D01*
X114831413Y-63092552D01*
X114877434Y-63250954D01*
X114877435Y-63250957D01*
X114961405Y-63392943D01*
X114961412Y-63392952D01*
X115078047Y-63509587D01*
X115078050Y-63509589D01*
X115078053Y-63509592D01*
X115134996Y-63543268D01*
X115182679Y-63594338D01*
X115195182Y-63663079D01*
X115168536Y-63727669D01*
X115134996Y-63756731D01*
X115078053Y-63790408D01*
X115078047Y-63790412D01*
X114961412Y-63907047D01*
X114961405Y-63907056D01*
X114877435Y-64049042D01*
X114877434Y-64049045D01*
X114831413Y-64207447D01*
X114831412Y-64207453D01*
X114828500Y-64244458D01*
X114828500Y-65595541D01*
X114831412Y-65632546D01*
X114831413Y-65632552D01*
X114877434Y-65790954D01*
X114877435Y-65790957D01*
X114961405Y-65932943D01*
X114961412Y-65932952D01*
X115078047Y-66049587D01*
X115078050Y-66049589D01*
X115078053Y-66049592D01*
X115134502Y-66082976D01*
X115134996Y-66083268D01*
X115182679Y-66134338D01*
X115195182Y-66203079D01*
X115168536Y-66267669D01*
X115134996Y-66296732D01*
X115078053Y-66330408D01*
X115078047Y-66330412D01*
X114961412Y-66447047D01*
X114961405Y-66447056D01*
X114877435Y-66589042D01*
X114877434Y-66589045D01*
X114831413Y-66747447D01*
X114831412Y-66747453D01*
X114828500Y-66784458D01*
X114828500Y-67179903D01*
X114822261Y-67201148D01*
X114820682Y-67223237D01*
X114812609Y-67234020D01*
X114808815Y-67246942D01*
X114792081Y-67261441D01*
X114778810Y-67279170D01*
X114766189Y-67283877D01*
X114756011Y-67292697D01*
X114734093Y-67295848D01*
X114713346Y-67303587D01*
X114700185Y-67300724D01*
X114686853Y-67302641D01*
X114666709Y-67293441D01*
X114645073Y-67288735D01*
X114627347Y-67275466D01*
X114623297Y-67273616D01*
X114616819Y-67267584D01*
X114582590Y-67233355D01*
X114582588Y-67233352D01*
X114463717Y-67114481D01*
X114463709Y-67114475D01*
X114353007Y-67050562D01*
X114353006Y-67050561D01*
X114334575Y-67039920D01*
X114326785Y-67035423D01*
X114174057Y-66994499D01*
X114174054Y-66994499D01*
X114162089Y-66994499D01*
X114095050Y-66974814D01*
X114074408Y-66958180D01*
X114049443Y-66933215D01*
X114049435Y-66933209D01*
X113906588Y-66848730D01*
X113906585Y-66848729D01*
X113747225Y-66802430D01*
X113747219Y-66802429D01*
X113709991Y-66799500D01*
X113290020Y-66799500D01*
X113289998Y-66799501D01*
X113252782Y-66802429D01*
X113093409Y-66848731D01*
X112950564Y-66933209D01*
X112950556Y-66933215D01*
X112925591Y-66958181D01*
X112864268Y-66991666D01*
X112837910Y-66994500D01*
X112325940Y-66994500D01*
X112285019Y-67005464D01*
X112285019Y-67005465D01*
X112247751Y-67015451D01*
X112173214Y-67035423D01*
X112173211Y-67035425D01*
X112161973Y-67041913D01*
X112094072Y-67058382D01*
X112028046Y-67035527D01*
X112012301Y-67022208D01*
X112007546Y-67017454D01*
X111892335Y-66931206D01*
X111892328Y-66931202D01*
X111757486Y-66880910D01*
X111757485Y-66880909D01*
X111757483Y-66880909D01*
X111697873Y-66874500D01*
X111697863Y-66874500D01*
X111052129Y-66874500D01*
X111052123Y-66874501D01*
X110992518Y-66880908D01*
X110973547Y-66887984D01*
X110963632Y-66891682D01*
X110958003Y-66892697D01*
X110955235Y-66894477D01*
X110920300Y-66899500D01*
X110724500Y-66899500D01*
X110657461Y-66879815D01*
X110611706Y-66827011D01*
X110600500Y-66775500D01*
X110600500Y-65089060D01*
X110600501Y-65089047D01*
X110600501Y-64920944D01*
X110600501Y-64920943D01*
X110559577Y-64768216D01*
X110529930Y-64716865D01*
X110480524Y-64631290D01*
X110480518Y-64631282D01*
X106186590Y-60337355D01*
X106186588Y-60337352D01*
X106067717Y-60218481D01*
X106067716Y-60218480D01*
X105980904Y-60168360D01*
X105980904Y-60168359D01*
X105980900Y-60168358D01*
X105930785Y-60139423D01*
X105778057Y-60098499D01*
X105619943Y-60098499D01*
X105612347Y-60098499D01*
X105612331Y-60098500D01*
X92347669Y-60098500D01*
X92347653Y-60098499D01*
X92340057Y-60098499D01*
X92181943Y-60098499D01*
X92074587Y-60127265D01*
X92029210Y-60139424D01*
X92029209Y-60139425D01*
X91979096Y-60168359D01*
X91979095Y-60168360D01*
X91935689Y-60193420D01*
X91892285Y-60218479D01*
X91892282Y-60218481D01*
X91780478Y-60330286D01*
X91555794Y-60554969D01*
X91494471Y-60588454D01*
X91429795Y-60585219D01*
X91264536Y-60531523D01*
X91129746Y-60510174D01*
X91062352Y-60499500D01*
X90857648Y-60499500D01*
X90844781Y-60501538D01*
X90655465Y-60531522D01*
X90460776Y-60594781D01*
X90278386Y-60687715D01*
X90112786Y-60808028D01*
X89968028Y-60952786D01*
X89847715Y-61118386D01*
X89800485Y-61211080D01*
X89752510Y-61261876D01*
X89684689Y-61278671D01*
X89618554Y-61256134D01*
X89579515Y-61211080D01*
X89578883Y-61209840D01*
X89532287Y-61118390D01*
X89523889Y-61106831D01*
X89411971Y-60952786D01*
X89267213Y-60808028D01*
X89101613Y-60687715D01*
X89101612Y-60687714D01*
X89101610Y-60687713D01*
X89044653Y-60658691D01*
X88919223Y-60594781D01*
X88724534Y-60531522D01*
X88535219Y-60501538D01*
X88522352Y-60499500D01*
X88317648Y-60499500D01*
X88304781Y-60501538D01*
X88115465Y-60531522D01*
X87920776Y-60594781D01*
X87738386Y-60687715D01*
X87572786Y-60808028D01*
X87428028Y-60952786D01*
X87307713Y-61118388D01*
X87260203Y-61211630D01*
X87212228Y-61262426D01*
X87144407Y-61279220D01*
X87078272Y-61256682D01*
X87039234Y-61211628D01*
X86991861Y-61118652D01*
X86871582Y-60953105D01*
X86871582Y-60953104D01*
X86726895Y-60808417D01*
X86561349Y-60688140D01*
X86379029Y-60595244D01*
X86184413Y-60532009D01*
X86130000Y-60523390D01*
X86130000Y-61566988D01*
X86072993Y-61534075D01*
X85945826Y-61500000D01*
X85814174Y-61500000D01*
X85687007Y-61534075D01*
X85630000Y-61566988D01*
X85630000Y-60523390D01*
X85575586Y-60532009D01*
X85380970Y-60595244D01*
X85198650Y-60688140D01*
X85033105Y-60808417D01*
X85033104Y-60808417D01*
X84888417Y-60953104D01*
X84888417Y-60953105D01*
X84768140Y-61118650D01*
X84675244Y-61300968D01*
X84612009Y-61495582D01*
X84580000Y-61697682D01*
X75019306Y-61697682D01*
X75020076Y-61691339D01*
X75023902Y-61670463D01*
X75023902Y-61670462D01*
X75024454Y-61667453D01*
X75071780Y-61409197D01*
X75075364Y-61394663D01*
X75160696Y-61120822D01*
X75165998Y-61106841D01*
X75283731Y-60845249D01*
X75290676Y-60832016D01*
X75439080Y-60586526D01*
X75447567Y-60574230D01*
X75624480Y-60348417D01*
X75634395Y-60337226D01*
X75837226Y-60134395D01*
X75848417Y-60124480D01*
X76074230Y-59947567D01*
X76086526Y-59939080D01*
X76332016Y-59790676D01*
X76345249Y-59783731D01*
X76606841Y-59665998D01*
X76620822Y-59660696D01*
X76894668Y-59575362D01*
X76909197Y-59571780D01*
X77191344Y-59520075D01*
X77206201Y-59518271D01*
X77496264Y-59500726D01*
X77503751Y-59500500D01*
X77565892Y-59500500D01*
X133934108Y-59500500D01*
X133996249Y-59500500D01*
X134003736Y-59500726D01*
G37*
%TD.AperFunction*%
%TD*%
M02*
